ISO-10303-21;
HEADER;
/* Generated by software containing ST-Developer
 * from STEP Tools, Inc. (www.steptools.com) 
 */
/* OPTION: using custom renumber hook */

FILE_DESCRIPTION(
/* description */ ('STEP AP242 Edition 2',
'CAx-IF Rec.Pracs.---Representation and Presentation of Product Manufa
cturing Information (PMI)---4.0---2014-10-13',
'CAx-IF Rec.Pracs.---3D Tessellated Geometry---0.4---2014-09-14','2;1',
'CAx-IF Rec.Pracs.---User Defined Attributes---1.5---2016-08-15'),
/* implementation_level */ '2;1');

FILE_NAME(
/* name */ 'Part Studio 2 - Part 1',
/* time_stamp */ '2026-08-19T13:02:51Z',
/* author */ (''),
/* organization */ (''),
/* preprocessor_version */ 'ST-DEVELOPER v20',
/* originating_system */ 'ONSHAPE BY PTC INC, 1.219',
/* authorisation */ '  ');

FILE_SCHEMA (('AP242_MANAGED_MODEL_BASED_3D_ENGINEERING_MIM_LF { 1 0 10303 442 3 1 4 }'));
ENDSEC;

DATA;
#10=SHAPE_REPRESENTATION_RELATIONSHIP('','',#646,#11);
#11=ADVANCED_BREP_SHAPE_REPRESENTATION('',(#644),#1147);
#12=B_SPLINE_CURVE_WITH_KNOTS('',3,(#1073,#1074,#1075,#1076,#1077,#1078,
#1079,#1080,#1081),.UNSPECIFIED.,.F.,.F.,(4,1,1,1,1,1,4),(1.96346749027621E-7,
0.00163015586868554,0.00326011539062205,0.00489007491255856,0.00652003443449506,
0.00977995347836808,0.0130398725222411),.UNSPECIFIED.);
#13=B_SPLINE_CURVE_WITH_KNOTS('',3,(#1085,#1086,#1087,#1088,#1089,#1090,
#1091,#1092,#1093),.UNSPECIFIED.,.F.,.F.,(4,1,1,1,1,1,4),(4.68516309500933E-7,
0.00325605103731333,0.00651163355831716,0.00813942481881907,0.00976721607932099,
0.0113950073398229,0.0130227986003248),.UNSPECIFIED.);
#14=CONICAL_SURFACE('',#700,0.03,0.785398163397448);
#15=CYLINDRICAL_SURFACE('',#665,0.023625);
#16=CYLINDRICAL_SURFACE('',#667,0.023625);
#17=CYLINDRICAL_SURFACE('',#669,0.023625);
#18=CYLINDRICAL_SURFACE('',#671,0.023625);
#19=CYLINDRICAL_SURFACE('',#699,0.0139079339892189);
#20=CYLINDRICAL_SURFACE('',#702,0.0125);
#21=CYLINDRICAL_SURFACE('',#705,0.0175);
#22=CYLINDRICAL_SURFACE('',#708,0.0125);
#23=CYLINDRICAL_SURFACE('',#711,0.0175);
#24=CYLINDRICAL_SURFACE('',#714,0.0175);
#25=CYLINDRICAL_SURFACE('',#716,0.0125);
#26=CYLINDRICAL_SURFACE('',#721,0.0175);
#27=CYLINDRICAL_SURFACE('',#723,0.0125);
#28=CYLINDRICAL_SURFACE('',#730,0.002);
#29=CYLINDRICAL_SURFACE('',#731,0.002);
#30=CYLINDRICAL_SURFACE('',#732,0.002);
#31=CYLINDRICAL_SURFACE('',#733,0.002);
#32=CYLINDRICAL_SURFACE('',#734,0.0405);
#33=CYLINDRICAL_SURFACE('',#735,0.004);
#34=CYLINDRICAL_SURFACE('',#736,0.0325);
#35=CYLINDRICAL_SURFACE('',#737,0.004);
#36=LINE('',#958,#64);
#37=LINE('',#963,#65);
#38=LINE('',#967,#66);
#39=LINE('',#971,#67);
#40=LINE('',#994,#68);
#41=LINE('',#995,#69);
#42=LINE('',#997,#70);
#43=LINE('',#1001,#71);
#44=LINE('',#1006,#72);
#45=LINE('',#1007,#73);
#46=LINE('',#1009,#74);
#47=LINE('',#1013,#75);
#48=LINE('',#1035,#76);
#49=LINE('',#1038,#77);
#50=LINE('',#1039,#78);
#51=LINE('',#1041,#79);
#52=LINE('',#1043,#80);
#53=LINE('',#1045,#81);
#54=LINE('',#1047,#82);
#55=LINE('',#1050,#83);
#56=LINE('',#1051,#84);
#57=LINE('',#1053,#85);
#58=LINE('',#1056,#86);
#59=LINE('',#1057,#87);
#60=LINE('',#1139,#88);
#61=LINE('',#1140,#89);
#62=LINE('',#1142,#90);
#63=LINE('',#1144,#91);
#64=VECTOR('',#750,1.);
#65=VECTOR('',#753,1.);
#66=VECTOR('',#756,1.);
#67=VECTOR('',#759,1.);
#68=VECTOR('',#782,1.);
#69=VECTOR('',#783,1.);
#70=VECTOR('',#786,1.);
#71=VECTOR('',#789,1.);
#72=VECTOR('',#794,1.);
#73=VECTOR('',#795,1.);
#74=VECTOR('',#798,1.);
#75=VECTOR('',#801,1.);
#76=VECTOR('',#830,1.);
#77=VECTOR('',#831,1.);
#78=VECTOR('',#832,1.);
#79=VECTOR('',#835,1.);
#80=VECTOR('',#836,1.);
#81=VECTOR('',#837,1.);
#82=VECTOR('',#840,1.);
#83=VECTOR('',#841,1.);
#84=VECTOR('',#842,1.);
#85=VECTOR('',#845,1.);
#86=VECTOR('',#846,1.);
#87=VECTOR('',#847,1.);
#88=VECTOR('',#938,1.);
#89=VECTOR('',#939,1.);
#90=VECTOR('',#942,1.);
#91=VECTOR('',#945,1.);
#92=ORIENTED_EDGE('',*,*,#256,.F.);
#93=ORIENTED_EDGE('',*,*,#257,.F.);
#94=ORIENTED_EDGE('',*,*,#258,.F.);
#95=ORIENTED_EDGE('',*,*,#259,.T.);
#96=ORIENTED_EDGE('',*,*,#260,.F.);
#97=ORIENTED_EDGE('',*,*,#261,.T.);
#98=ORIENTED_EDGE('',*,*,#262,.F.);
#99=ORIENTED_EDGE('',*,*,#263,.F.);
#100=ORIENTED_EDGE('',*,*,#264,.T.);
#101=ORIENTED_EDGE('',*,*,#265,.T.);
#102=ORIENTED_EDGE('',*,*,#266,.T.);
#103=ORIENTED_EDGE('',*,*,#267,.F.);
#104=ORIENTED_EDGE('',*,*,#268,.F.);
#105=ORIENTED_EDGE('',*,*,#269,.T.);
#106=ORIENTED_EDGE('',*,*,#270,.T.);
#107=ORIENTED_EDGE('',*,*,#271,.T.);
#108=ORIENTED_EDGE('',*,*,#272,.F.);
#109=ORIENTED_EDGE('',*,*,#273,.T.);
#110=ORIENTED_EDGE('',*,*,#274,.T.);
#111=ORIENTED_EDGE('',*,*,#275,.T.);
#112=ORIENTED_EDGE('',*,*,#276,.T.);
#113=ORIENTED_EDGE('',*,*,#277,.T.);
#114=ORIENTED_EDGE('',*,*,#275,.F.);
#115=ORIENTED_EDGE('',*,*,#278,.F.);
#116=ORIENTED_EDGE('',*,*,#269,.F.);
#117=ORIENTED_EDGE('',*,*,#279,.T.);
#118=ORIENTED_EDGE('',*,*,#280,.T.);
#119=ORIENTED_EDGE('',*,*,#281,.F.);
#120=ORIENTED_EDGE('',*,*,#282,.T.);
#121=ORIENTED_EDGE('',*,*,#283,.T.);
#122=ORIENTED_EDGE('',*,*,#271,.F.);
#123=ORIENTED_EDGE('',*,*,#284,.F.);
#124=ORIENTED_EDGE('',*,*,#273,.F.);
#125=ORIENTED_EDGE('',*,*,#285,.T.);
#126=ORIENTED_EDGE('',*,*,#286,.T.);
#127=ORIENTED_EDGE('',*,*,#287,.F.);
#128=ORIENTED_EDGE('',*,*,#288,.T.);
#129=ORIENTED_EDGE('',*,*,#289,.F.);
#130=ORIENTED_EDGE('',*,*,#290,.F.);
#131=ORIENTED_EDGE('',*,*,#291,.T.);
#132=ORIENTED_EDGE('',*,*,#292,.F.);
#133=ORIENTED_EDGE('',*,*,#293,.T.);
#134=ORIENTED_EDGE('',*,*,#294,.T.);
#135=ORIENTED_EDGE('',*,*,#295,.F.);
#136=ORIENTED_EDGE('',*,*,#276,.F.);
#137=ORIENTED_EDGE('',*,*,#296,.T.);
#138=ORIENTED_EDGE('',*,*,#286,.F.);
#139=ORIENTED_EDGE('',*,*,#297,.F.);
#140=ORIENTED_EDGE('',*,*,#282,.F.);
#141=ORIENTED_EDGE('',*,*,#298,.T.);
#142=ORIENTED_EDGE('',*,*,#280,.F.);
#143=ORIENTED_EDGE('',*,*,#299,.T.);
#144=ORIENTED_EDGE('',*,*,#300,.T.);
#145=ORIENTED_EDGE('',*,*,#264,.F.);
#146=ORIENTED_EDGE('',*,*,#301,.F.);
#147=ORIENTED_EDGE('',*,*,#302,.F.);
#148=ORIENTED_EDGE('',*,*,#303,.F.);
#149=ORIENTED_EDGE('',*,*,#304,.T.);
#150=ORIENTED_EDGE('',*,*,#262,.T.);
#151=ORIENTED_EDGE('',*,*,#305,.F.);
#152=ORIENTED_EDGE('',*,*,#306,.T.);
#153=ORIENTED_EDGE('',*,*,#260,.T.);
#154=ORIENTED_EDGE('',*,*,#307,.F.);
#155=ORIENTED_EDGE('',*,*,#308,.T.);
#156=ORIENTED_EDGE('',*,*,#309,.T.);
#157=ORIENTED_EDGE('',*,*,#266,.F.);
#158=ORIENTED_EDGE('',*,*,#310,.F.);
#159=ORIENTED_EDGE('',*,*,#311,.F.);
#160=ORIENTED_EDGE('',*,*,#312,.F.);
#161=ORIENTED_EDGE('',*,*,#313,.F.);
#162=ORIENTED_EDGE('',*,*,#314,.F.);
#163=ORIENTED_EDGE('',*,*,#315,.F.);
#164=ORIENTED_EDGE('',*,*,#299,.F.);
#165=ORIENTED_EDGE('',*,*,#316,.T.);
#166=ORIENTED_EDGE('',*,*,#303,.T.);
#167=ORIENTED_EDGE('',*,*,#317,.F.);
#168=ORIENTED_EDGE('',*,*,#305,.T.);
#169=ORIENTED_EDGE('',*,*,#318,.T.);
#170=ORIENTED_EDGE('',*,*,#308,.F.);
#171=ORIENTED_EDGE('',*,*,#292,.T.);
#172=ORIENTED_EDGE('',*,*,#294,.F.);
#173=ORIENTED_EDGE('',*,*,#319,.F.);
#174=ORIENTED_EDGE('',*,*,#320,.T.);
#175=ORIENTED_EDGE('',*,*,#321,.F.);
#176=ORIENTED_EDGE('',*,*,#312,.T.);
#177=ORIENTED_EDGE('',*,*,#291,.F.);
#178=ORIENTED_EDGE('',*,*,#322,.F.);
#179=ORIENTED_EDGE('',*,*,#323,.T.);
#180=ORIENTED_EDGE('',*,*,#316,.F.);
#181=ORIENTED_EDGE('',*,*,#301,.T.);
#182=ORIENTED_EDGE('',*,*,#263,.T.);
#183=ORIENTED_EDGE('',*,*,#304,.F.);
#184=ORIENTED_EDGE('',*,*,#324,.T.);
#185=ORIENTED_EDGE('',*,*,#322,.T.);
#186=ORIENTED_EDGE('',*,*,#324,.F.);
#187=ORIENTED_EDGE('',*,*,#325,.F.);
#188=ORIENTED_EDGE('',*,*,#326,.T.);
#189=ORIENTED_EDGE('',*,*,#318,.F.);
#190=ORIENTED_EDGE('',*,*,#307,.T.);
#191=ORIENTED_EDGE('',*,*,#267,.T.);
#192=ORIENTED_EDGE('',*,*,#309,.F.);
#193=ORIENTED_EDGE('',*,*,#327,.T.);
#194=ORIENTED_EDGE('',*,*,#325,.T.);
#195=ORIENTED_EDGE('',*,*,#327,.F.);
#196=ORIENTED_EDGE('',*,*,#317,.T.);
#197=ORIENTED_EDGE('',*,*,#302,.T.);
#198=ORIENTED_EDGE('',*,*,#261,.F.);
#199=ORIENTED_EDGE('',*,*,#306,.F.);
#200=ORIENTED_EDGE('',*,*,#328,.F.);
#201=ORIENTED_EDGE('',*,*,#329,.T.);
#202=ORIENTED_EDGE('',*,*,#330,.T.);
#203=ORIENTED_EDGE('',*,*,#328,.T.);
#204=ORIENTED_EDGE('',*,*,#329,.F.);
#205=ORIENTED_EDGE('',*,*,#330,.F.);
#206=ORIENTED_EDGE('',*,*,#315,.T.);
#207=ORIENTED_EDGE('',*,*,#310,.T.);
#208=ORIENTED_EDGE('',*,*,#265,.F.);
#209=ORIENTED_EDGE('',*,*,#300,.F.);
#210=ORIENTED_EDGE('',*,*,#331,.F.);
#211=ORIENTED_EDGE('',*,*,#332,.T.);
#212=ORIENTED_EDGE('',*,*,#333,.T.);
#213=ORIENTED_EDGE('',*,*,#331,.T.);
#214=ORIENTED_EDGE('',*,*,#332,.F.);
#215=ORIENTED_EDGE('',*,*,#333,.F.);
#216=ORIENTED_EDGE('',*,*,#323,.F.);
#217=ORIENTED_EDGE('',*,*,#326,.F.);
#218=ORIENTED_EDGE('',*,*,#290,.T.);
#219=ORIENTED_EDGE('',*,*,#281,.T.);
#220=ORIENTED_EDGE('',*,*,#298,.F.);
#221=ORIENTED_EDGE('',*,*,#284,.T.);
#222=ORIENTED_EDGE('',*,*,#270,.F.);
#223=ORIENTED_EDGE('',*,*,#289,.T.);
#224=ORIENTED_EDGE('',*,*,#287,.T.);
#225=ORIENTED_EDGE('',*,*,#296,.F.);
#226=ORIENTED_EDGE('',*,*,#278,.T.);
#227=ORIENTED_EDGE('',*,*,#274,.F.);
#228=ORIENTED_EDGE('',*,*,#288,.F.);
#229=ORIENTED_EDGE('',*,*,#272,.T.);
#230=ORIENTED_EDGE('',*,*,#283,.F.);
#231=ORIENTED_EDGE('',*,*,#297,.T.);
#232=ORIENTED_EDGE('',*,*,#285,.F.);
#233=ORIENTED_EDGE('',*,*,#293,.F.);
#234=ORIENTED_EDGE('',*,*,#268,.T.);
#235=ORIENTED_EDGE('',*,*,#277,.F.);
#236=ORIENTED_EDGE('',*,*,#295,.T.);
#237=ORIENTED_EDGE('',*,*,#279,.F.);
#238=ORIENTED_EDGE('',*,*,#314,.T.);
#239=ORIENTED_EDGE('',*,*,#334,.T.);
#240=ORIENTED_EDGE('',*,*,#257,.T.);
#241=ORIENTED_EDGE('',*,*,#335,.F.);
#242=ORIENTED_EDGE('',*,*,#311,.T.);
#243=ORIENTED_EDGE('',*,*,#335,.T.);
#244=ORIENTED_EDGE('',*,*,#256,.T.);
#245=ORIENTED_EDGE('',*,*,#336,.F.);
#246=ORIENTED_EDGE('',*,*,#319,.T.);
#247=ORIENTED_EDGE('',*,*,#336,.T.);
#248=ORIENTED_EDGE('',*,*,#259,.F.);
#249=ORIENTED_EDGE('',*,*,#337,.F.);
#250=ORIENTED_EDGE('',*,*,#320,.F.);
#251=ORIENTED_EDGE('',*,*,#313,.T.);
#252=ORIENTED_EDGE('',*,*,#321,.T.);
#253=ORIENTED_EDGE('',*,*,#337,.T.);
#254=ORIENTED_EDGE('',*,*,#258,.T.);
#255=ORIENTED_EDGE('',*,*,#334,.F.);
#256=EDGE_CURVE('',#338,#339,#399,.T.);
#257=EDGE_CURVE('',#340,#338,#400,.T.);
#258=EDGE_CURVE('',#341,#340,#401,.T.);
#259=EDGE_CURVE('',#341,#339,#402,.T.);
#260=EDGE_CURVE('',#342,#343,#36,.T.);
#261=EDGE_CURVE('',#342,#344,#403,.F.);
#262=EDGE_CURVE('',#345,#344,#37,.T.);
#263=EDGE_CURVE('',#346,#345,#404,.T.);
#264=EDGE_CURVE('',#346,#347,#38,.T.);
#265=EDGE_CURVE('',#347,#348,#405,.F.);
#266=EDGE_CURVE('',#348,#349,#39,.T.);
#267=EDGE_CURVE('',#343,#349,#406,.T.);
#268=EDGE_CURVE('',#350,#351,#407,.F.);
#269=EDGE_CURVE('',#350,#352,#408,.T.);
#270=EDGE_CURVE('',#352,#353,#409,.T.);
#271=EDGE_CURVE('',#353,#354,#410,.T.);
#272=EDGE_CURVE('',#355,#354,#411,.F.);
#273=EDGE_CURVE('',#355,#356,#412,.T.);
#274=EDGE_CURVE('',#356,#357,#413,.T.);
#275=EDGE_CURVE('',#357,#351,#414,.T.);
#276=EDGE_CURVE('',#358,#359,#415,.T.);
#277=EDGE_CURVE('',#359,#351,#40,.F.);
#278=EDGE_CURVE('',#358,#357,#41,.F.);
#279=EDGE_CURVE('',#350,#360,#42,.T.);
#280=EDGE_CURVE('',#360,#361,#416,.T.);
#281=EDGE_CURVE('',#352,#361,#43,.T.);
#282=EDGE_CURVE('',#362,#363,#417,.T.);
#283=EDGE_CURVE('',#363,#354,#44,.F.);
#284=EDGE_CURVE('',#362,#353,#45,.F.);
#285=EDGE_CURVE('',#355,#364,#46,.T.);
#286=EDGE_CURVE('',#364,#365,#418,.T.);
#287=EDGE_CURVE('',#356,#365,#47,.T.);
#288=EDGE_CURVE('',#366,#366,#419,.F.);
#289=EDGE_CURVE('',#367,#367,#420,.T.);
#290=EDGE_CURVE('',#368,#368,#421,.T.);
#291=EDGE_CURVE('',#369,#369,#422,.T.);
#292=EDGE_CURVE('',#370,#370,#423,.T.);
#293=EDGE_CURVE('',#371,#371,#424,.F.);
#294=EDGE_CURVE('',#372,#372,#425,.T.);
#295=EDGE_CURVE('',#359,#360,#426,.F.);
#296=EDGE_CURVE('',#358,#365,#427,.T.);
#297=EDGE_CURVE('',#363,#364,#428,.F.);
#298=EDGE_CURVE('',#362,#361,#429,.T.);
#299=EDGE_CURVE('',#373,#374,#48,.T.);
#300=EDGE_CURVE('',#374,#347,#49,.T.);
#301=EDGE_CURVE('',#373,#346,#50,.T.);
#302=EDGE_CURVE('',#375,#344,#51,.T.);
#303=EDGE_CURVE('',#376,#375,#52,.T.);
#304=EDGE_CURVE('',#376,#345,#53,.T.);
#305=EDGE_CURVE('',#377,#378,#54,.T.);
#306=EDGE_CURVE('',#377,#342,#55,.T.);
#307=EDGE_CURVE('',#378,#343,#56,.T.);
#308=EDGE_CURVE('',#379,#380,#57,.T.);
#309=EDGE_CURVE('',#380,#349,#58,.T.);
#310=EDGE_CURVE('',#379,#348,#59,.T.);
#311=EDGE_CURVE('',#381,#382,#430,.T.);
#312=EDGE_CURVE('',#383,#381,#431,.T.);
#313=EDGE_CURVE('',#384,#383,#432,.T.);
#314=EDGE_CURVE('',#382,#384,#433,.T.);
#315=EDGE_CURVE('',#374,#379,#434,.T.);
#316=EDGE_CURVE('',#373,#376,#435,.T.);
#317=EDGE_CURVE('',#377,#375,#436,.T.);
#318=EDGE_CURVE('',#378,#380,#437,.T.);
#319=EDGE_CURVE('',#385,#381,#12,.T.);
#320=EDGE_CURVE('',#385,#386,#438,.F.);
#321=EDGE_CURVE('',#383,#386,#13,.T.);
#322=EDGE_CURVE('',#387,#387,#439,.T.);
#323=EDGE_CURVE('',#388,#388,#440,.T.);
#324=EDGE_CURVE('',#389,#389,#441,.T.);
#325=EDGE_CURVE('',#390,#390,#442,.T.);
#326=EDGE_CURVE('',#391,#391,#443,.T.);
#327=EDGE_CURVE('',#392,#392,#444,.T.);
#328=EDGE_CURVE('',#393,#393,#445,.T.);
#329=EDGE_CURVE('',#394,#394,#446,.T.);
#330=EDGE_CURVE('',#395,#395,#447,.F.);
#331=EDGE_CURVE('',#396,#396,#448,.T.);
#332=EDGE_CURVE('',#397,#397,#449,.T.);
#333=EDGE_CURVE('',#398,#398,#450,.F.);
#334=EDGE_CURVE('',#384,#340,#60,.T.);
#335=EDGE_CURVE('',#382,#338,#61,.T.);
#336=EDGE_CURVE('',#385,#339,#62,.T.);
#337=EDGE_CURVE('',#386,#341,#63,.T.);
#338=VERTEX_POINT('',#951);
#339=VERTEX_POINT('',#952);
#340=VERTEX_POINT('',#954);
#341=VERTEX_POINT('',#956);
#342=VERTEX_POINT('',#959);
#343=VERTEX_POINT('',#960);
#344=VERTEX_POINT('',#962);
#345=VERTEX_POINT('',#964);
#346=VERTEX_POINT('',#966);
#347=VERTEX_POINT('',#968);
#348=VERTEX_POINT('',#970);
#349=VERTEX_POINT('',#972);
#350=VERTEX_POINT('',#975);
#351=VERTEX_POINT('',#976);
#352=VERTEX_POINT('',#978);
#353=VERTEX_POINT('',#980);
#354=VERTEX_POINT('',#982);
#355=VERTEX_POINT('',#984);
#356=VERTEX_POINT('',#986);
#357=VERTEX_POINT('',#988);
#358=VERTEX_POINT('',#992);
#359=VERTEX_POINT('',#993);
#360=VERTEX_POINT('',#998);
#361=VERTEX_POINT('',#1000);
#362=VERTEX_POINT('',#1004);
#363=VERTEX_POINT('',#1005);
#364=VERTEX_POINT('',#1010);
#365=VERTEX_POINT('',#1012);
#366=VERTEX_POINT('',#1016);
#367=VERTEX_POINT('',#1018);
#368=VERTEX_POINT('',#1020);
#369=VERTEX_POINT('',#1022);
#370=VERTEX_POINT('',#1024);
#371=VERTEX_POINT('',#1026);
#372=VERTEX_POINT('',#1029);
#373=VERTEX_POINT('',#1036);
#374=VERTEX_POINT('',#1037);
#375=VERTEX_POINT('',#1042);
#376=VERTEX_POINT('',#1044);
#377=VERTEX_POINT('',#1048);
#378=VERTEX_POINT('',#1049);
#379=VERTEX_POINT('',#1054);
#380=VERTEX_POINT('',#1055);
#381=VERTEX_POINT('',#1060);
#382=VERTEX_POINT('',#1061);
#383=VERTEX_POINT('',#1063);
#384=VERTEX_POINT('',#1065);
#385=VERTEX_POINT('',#1082);
#386=VERTEX_POINT('',#1084);
#387=VERTEX_POINT('',#1096);
#388=VERTEX_POINT('',#1098);
#389=VERTEX_POINT('',#1101);
#390=VERTEX_POINT('',#1105);
#391=VERTEX_POINT('',#1107);
#392=VERTEX_POINT('',#1110);
#393=VERTEX_POINT('',#1114);
#394=VERTEX_POINT('',#1117);
#395=VERTEX_POINT('',#1119);
#396=VERTEX_POINT('',#1124);
#397=VERTEX_POINT('',#1127);
#398=VERTEX_POINT('',#1129);
#399=CIRCLE('',#649,0.004);
#400=CIRCLE('',#650,0.0405);
#401=CIRCLE('',#651,0.004);
#402=CIRCLE('',#652,0.0325);
#403=CIRCLE('',#653,0.0175);
#404=CIRCLE('',#654,0.0175);
#405=CIRCLE('',#655,0.0175);
#406=CIRCLE('',#656,0.0175);
#407=CIRCLE('',#657,0.002);
#408=CIRCLE('',#658,0.023625);
#409=CIRCLE('',#659,0.002);
#410=CIRCLE('',#660,0.023625);
#411=CIRCLE('',#661,0.002);
#412=CIRCLE('',#662,0.023625);
#413=CIRCLE('',#663,0.002);
#414=CIRCLE('',#664,0.023625);
#415=CIRCLE('',#666,0.023625);
#416=CIRCLE('',#668,0.023625);
#417=CIRCLE('',#670,0.023625);
#418=CIRCLE('',#672,0.023625);
#419=CIRCLE('',#674,0.002);
#420=CIRCLE('',#675,0.002);
#421=CIRCLE('',#676,0.002);
#422=CIRCLE('',#677,0.03);
#423=CIRCLE('',#678,0.0139079339892189);
#424=CIRCLE('',#679,0.002);
#425=CIRCLE('',#681,0.0139079339892189);
#426=CIRCLE('',#682,0.002);
#427=CIRCLE('',#683,0.002);
#428=CIRCLE('',#684,0.002);
#429=CIRCLE('',#685,0.002);
#430=CIRCLE('',#691,0.004);
#431=CIRCLE('',#692,0.04);
#432=CIRCLE('',#693,0.004);
#433=CIRCLE('',#694,0.0405);
#434=CIRCLE('',#695,0.0175);
#435=CIRCLE('',#696,0.0175);
#436=CIRCLE('',#697,0.0175);
#437=CIRCLE('',#698,0.0175);
#438=CIRCLE('',#701,0.0325);
#439=CIRCLE('',#703,0.0125);
#440=CIRCLE('',#704,0.0125);
#441=CIRCLE('',#706,0.0175);
#442=CIRCLE('',#709,0.0125);
#443=CIRCLE('',#710,0.0125);
#444=CIRCLE('',#712,0.0175);
#445=CIRCLE('',#715,0.0175);
#446=CIRCLE('',#717,0.0125);
#447=CIRCLE('',#718,0.0125);
#448=CIRCLE('',#722,0.0175);
#449=CIRCLE('',#724,0.0125);
#450=CIRCLE('',#725,0.0125);
#451=EDGE_LOOP('',(#92,#93,#94,#95));
#452=EDGE_LOOP('',(#96,#97,#98,#99,#100,#101,#102,#103));
#453=EDGE_LOOP('',(#104,#105,#106,#107,#108,#109,#110,#111));
#454=EDGE_LOOP('',(#112,#113,#114,#115));
#455=EDGE_LOOP('',(#116,#117,#118,#119));
#456=EDGE_LOOP('',(#120,#121,#122,#123));
#457=EDGE_LOOP('',(#124,#125,#126,#127));
#458=EDGE_LOOP('',(#128));
#459=EDGE_LOOP('',(#129));
#460=EDGE_LOOP('',(#130));
#461=EDGE_LOOP('',(#131));
#462=EDGE_LOOP('',(#132));
#463=EDGE_LOOP('',(#133));
#464=EDGE_LOOP('',(#134));
#465=EDGE_LOOP('',(#135,#136,#137,#138,#139,#140,#141,#142));
#466=EDGE_LOOP('',(#143,#144,#145,#146));
#467=EDGE_LOOP('',(#147,#148,#149,#150));
#468=EDGE_LOOP('',(#151,#152,#153,#154));
#469=EDGE_LOOP('',(#155,#156,#157,#158));
#470=EDGE_LOOP('',(#159,#160,#161,#162));
#471=EDGE_LOOP('',(#163,#164,#165,#166,#167,#168,#169,#170));
#472=EDGE_LOOP('',(#171));
#473=EDGE_LOOP('',(#172));
#474=EDGE_LOOP('',(#173,#174,#175,#176));
#475=EDGE_LOOP('',(#177));
#476=EDGE_LOOP('',(#178));
#477=EDGE_LOOP('',(#179));
#478=EDGE_LOOP('',(#180,#181,#182,#183));
#479=EDGE_LOOP('',(#184));
#480=EDGE_LOOP('',(#185));
#481=EDGE_LOOP('',(#186));
#482=EDGE_LOOP('',(#187));
#483=EDGE_LOOP('',(#188));
#484=EDGE_LOOP('',(#189,#190,#191,#192));
#485=EDGE_LOOP('',(#193));
#486=EDGE_LOOP('',(#194));
#487=EDGE_LOOP('',(#195));
#488=EDGE_LOOP('',(#196,#197,#198,#199));
#489=EDGE_LOOP('',(#200));
#490=EDGE_LOOP('',(#201));
#491=EDGE_LOOP('',(#202));
#492=EDGE_LOOP('',(#203));
#493=EDGE_LOOP('',(#204));
#494=EDGE_LOOP('',(#205));
#495=EDGE_LOOP('',(#206,#207,#208,#209));
#496=EDGE_LOOP('',(#210));
#497=EDGE_LOOP('',(#211));
#498=EDGE_LOOP('',(#212));
#499=EDGE_LOOP('',(#213));
#500=EDGE_LOOP('',(#214));
#501=EDGE_LOOP('',(#215));
#502=EDGE_LOOP('',(#216));
#503=EDGE_LOOP('',(#217));
#504=EDGE_LOOP('',(#218));
#505=EDGE_LOOP('',(#219,#220,#221,#222));
#506=EDGE_LOOP('',(#223));
#507=EDGE_LOOP('',(#224,#225,#226,#227));
#508=EDGE_LOOP('',(#228));
#509=EDGE_LOOP('',(#229,#230,#231,#232));
#510=EDGE_LOOP('',(#233));
#511=EDGE_LOOP('',(#234,#235,#236,#237));
#512=EDGE_LOOP('',(#238,#239,#240,#241));
#513=EDGE_LOOP('',(#242,#243,#244,#245,#246));
#514=EDGE_LOOP('',(#247,#248,#249,#250));
#515=EDGE_LOOP('',(#251,#252,#253,#254,#255));
#516=FACE_BOUND('',#451,.T.);
#517=FACE_BOUND('',#452,.T.);
#518=FACE_BOUND('',#453,.T.);
#519=FACE_BOUND('',#454,.T.);
#520=FACE_BOUND('',#455,.T.);
#521=FACE_BOUND('',#456,.T.);
#522=FACE_BOUND('',#457,.T.);
#523=FACE_BOUND('',#458,.T.);
#524=FACE_BOUND('',#459,.T.);
#525=FACE_BOUND('',#460,.T.);
#526=FACE_BOUND('',#461,.T.);
#527=FACE_BOUND('',#462,.T.);
#528=FACE_BOUND('',#463,.T.);
#529=FACE_BOUND('',#464,.T.);
#530=FACE_BOUND('',#465,.T.);
#531=FACE_BOUND('',#466,.T.);
#532=FACE_BOUND('',#467,.T.);
#533=FACE_BOUND('',#468,.T.);
#534=FACE_BOUND('',#469,.T.);
#535=FACE_BOUND('',#470,.T.);
#536=FACE_BOUND('',#471,.T.);
#537=FACE_BOUND('',#472,.T.);
#538=FACE_BOUND('',#473,.T.);
#539=FACE_BOUND('',#474,.T.);
#540=FACE_BOUND('',#475,.T.);
#541=FACE_BOUND('',#476,.T.);
#542=FACE_BOUND('',#477,.T.);
#543=FACE_BOUND('',#478,.T.);
#544=FACE_BOUND('',#479,.T.);
#545=FACE_BOUND('',#480,.T.);
#546=FACE_BOUND('',#481,.T.);
#547=FACE_BOUND('',#482,.T.);
#548=FACE_BOUND('',#483,.T.);
#549=FACE_BOUND('',#484,.T.);
#550=FACE_BOUND('',#485,.T.);
#551=FACE_BOUND('',#486,.T.);
#552=FACE_BOUND('',#487,.T.);
#553=FACE_BOUND('',#488,.T.);
#554=FACE_BOUND('',#489,.T.);
#555=FACE_BOUND('',#490,.T.);
#556=FACE_BOUND('',#491,.T.);
#557=FACE_BOUND('',#492,.T.);
#558=FACE_BOUND('',#493,.T.);
#559=FACE_BOUND('',#494,.T.);
#560=FACE_BOUND('',#495,.T.);
#561=FACE_BOUND('',#496,.T.);
#562=FACE_BOUND('',#497,.T.);
#563=FACE_BOUND('',#498,.T.);
#564=FACE_BOUND('',#499,.T.);
#565=FACE_BOUND('',#500,.T.);
#566=FACE_BOUND('',#501,.T.);
#567=FACE_BOUND('',#502,.T.);
#568=FACE_BOUND('',#503,.T.);
#569=FACE_BOUND('',#504,.T.);
#570=FACE_BOUND('',#505,.T.);
#571=FACE_BOUND('',#506,.T.);
#572=FACE_BOUND('',#507,.T.);
#573=FACE_BOUND('',#508,.T.);
#574=FACE_BOUND('',#509,.T.);
#575=FACE_BOUND('',#510,.T.);
#576=FACE_BOUND('',#511,.T.);
#577=FACE_BOUND('',#512,.T.);
#578=FACE_BOUND('',#513,.T.);
#579=FACE_BOUND('',#514,.T.);
#580=FACE_BOUND('',#515,.T.);
#581=PLANE('',#648);
#582=PLANE('',#673);
#583=PLANE('',#680);
#584=PLANE('',#686);
#585=PLANE('',#687);
#586=PLANE('',#688);
#587=PLANE('',#689);
#588=PLANE('',#690);
#589=PLANE('',#707);
#590=PLANE('',#713);
#591=PLANE('',#719);
#592=PLANE('',#720);
#593=PLANE('',#726);
#594=PLANE('',#727);
#595=PLANE('',#728);
#596=PLANE('',#729);
#597=ADVANCED_FACE('',(#516,#517,#518),#581,.F.);
#598=ADVANCED_FACE('',(#519),#15,.F.);
#599=ADVANCED_FACE('',(#520),#16,.F.);
#600=ADVANCED_FACE('',(#521),#17,.F.);
#601=ADVANCED_FACE('',(#522),#18,.F.);
#602=ADVANCED_FACE('',(#523,#524,#525,#526,#527,#528),#582,.T.);
#603=ADVANCED_FACE('',(#529,#530),#583,.F.);
#604=ADVANCED_FACE('',(#531),#584,.T.);
#605=ADVANCED_FACE('',(#532),#585,.F.);
#606=ADVANCED_FACE('',(#533),#586,.F.);
#607=ADVANCED_FACE('',(#534),#587,.T.);
#608=ADVANCED_FACE('',(#535,#536),#588,.T.);
#609=ADVANCED_FACE('',(#537,#538),#19,.F.);
#610=ADVANCED_FACE('',(#539,#540),#14,.T.);
#611=ADVANCED_FACE('',(#541,#542),#20,.F.);
#612=ADVANCED_FACE('',(#543,#544),#21,.T.);
#613=ADVANCED_FACE('',(#545,#546),#589,.F.);
#614=ADVANCED_FACE('',(#547,#548),#22,.F.);
#615=ADVANCED_FACE('',(#549,#550),#23,.T.);
#616=ADVANCED_FACE('',(#551,#552),#590,.F.);
#617=ADVANCED_FACE('',(#553,#554),#24,.T.);
#618=ADVANCED_FACE('',(#555,#556),#25,.F.);
#619=ADVANCED_FACE('',(#557,#558),#591,.F.);
#620=ADVANCED_FACE('',(#559),#592,.T.);
#621=ADVANCED_FACE('',(#560,#561),#26,.T.);
#622=ADVANCED_FACE('',(#562,#563),#27,.F.);
#623=ADVANCED_FACE('',(#564,#565),#593,.F.);
#624=ADVANCED_FACE('',(#566),#594,.T.);
#625=ADVANCED_FACE('',(#567),#595,.T.);
#626=ADVANCED_FACE('',(#568),#596,.T.);
#627=ADVANCED_FACE('',(#569,#570),#28,.F.);
#628=ADVANCED_FACE('',(#571,#572),#29,.F.);
#629=ADVANCED_FACE('',(#573,#574),#30,.F.);
#630=ADVANCED_FACE('',(#575,#576),#31,.F.);
#631=ADVANCED_FACE('',(#577),#32,.F.);
#632=ADVANCED_FACE('',(#578),#33,.F.);
#633=ADVANCED_FACE('',(#579),#34,.T.);
#634=ADVANCED_FACE('',(#580),#35,.F.);
#635=CLOSED_SHELL('',(#597,#598,#599,#600,#601,#602,#603,#604,#605,#606,
#607,#608,#609,#610,#611,#612,#613,#614,#615,#616,#617,#618,#619,#620,#621,
#622,#623,#624,#625,#626,#627,#628,#629,#630,#631,#632,#633,#634));
#636=STYLED_ITEM('',(#637),#644);
#637=PRESENTATION_STYLE_ASSIGNMENT((#638));
#638=SURFACE_STYLE_USAGE(.BOTH.,#639);
#639=SURFACE_SIDE_STYLE('',(#640));
#640=SURFACE_STYLE_FILL_AREA(#641);
#641=FILL_AREA_STYLE('',(#642));
#642=FILL_AREA_STYLE_COLOUR('',#643);
#643=COLOUR_RGB('',0.615686274509804,0.811764705882353,0.929411764705882);
#644=MANIFOLD_SOLID_BREP('Part 1',#635);
#645=SHAPE_DEFINITION_REPRESENTATION(#1152,#646);
#646=SHAPE_REPRESENTATION('Part 1',(#647),#1147);
#647=AXIS2_PLACEMENT_3D('',#948,#738,#739);
#648=AXIS2_PLACEMENT_3D('',#949,#740,#741);
#649=AXIS2_PLACEMENT_3D('',#950,#742,#743);
#650=AXIS2_PLACEMENT_3D('',#953,#744,#745);
#651=AXIS2_PLACEMENT_3D('',#955,#746,#747);
#652=AXIS2_PLACEMENT_3D('',#957,#748,#749);
#653=AXIS2_PLACEMENT_3D('',#961,#751,#752);
#654=AXIS2_PLACEMENT_3D('',#965,#754,#755);
#655=AXIS2_PLACEMENT_3D('',#969,#757,#758);
#656=AXIS2_PLACEMENT_3D('',#973,#760,#761);
#657=AXIS2_PLACEMENT_3D('',#974,#762,#763);
#658=AXIS2_PLACEMENT_3D('',#977,#764,#765);
#659=AXIS2_PLACEMENT_3D('',#979,#766,#767);
#660=AXIS2_PLACEMENT_3D('',#981,#768,#769);
#661=AXIS2_PLACEMENT_3D('',#983,#770,#771);
#662=AXIS2_PLACEMENT_3D('',#985,#772,#773);
#663=AXIS2_PLACEMENT_3D('',#987,#774,#775);
#664=AXIS2_PLACEMENT_3D('',#989,#776,#777);
#665=AXIS2_PLACEMENT_3D('',#990,#778,#779);
#666=AXIS2_PLACEMENT_3D('',#991,#780,#781);
#667=AXIS2_PLACEMENT_3D('',#996,#784,#785);
#668=AXIS2_PLACEMENT_3D('',#999,#787,#788);
#669=AXIS2_PLACEMENT_3D('',#1002,#790,#791);
#670=AXIS2_PLACEMENT_3D('',#1003,#792,#793);
#671=AXIS2_PLACEMENT_3D('',#1008,#796,#797);
#672=AXIS2_PLACEMENT_3D('',#1011,#799,#800);
#673=AXIS2_PLACEMENT_3D('',#1014,#802,#803);
#674=AXIS2_PLACEMENT_3D('',#1015,#804,#805);
#675=AXIS2_PLACEMENT_3D('',#1017,#806,#807);
#676=AXIS2_PLACEMENT_3D('',#1019,#808,#809);
#677=AXIS2_PLACEMENT_3D('',#1021,#810,#811);
#678=AXIS2_PLACEMENT_3D('',#1023,#812,#813);
#679=AXIS2_PLACEMENT_3D('',#1025,#814,#815);
#680=AXIS2_PLACEMENT_3D('',#1027,#816,#817);
#681=AXIS2_PLACEMENT_3D('',#1028,#818,#819);
#682=AXIS2_PLACEMENT_3D('',#1030,#820,#821);
#683=AXIS2_PLACEMENT_3D('',#1031,#822,#823);
#684=AXIS2_PLACEMENT_3D('',#1032,#824,#825);
#685=AXIS2_PLACEMENT_3D('',#1033,#826,#827);
#686=AXIS2_PLACEMENT_3D('',#1034,#828,#829);
#687=AXIS2_PLACEMENT_3D('',#1040,#833,#834);
#688=AXIS2_PLACEMENT_3D('',#1046,#838,#839);
#689=AXIS2_PLACEMENT_3D('',#1052,#843,#844);
#690=AXIS2_PLACEMENT_3D('',#1058,#848,#849);
#691=AXIS2_PLACEMENT_3D('',#1059,#850,#851);
#692=AXIS2_PLACEMENT_3D('',#1062,#852,#853);
#693=AXIS2_PLACEMENT_3D('',#1064,#854,#855);
#694=AXIS2_PLACEMENT_3D('',#1066,#856,#857);
#695=AXIS2_PLACEMENT_3D('',#1067,#858,#859);
#696=AXIS2_PLACEMENT_3D('',#1068,#860,#861);
#697=AXIS2_PLACEMENT_3D('',#1069,#862,#863);
#698=AXIS2_PLACEMENT_3D('',#1070,#864,#865);
#699=AXIS2_PLACEMENT_3D('',#1071,#866,#867);
#700=AXIS2_PLACEMENT_3D('',#1072,#868,#869);
#701=AXIS2_PLACEMENT_3D('',#1083,#870,#871);
#702=AXIS2_PLACEMENT_3D('',#1094,#872,#873);
#703=AXIS2_PLACEMENT_3D('',#1095,#874,#875);
#704=AXIS2_PLACEMENT_3D('',#1097,#876,#877);
#705=AXIS2_PLACEMENT_3D('',#1099,#878,#879);
#706=AXIS2_PLACEMENT_3D('',#1100,#880,#881);
#707=AXIS2_PLACEMENT_3D('',#1102,#882,#883);
#708=AXIS2_PLACEMENT_3D('',#1103,#884,#885);
#709=AXIS2_PLACEMENT_3D('',#1104,#886,#887);
#710=AXIS2_PLACEMENT_3D('',#1106,#888,#889);
#711=AXIS2_PLACEMENT_3D('',#1108,#890,#891);
#712=AXIS2_PLACEMENT_3D('',#1109,#892,#893);
#713=AXIS2_PLACEMENT_3D('',#1111,#894,#895);
#714=AXIS2_PLACEMENT_3D('',#1112,#896,#897);
#715=AXIS2_PLACEMENT_3D('',#1113,#898,#899);
#716=AXIS2_PLACEMENT_3D('',#1115,#900,#901);
#717=AXIS2_PLACEMENT_3D('',#1116,#902,#903);
#718=AXIS2_PLACEMENT_3D('',#1118,#904,#905);
#719=AXIS2_PLACEMENT_3D('',#1120,#906,#907);
#720=AXIS2_PLACEMENT_3D('',#1121,#908,#909);
#721=AXIS2_PLACEMENT_3D('',#1122,#910,#911);
#722=AXIS2_PLACEMENT_3D('',#1123,#912,#913);
#723=AXIS2_PLACEMENT_3D('',#1125,#914,#915);
#724=AXIS2_PLACEMENT_3D('',#1126,#916,#917);
#725=AXIS2_PLACEMENT_3D('',#1128,#918,#919);
#726=AXIS2_PLACEMENT_3D('',#1130,#920,#921);
#727=AXIS2_PLACEMENT_3D('',#1131,#922,#923);
#728=AXIS2_PLACEMENT_3D('',#1132,#924,#925);
#729=AXIS2_PLACEMENT_3D('',#1133,#926,#927);
#730=AXIS2_PLACEMENT_3D('',#1134,#928,#929);
#731=AXIS2_PLACEMENT_3D('',#1135,#930,#931);
#732=AXIS2_PLACEMENT_3D('',#1136,#932,#933);
#733=AXIS2_PLACEMENT_3D('',#1137,#934,#935);
#734=AXIS2_PLACEMENT_3D('',#1138,#936,#937);
#735=AXIS2_PLACEMENT_3D('',#1141,#940,#941);
#736=AXIS2_PLACEMENT_3D('',#1143,#943,#944);
#737=AXIS2_PLACEMENT_3D('',#1145,#946,#947);
#738=DIRECTION('',(0.,0.,1.));
#739=DIRECTION('',(1.,0.,0.));
#740=DIRECTION('',(0.,0.,1.));
#741=DIRECTION('',(1.,0.,0.));
#742=DIRECTION('',(0.,0.,-1.));
#743=DIRECTION('',(-1.,0.,0.));
#744=DIRECTION('',(0.,0.,-1.));
#745=DIRECTION('',(-1.,0.,0.));
#746=DIRECTION('',(0.,0.,-1.));
#747=DIRECTION('',(-1.,0.,0.));
#748=DIRECTION('',(0.,0.,-1.));
#749=DIRECTION('',(-1.,0.,0.));
#750=DIRECTION('',(-1.,-1.6326809185664E-16,0.));
#751=DIRECTION('',(0.,0.,1.));
#752=DIRECTION('',(1.,0.,0.));
#753=DIRECTION('',(0.,1.,0.));
#754=DIRECTION('',(0.,0.,1.));
#755=DIRECTION('',(1.,0.,0.));
#756=DIRECTION('',(-1.,-1.6326809185664E-16,0.));
#757=DIRECTION('',(0.,0.,1.));
#758=DIRECTION('',(1.,0.,0.));
#759=DIRECTION('',(0.,1.,0.));
#760=DIRECTION('',(0.,0.,1.));
#761=DIRECTION('',(1.,0.,0.));
#762=DIRECTION('',(0.,0.,1.));
#763=DIRECTION('',(1.,0.,0.));
#764=DIRECTION('',(0.,0.,1.));
#765=DIRECTION('',(1.,0.,0.));
#766=DIRECTION('',(0.,0.,1.));
#767=DIRECTION('',(1.,0.,0.));
#768=DIRECTION('',(0.,0.,1.));
#769=DIRECTION('',(1.,0.,0.));
#770=DIRECTION('',(0.,0.,1.));
#771=DIRECTION('',(1.,0.,0.));
#772=DIRECTION('',(0.,0.,1.));
#773=DIRECTION('',(1.,0.,0.));
#774=DIRECTION('',(0.,0.,1.));
#775=DIRECTION('',(1.,0.,0.));
#776=DIRECTION('',(0.,0.,1.));
#777=DIRECTION('',(1.,0.,0.));
#778=DIRECTION('',(0.,0.,-1.));
#779=DIRECTION('',(-1.,0.,0.));
#780=DIRECTION('',(0.,0.,1.));
#781=DIRECTION('',(1.,0.,0.));
#782=DIRECTION('',(0.,0.,1.));
#783=DIRECTION('',(0.,0.,1.));
#784=DIRECTION('',(0.,0.,-1.));
#785=DIRECTION('',(-1.,0.,0.));
#786=DIRECTION('',(0.,0.,1.));
#787=DIRECTION('',(0.,0.,1.));
#788=DIRECTION('',(1.,0.,0.));
#789=DIRECTION('',(0.,0.,1.));
#790=DIRECTION('',(0.,0.,-1.));
#791=DIRECTION('',(-1.,0.,0.));
#792=DIRECTION('',(0.,0.,1.));
#793=DIRECTION('',(1.,0.,0.));
#794=DIRECTION('',(0.,0.,1.));
#795=DIRECTION('',(0.,0.,1.));
#796=DIRECTION('',(0.,0.,-1.));
#797=DIRECTION('',(-1.,0.,0.));
#798=DIRECTION('',(0.,0.,1.));
#799=DIRECTION('',(0.,0.,1.));
#800=DIRECTION('',(1.,0.,0.));
#801=DIRECTION('',(0.,0.,1.));
#802=DIRECTION('',(0.,0.,1.));
#803=DIRECTION('',(1.,0.,0.));
#804=DIRECTION('',(0.,0.,1.));
#805=DIRECTION('',(1.,0.,0.));
#806=DIRECTION('',(0.,0.,1.));
#807=DIRECTION('',(1.,0.,0.));
#808=DIRECTION('',(0.,0.,1.));
#809=DIRECTION('',(1.,0.,0.));
#810=DIRECTION('',(0.,0.,1.));
#811=DIRECTION('',(1.,0.,0.));
#812=DIRECTION('',(0.,0.,1.));
#813=DIRECTION('',(1.,0.,0.));
#814=DIRECTION('',(0.,0.,1.));
#815=DIRECTION('',(1.,0.,0.));
#816=DIRECTION('',(0.,0.,1.));
#817=DIRECTION('',(1.,0.,0.));
#818=DIRECTION('',(0.,0.,1.));
#819=DIRECTION('',(1.,0.,0.));
#820=DIRECTION('',(0.,0.,1.));
#821=DIRECTION('',(1.,0.,0.));
#822=DIRECTION('',(0.,0.,1.));
#823=DIRECTION('',(1.,0.,0.));
#824=DIRECTION('',(0.,0.,1.));
#825=DIRECTION('',(1.,0.,0.));
#826=DIRECTION('',(0.,0.,1.));
#827=DIRECTION('',(1.,0.,0.));
#828=DIRECTION('',(1.6326809185664E-16,-1.,0.));
#829=DIRECTION('',(1.,1.6326809185664E-16,0.));
#830=DIRECTION('',(-1.,-1.6326809185664E-16,0.));
#831=DIRECTION('',(0.,0.,-1.));
#832=DIRECTION('',(0.,0.,-1.));
#833=DIRECTION('',(-1.,0.,0.));
#834=DIRECTION('',(0.,0.,1.));
#835=DIRECTION('',(0.,0.,-1.));
#836=DIRECTION('',(0.,1.,0.));
#837=DIRECTION('',(0.,0.,-1.));
#838=DIRECTION('',(1.6326809185664E-16,-1.,0.));
#839=DIRECTION('',(1.,1.6326809185664E-16,0.));
#840=DIRECTION('',(-1.,-1.6326809185664E-16,0.));
#841=DIRECTION('',(0.,0.,-1.));
#842=DIRECTION('',(0.,0.,-1.));
#843=DIRECTION('',(-1.,0.,0.));
#844=DIRECTION('',(0.,0.,1.));
#845=DIRECTION('',(0.,1.,0.));
#846=DIRECTION('',(0.,0.,-1.));
#847=DIRECTION('',(0.,0.,-1.));
#848=DIRECTION('',(0.,0.,1.));
#849=DIRECTION('',(1.,0.,0.));
#850=DIRECTION('',(0.,0.,1.));
#851=DIRECTION('',(1.,0.,0.));
#852=DIRECTION('',(0.,0.,1.));
#853=DIRECTION('',(1.,0.,0.));
#854=DIRECTION('',(0.,0.,1.));
#855=DIRECTION('',(1.,0.,0.));
#856=DIRECTION('',(0.,0.,1.));
#857=DIRECTION('',(1.,0.,0.));
#858=DIRECTION('',(0.,0.,1.));
#859=DIRECTION('',(-1.,0.,0.));
#860=DIRECTION('',(0.,0.,-1.));
#861=DIRECTION('',(-1.,0.,0.));
#862=DIRECTION('',(0.,0.,1.));
#863=DIRECTION('',(-1.,0.,0.));
#864=DIRECTION('',(0.,0.,-1.));
#865=DIRECTION('',(-1.,0.,0.));
#866=DIRECTION('',(0.,0.,-1.));
#867=DIRECTION('',(-1.,0.,0.));
#868=DIRECTION('',(0.,0.,-1.));
#869=DIRECTION('',(-1.,0.,0.));
#870=DIRECTION('',(0.,0.,-1.));
#871=DIRECTION('',(-1.,0.,0.));
#872=DIRECTION('',(0.,0.,-1.));
#873=DIRECTION('',(-1.,0.,0.));
#874=DIRECTION('',(0.,0.,-1.));
#875=DIRECTION('',(-1.,0.,0.));
#876=DIRECTION('',(0.,0.,-1.));
#877=DIRECTION('',(-1.,0.,0.));
#878=DIRECTION('',(0.,0.,-1.));
#879=DIRECTION('',(-1.,0.,0.));
#880=DIRECTION('',(0.,0.,-1.));
#881=DIRECTION('',(-1.,0.,0.));
#882=DIRECTION('',(0.,0.,-1.));
#883=DIRECTION('',(1.,0.,0.));
#884=DIRECTION('',(0.,0.,-1.));
#885=DIRECTION('',(-1.,0.,0.));
#886=DIRECTION('',(0.,0.,-1.));
#887=DIRECTION('',(-1.,0.,0.));
#888=DIRECTION('',(0.,0.,-1.));
#889=DIRECTION('',(-1.,0.,0.));
#890=DIRECTION('',(0.,0.,-1.));
#891=DIRECTION('',(-1.,0.,0.));
#892=DIRECTION('',(0.,0.,-1.));
#893=DIRECTION('',(-1.,0.,0.));
#894=DIRECTION('',(0.,0.,-1.));
#895=DIRECTION('',(1.,0.,0.));
#896=DIRECTION('',(0.,0.,-1.));
#897=DIRECTION('',(-1.,0.,0.));
#898=DIRECTION('',(0.,0.,1.));
#899=DIRECTION('',(-1.,0.,0.));
#900=DIRECTION('',(0.,0.,-1.));
#901=DIRECTION('',(-1.,0.,0.));
#902=DIRECTION('',(0.,0.,1.));
#903=DIRECTION('',(-1.,0.,0.));
#904=DIRECTION('',(0.,0.,1.));
#905=DIRECTION('',(1.,0.,0.));
#906=DIRECTION('',(0.,0.,-1.));
#907=DIRECTION('',(1.,0.,0.));
#908=DIRECTION('',(0.,0.,1.));
#909=DIRECTION('',(1.,0.,0.));
#910=DIRECTION('',(0.,0.,-1.));
#911=DIRECTION('',(-1.,0.,0.));
#912=DIRECTION('',(0.,0.,1.));
#913=DIRECTION('',(-1.,0.,0.));
#914=DIRECTION('',(0.,0.,-1.));
#915=DIRECTION('',(-1.,0.,0.));
#916=DIRECTION('',(0.,0.,1.));
#917=DIRECTION('',(-1.,0.,0.));
#918=DIRECTION('',(0.,0.,1.));
#919=DIRECTION('',(1.,0.,0.));
#920=DIRECTION('',(0.,0.,-1.));
#921=DIRECTION('',(1.,0.,0.));
#922=DIRECTION('',(0.,0.,1.));
#923=DIRECTION('',(1.,0.,0.));
#924=DIRECTION('',(0.,0.,1.));
#925=DIRECTION('',(1.,0.,0.));
#926=DIRECTION('',(0.,0.,1.));
#927=DIRECTION('',(1.,0.,0.));
#928=DIRECTION('',(0.,0.,1.));
#929=DIRECTION('',(1.,0.,0.));
#930=DIRECTION('',(0.,0.,1.));
#931=DIRECTION('',(1.,0.,0.));
#932=DIRECTION('',(0.,0.,1.));
#933=DIRECTION('',(1.,0.,0.));
#934=DIRECTION('',(0.,0.,1.));
#935=DIRECTION('',(1.,0.,0.));
#936=DIRECTION('',(0.,0.,-1.));
#937=DIRECTION('',(-1.,0.,0.));
#938=DIRECTION('',(0.,0.,-1.));
#939=DIRECTION('',(0.,0.,-1.));
#940=DIRECTION('',(0.,0.,-1.));
#941=DIRECTION('',(-1.,0.,0.));
#942=DIRECTION('',(0.,0.,-1.));
#943=DIRECTION('',(0.,0.,-1.));
#944=DIRECTION('',(-1.,0.,0.));
#945=DIRECTION('',(0.,0.,-1.));
#946=DIRECTION('',(0.,0.,-1.));
#947=DIRECTION('',(-1.,0.,0.));
#948=CARTESIAN_POINT('',(0.,0.,0.));
#949=CARTESIAN_POINT('',(0.,0.,0.));
#950=CARTESIAN_POINT('',(-0.0365,-6.27823368560361E-17,0.));
#951=CARTESIAN_POINT('',(-0.0405,-1.35275268702365E-16,0.));
#952=CARTESIAN_POINT('',(-0.0325,4.97512762153612E-18,0.));
#953=CARTESIAN_POINT('',(0.,-1.02191513890038E-16,0.));
#954=CARTESIAN_POINT('',(0.0405,-6.57981616292566E-17,0.));
#955=CARTESIAN_POINT('',(0.0365,-3.71315228390231E-17,0.));
#956=CARTESIAN_POINT('',(0.0325,-8.46488404878957E-18,0.));
#957=CARTESIAN_POINT('',(0.,-1.99005104861445E-18,0.));
#958=CARTESIAN_POINT('',(0.,0.085,0.));
#959=CARTESIAN_POINT('',(0.0675,0.085,0.));
#960=CARTESIAN_POINT('',(-0.0675,0.085,0.));
#961=CARTESIAN_POINT('',(0.0675,0.0675,0.));
#962=CARTESIAN_POINT('',(0.085,0.0675,0.));
#963=CARTESIAN_POINT('',(0.085,0.,0.));
#964=CARTESIAN_POINT('',(0.085,-0.0675,0.));
#965=CARTESIAN_POINT('',(0.0675,-0.0675,0.));
#966=CARTESIAN_POINT('',(0.0675,-0.085,0.));
#967=CARTESIAN_POINT('',(0.,-0.085,0.));
#968=CARTESIAN_POINT('',(-0.0675,-0.085,0.));
#969=CARTESIAN_POINT('',(-0.0675,-0.0675,0.));
#970=CARTESIAN_POINT('',(-0.085,-0.0675,0.));
#971=CARTESIAN_POINT('',(-0.085,-2.77555756156289E-17,0.));
#972=CARTESIAN_POINT('',(-0.085,0.0675,0.));
#973=CARTESIAN_POINT('',(-0.0675,0.0675,0.));
#974=CARTESIAN_POINT('',(-0.0155,0.0155,0.));
#975=CARTESIAN_POINT('',(-0.0174553750669694,0.0159201289652886,0.));
#976=CARTESIAN_POINT('',(-0.0159201289652886,0.0174553750669694,0.));
#977=CARTESIAN_POINT('',(0.,1.44661403149281E-18,0.));
#978=CARTESIAN_POINT('',(-0.0174553750669694,-0.0159201289652886,0.));
#979=CARTESIAN_POINT('',(-0.0155,-0.0155,0.));
#980=CARTESIAN_POINT('',(-0.0159201289652886,-0.0174553750669694,0.));
#981=CARTESIAN_POINT('',(0.,1.44661403149281E-18,0.));
#982=CARTESIAN_POINT('',(0.0159201289652886,-0.0174553750669694,0.));
#983=CARTESIAN_POINT('',(0.0155,-0.0155,0.));
#984=CARTESIAN_POINT('',(0.0174553750669694,-0.0159201289652886,0.));
#985=CARTESIAN_POINT('',(0.,1.44661403149281E-18,0.));
#986=CARTESIAN_POINT('',(0.0174553750669694,0.0159201289652886,0.));
#987=CARTESIAN_POINT('',(0.0155,0.0155,0.));
#988=CARTESIAN_POINT('',(0.0159201289652886,0.0174553750669694,0.));
#989=CARTESIAN_POINT('',(0.,1.44661403149281E-18,0.));
#990=CARTESIAN_POINT('',(0.,1.44661403149281E-18,0.015));
#991=CARTESIAN_POINT('',(0.,1.44661403149281E-18,0.015));
#992=CARTESIAN_POINT('',(0.0159201289652886,0.0174553750669694,0.015));
#993=CARTESIAN_POINT('',(-0.0159201289652886,0.0174553750669694,0.015));
#994=CARTESIAN_POINT('',(-0.0159201289652886,0.0174553750669694,0.02500363));
#995=CARTESIAN_POINT('',(0.0159201289652886,0.0174553750669694,0.02500363));
#996=CARTESIAN_POINT('',(0.,1.44661403149281E-18,0.015));
#997=CARTESIAN_POINT('',(-0.0174553750669694,0.0159201289652886,0.02500363));
#998=CARTESIAN_POINT('',(-0.0174553750669694,0.0159201289652886,0.015));
#999=CARTESIAN_POINT('',(0.,1.44661403149281E-18,0.015));
#1000=CARTESIAN_POINT('',(-0.0174553750669694,-0.0159201289652886,0.015));
#1001=CARTESIAN_POINT('',(-0.0174553750669694,-0.0159201289652886,0.02500363));
#1002=CARTESIAN_POINT('',(0.,1.44661403149281E-18,0.015));
#1003=CARTESIAN_POINT('',(0.,1.44661403149281E-18,0.015));
#1004=CARTESIAN_POINT('',(-0.0159201289652886,-0.0174553750669694,0.015));
#1005=CARTESIAN_POINT('',(0.0159201289652886,-0.0174553750669694,0.015));
#1006=CARTESIAN_POINT('',(0.0159201289652886,-0.0174553750669694,0.02500363));
#1007=CARTESIAN_POINT('',(-0.0159201289652886,-0.0174553750669694,0.02500363));
#1008=CARTESIAN_POINT('',(0.,1.44661403149281E-18,0.015));
#1009=CARTESIAN_POINT('',(0.0174553750669694,-0.0159201289652886,0.02500363));
#1010=CARTESIAN_POINT('',(0.0174553750669694,-0.0159201289652886,0.015));
#1011=CARTESIAN_POINT('',(0.,1.44661403149281E-18,0.015));
#1012=CARTESIAN_POINT('',(0.0174553750669694,0.0159201289652886,0.015));
#1013=CARTESIAN_POINT('',(0.0174553750669694,0.0159201289652886,0.02500363));
#1014=CARTESIAN_POINT('',(0.,0.,0.025));
#1015=CARTESIAN_POINT('',(0.0155,-0.0155,0.025));
#1016=CARTESIAN_POINT('',(0.0175,-0.0155,0.025));
#1017=CARTESIAN_POINT('',(0.0155,0.0155,0.025));
#1018=CARTESIAN_POINT('',(0.0175,0.0155,0.025));
#1019=CARTESIAN_POINT('',(-0.0155,-0.0155,0.025));
#1020=CARTESIAN_POINT('',(-0.0135,-0.0155,0.025));
#1021=CARTESIAN_POINT('',(0.,2.4492935982947E-18,0.025));
#1022=CARTESIAN_POINT('',(0.03,2.4492935982947E-18,0.025));
#1023=CARTESIAN_POINT('',(0.,8.51615342132482E-19,0.025));
#1024=CARTESIAN_POINT('',(0.0139079339892189,8.51615342132482E-19,0.025));
#1025=CARTESIAN_POINT('',(-0.0155,0.0155,0.025));
#1026=CARTESIAN_POINT('',(-0.0135,0.0155,0.025));
#1027=CARTESIAN_POINT('',(0.,0.,0.015));
#1028=CARTESIAN_POINT('',(0.,8.51615342132482E-19,0.015));
#1029=CARTESIAN_POINT('',(0.0139079339892189,8.51615342132482E-19,0.015));
#1030=CARTESIAN_POINT('',(-0.0155,0.0155,0.015));
#1031=CARTESIAN_POINT('',(0.0155,0.0155,0.015));
#1032=CARTESIAN_POINT('',(0.0155,-0.0155,0.015));
#1033=CARTESIAN_POINT('',(-0.0155,-0.0155,0.015));
#1034=CARTESIAN_POINT('',(0.,-0.085,0.015));
#1035=CARTESIAN_POINT('',(0.,-0.085,0.015));
#1036=CARTESIAN_POINT('',(0.0675,-0.085,0.015));
#1037=CARTESIAN_POINT('',(-0.0675,-0.085,0.015));
#1038=CARTESIAN_POINT('',(-0.0675,-0.085,0.0594));
#1039=CARTESIAN_POINT('',(0.0675,-0.085,0.0594));
#1040=CARTESIAN_POINT('',(0.085,0.,0.015));
#1041=CARTESIAN_POINT('',(0.085,0.0675,0.0594));
#1042=CARTESIAN_POINT('',(0.085,0.0675,0.015));
#1043=CARTESIAN_POINT('',(0.085,0.,0.015));
#1044=CARTESIAN_POINT('',(0.085,-0.0675,0.015));
#1045=CARTESIAN_POINT('',(0.085,-0.0675,0.0594));
#1046=CARTESIAN_POINT('',(0.,0.085,0.015));
#1047=CARTESIAN_POINT('',(0.,0.085,0.015));
#1048=CARTESIAN_POINT('',(0.0675,0.085,0.015));
#1049=CARTESIAN_POINT('',(-0.0675,0.085,0.015));
#1050=CARTESIAN_POINT('',(0.0675,0.085,0.0594));
#1051=CARTESIAN_POINT('',(-0.0675,0.085,0.0594));
#1052=CARTESIAN_POINT('',(-0.085,-2.77555756156289E-17,0.015));
#1053=CARTESIAN_POINT('',(-0.085,-2.77555756156289E-17,0.015));
#1054=CARTESIAN_POINT('',(-0.085,-0.0675,0.015));
#1055=CARTESIAN_POINT('',(-0.085,0.0675,0.015));
#1056=CARTESIAN_POINT('',(-0.085,0.0675,0.0594));
#1057=CARTESIAN_POINT('',(-0.085,-0.0675,0.0594));
#1058=CARTESIAN_POINT('',(0.,0.,0.015));
#1059=CARTESIAN_POINT('',(-0.0365,-6.27823368560361E-17,0.015));
#1060=CARTESIAN_POINT('',(-0.0399486301369863,0.0020265611706212,0.015));
#1061=CARTESIAN_POINT('',(-0.0405,-1.35275268702365E-16,0.015));
#1062=CARTESIAN_POINT('',(0.,2.4492935982947E-18,0.015));
#1063=CARTESIAN_POINT('',(0.0399486301369863,0.00202656117062123,0.015));
#1064=CARTESIAN_POINT('',(0.0365,-3.71315228390231E-17,0.015));
#1065=CARTESIAN_POINT('',(0.0405,-6.57981616292566E-17,0.015));
#1066=CARTESIAN_POINT('',(0.,-1.02191513890038E-16,0.015));
#1067=CARTESIAN_POINT('',(-0.0675,-0.0675,0.015));
#1068=CARTESIAN_POINT('',(0.0675,-0.0675,0.015));
#1069=CARTESIAN_POINT('',(0.0675,0.0675,0.015));
#1070=CARTESIAN_POINT('',(-0.0675,0.0675,0.015));
#1071=CARTESIAN_POINT('',(0.,8.51615342132482E-19,0.025));
#1072=CARTESIAN_POINT('',(0.,2.4492935982947E-18,0.025));
#1073=CARTESIAN_POINT('',(-0.0325,5.64946409852023E-18,0.0225));
#1074=CARTESIAN_POINT('',(-0.0325,0.00055342488330426,0.0225));
#1075=CARTESIAN_POINT('',(-0.0327386948310215,0.00162138006891093,0.0222307858865857));
#1076=CARTESIAN_POINT('',(-0.0335391914043722,0.00279383377897621,0.0213481474784225));
#1077=CARTESIAN_POINT('',(-0.0345345530298111,0.00355246135799585,0.0202842049863732));
#1078=CARTESIAN_POINT('',(-0.036012012258209,0.00409911977039336,0.0187553090130242));
#1079=CARTESIAN_POINT('',(-0.0379719316700733,0.00397588965982777,0.016823877966093));
#1080=CARTESIAN_POINT('',(-0.0394414472364897,0.00288964206892957,0.0154628043967031));
#1081=CARTESIAN_POINT('',(-0.0399486301369863,0.0020265611706212,0.015));
#1082=CARTESIAN_POINT('',(-0.0325,4.97512762153612E-18,0.0225));
#1083=CARTESIAN_POINT('',(0.,2.4492935982947E-18,0.0225));
#1084=CARTESIAN_POINT('',(0.0325,-8.46488404878957E-18,0.0225));
#1085=CARTESIAN_POINT('',(0.0399486301369863,0.00202656117062123,0.015));
#1086=CARTESIAN_POINT('',(0.0394409282877263,0.00289052517197669,0.0154632779374497));
#1087=CARTESIAN_POINT('',(0.0379858405803028,0.00397179510911371,0.0168104133418968));
#1088=CARTESIAN_POINT('',(0.0360059235823209,0.00409701443645275,0.0187615822273));
#1089=CARTESIAN_POINT('',(0.0345448647455669,0.00355753360702364,0.0202734344138705));
#1090=CARTESIAN_POINT('',(0.0335424843334568,0.00279750390922042,0.0213445019429185));
#1091=CARTESIAN_POINT('',(0.0327419586145341,0.00163032469167876,0.0222271557217022));
#1092=CARTESIAN_POINT('',(0.0325,0.000553399393275007,0.0225));
#1093=CARTESIAN_POINT('',(0.0325,-9.36365492028266E-18,0.0225));
#1094=CARTESIAN_POINT('',(0.0675,-0.0675,0.025));
#1095=CARTESIAN_POINT('',(0.0675,-0.0675,0.025));
#1096=CARTESIAN_POINT('',(0.055,-0.0675,0.025));
#1097=CARTESIAN_POINT('',(0.0675,-0.0675,0.015));
#1098=CARTESIAN_POINT('',(0.055,-0.0675,0.015));
#1099=CARTESIAN_POINT('',(0.0675,-0.0675,0.025));
#1100=CARTESIAN_POINT('',(0.0675,-0.0675,0.025));
#1101=CARTESIAN_POINT('',(0.05,-0.0675,0.025));
#1102=CARTESIAN_POINT('',(0.,0.,0.025));
#1103=CARTESIAN_POINT('',(-0.0675,0.0675,0.025));
#1104=CARTESIAN_POINT('',(-0.0675,0.0675,0.025));
#1105=CARTESIAN_POINT('',(-0.08,0.0675,0.025));
#1106=CARTESIAN_POINT('',(-0.0675,0.0675,0.015));
#1107=CARTESIAN_POINT('',(-0.08,0.0675,0.015));
#1108=CARTESIAN_POINT('',(-0.0675,0.0675,0.025));
#1109=CARTESIAN_POINT('',(-0.0675,0.0675,0.025));
#1110=CARTESIAN_POINT('',(-0.085,0.0675,0.025));
#1111=CARTESIAN_POINT('',(0.,0.,0.025));
#1112=CARTESIAN_POINT('',(0.0675,0.0675,0.025));
#1113=CARTESIAN_POINT('',(0.0675,0.0675,0.025));
#1114=CARTESIAN_POINT('',(0.05,0.0675,0.025));
#1115=CARTESIAN_POINT('',(0.0675,0.0675,0.025));
#1116=CARTESIAN_POINT('',(0.0675,0.0675,0.025));
#1117=CARTESIAN_POINT('',(0.055,0.0675,0.025));
#1118=CARTESIAN_POINT('',(0.0675,0.0675,0.015));
#1119=CARTESIAN_POINT('',(0.08,0.0675,0.015));
#1120=CARTESIAN_POINT('',(0.,0.,0.025));
#1121=CARTESIAN_POINT('',(0.,0.,0.015));
#1122=CARTESIAN_POINT('',(-0.0675,-0.0675,0.025));
#1123=CARTESIAN_POINT('',(-0.0675,-0.0675,0.025));
#1124=CARTESIAN_POINT('',(-0.085,-0.0675,0.025));
#1125=CARTESIAN_POINT('',(-0.0675,-0.0675,0.025));
#1126=CARTESIAN_POINT('',(-0.0675,-0.0675,0.025));
#1127=CARTESIAN_POINT('',(-0.08,-0.0675,0.025));
#1128=CARTESIAN_POINT('',(-0.0675,-0.0675,0.015));
#1129=CARTESIAN_POINT('',(-0.055,-0.0675,0.015));
#1130=CARTESIAN_POINT('',(0.,0.,0.025));
#1131=CARTESIAN_POINT('',(0.,0.,0.015));
#1132=CARTESIAN_POINT('',(0.,0.,0.015));
#1133=CARTESIAN_POINT('',(0.,0.,0.015));
#1134=CARTESIAN_POINT('',(-0.0155,-0.0155,-0.02499637));
#1135=CARTESIAN_POINT('',(0.0155,0.0155,-0.02499637));
#1136=CARTESIAN_POINT('',(0.0155,-0.0155,-0.02499637));
#1137=CARTESIAN_POINT('',(-0.0155,0.0155,-0.02499637));
#1138=CARTESIAN_POINT('',(0.,-1.02191513890038E-16,0.025));
#1139=CARTESIAN_POINT('',(0.0405,-6.57981616292566E-17,0.025));
#1140=CARTESIAN_POINT('',(-0.0405,-1.35275268702365E-16,0.025));
#1141=CARTESIAN_POINT('',(-0.0365,-6.27823368560361E-17,0.025));
#1142=CARTESIAN_POINT('',(-0.0325,4.97512762153612E-18,0.025));
#1143=CARTESIAN_POINT('',(0.,-1.99005104861445E-18,0.025));
#1144=CARTESIAN_POINT('',(0.0325,-8.46488404878957E-18,0.025));
#1145=CARTESIAN_POINT('',(0.0365,-3.71315228390231E-17,0.025));
#1146=MECHANICAL_DESIGN_GEOMETRIC_PRESENTATION_REPRESENTATION('',(#636),
#1147);
#1147=(
GEOMETRIC_REPRESENTATION_CONTEXT(3)
GLOBAL_UNCERTAINTY_ASSIGNED_CONTEXT((#1148))
GLOBAL_UNIT_ASSIGNED_CONTEXT((#1151,#1150,#1149))
REPRESENTATION_CONTEXT('Part 1','TOP_LEVEL_ASSEMBLY_PART')
);
#1148=UNCERTAINTY_MEASURE_WITH_UNIT(LENGTH_MEASURE(2.E-5),#1151,
'DISTANCE_ACCURACY_VALUE','Maximum Tolerance applied to model');
#1149=(
NAMED_UNIT(*)
SI_UNIT($,.STERADIAN.)
SOLID_ANGLE_UNIT()
);
#1150=(
NAMED_UNIT(*)
PLANE_ANGLE_UNIT()
SI_UNIT($,.RADIAN.)
);
#1151=(
LENGTH_UNIT()
NAMED_UNIT(*)
SI_UNIT($,.METRE.)
);
#1152=PRODUCT_DEFINITION_SHAPE('','',#1153);
#1153=PRODUCT_DEFINITION('','',#1155,#1154);
#1154=PRODUCT_DEFINITION_CONTEXT('',#1161,'design');
#1155=PRODUCT_DEFINITION_FORMATION_WITH_SPECIFIED_SOURCE('','',#1157,
 .NOT_KNOWN.);
#1156=PRODUCT_RELATED_PRODUCT_CATEGORY('','',(#1157));
#1157=PRODUCT('Part 1','Part 1','Part 1',(#1159));
#1158=PRODUCT_CATEGORY('','');
#1159=PRODUCT_CONTEXT('',#1161,'mechanical');
#1160=APPLICATION_PROTOCOL_DEFINITION('international standard',
'ap242_managed_model_based_3d_engineering',2020,#1161);
#1161=APPLICATION_CONTEXT('managed model based 3d engineering');
ENDSEC;
END-ISO-10303-21;
