ISO-10303-21;
HEADER;
/* Generated by software containing ST-Developer
 * from STEP Tools, Inc. (www.steptools.com) 
 */
/* OPTION: using custom renumber hook */

FILE_DESCRIPTION(
/* description */ ('STEP AP242 Edition 2',
'CAx-IF Rec.Pracs.---Representation and Presentation of Product Manufa
cturing Information (PMI)---4.0---2014-10-13',
'CAx-IF Rec.Pracs.---3D Tessellated Geometry---0.4---2014-09-14','2;1',
'CAx-IF Rec.Pracs.---User Defined Attributes---1.5---2016-08-15'),
/* implementation_level */ '2;1');

FILE_NAME(
/* name */ 'Parts - MT6835',
/* time_stamp */ '2026-08-23T06:44:34Z',
/* author */ (''),
/* organization */ (''),
/* preprocessor_version */ 'ST-DEVELOPER v20',
/* originating_system */ 'ONSHAPE BY PTC INC, 1.219',
/* authorisation */ '  ');

FILE_SCHEMA (('AP242_MANAGED_MODEL_BASED_3D_ENGINEERING_MIM_LF { 1 0 10303 442 3 1 4 }'));
ENDSEC;

DATA;
#10=SHAPE_REPRESENTATION_RELATIONSHIP('','',#673,#11);
#11=ADVANCED_BREP_SHAPE_REPRESENTATION('',(#671),#1135);
#12=CONICAL_SURFACE('',#696,0.0002,0.785398163397);
#13=CONICAL_SURFACE('',#703,0.0002,0.785398163397);
#14=CONICAL_SURFACE('',#740,0.0002,0.785398163397);
#15=CONICAL_SURFACE('',#741,0.0002,0.785398163397);
#16=CIRCLE('',#677,0.0002);
#17=CIRCLE('',#678,0.0002);
#18=CIRCLE('',#681,0.0002);
#19=CIRCLE('',#682,0.0002);
#20=CIRCLE('',#683,0.0002);
#21=CIRCLE('',#684,0.002);
#22=CIRCLE('',#685,0.002);
#23=CIRCLE('',#686,0.002);
#24=CIRCLE('',#687,0.002);
#25=CIRCLE('',#688,0.002);
#26=CIRCLE('',#689,0.002);
#27=CIRCLE('',#690,0.002);
#28=CIRCLE('',#691,0.002);
#29=CIRCLE('',#692,0.001);
#30=CIRCLE('',#693,0.001);
#31=CIRCLE('',#695,0.0002);
#32=CIRCLE('',#697,0.0001);
#33=CIRCLE('',#700,0.0001);
#34=CIRCLE('',#701,0.0001);
#35=CIRCLE('',#702,0.0001);
#36=CIRCLE('',#706,0.0002);
#37=CIRCLE('',#708,0.0002);
#38=CIRCLE('',#712,0.002);
#39=CIRCLE('',#714,0.002);
#40=CIRCLE('',#718,0.002);
#41=CIRCLE('',#720,0.002);
#42=CIRCLE('',#724,0.002);
#43=CIRCLE('',#726,0.002);
#44=CIRCLE('',#730,0.002);
#45=CIRCLE('',#732,0.002);
#46=CIRCLE('',#735,0.001);
#47=CIRCLE('',#737,0.001);
#48=CYLINDRICAL_SURFACE('',#676,0.0002);
#49=CYLINDRICAL_SURFACE('',#694,0.0002);
#50=CYLINDRICAL_SURFACE('',#705,0.0002);
#51=CYLINDRICAL_SURFACE('',#707,0.0002);
#52=CYLINDRICAL_SURFACE('',#711,0.002);
#53=CYLINDRICAL_SURFACE('',#713,0.002);
#54=CYLINDRICAL_SURFACE('',#717,0.002);
#55=CYLINDRICAL_SURFACE('',#719,0.002);
#56=CYLINDRICAL_SURFACE('',#723,0.002);
#57=CYLINDRICAL_SURFACE('',#725,0.002);
#58=CYLINDRICAL_SURFACE('',#729,0.002);
#59=CYLINDRICAL_SURFACE('',#731,0.002);
#60=CYLINDRICAL_SURFACE('',#734,0.001);
#61=CYLINDRICAL_SURFACE('',#736,0.001);
#62=ORIENTED_EDGE('',*,*,#246,.T.);
#63=ORIENTED_EDGE('',*,*,#247,.T.);
#64=ORIENTED_EDGE('',*,*,#248,.F.);
#65=ORIENTED_EDGE('',*,*,#249,.F.);
#66=ORIENTED_EDGE('',*,*,#250,.F.);
#67=ORIENTED_EDGE('',*,*,#251,.F.);
#68=ORIENTED_EDGE('',*,*,#252,.F.);
#69=ORIENTED_EDGE('',*,*,#249,.T.);
#70=ORIENTED_EDGE('',*,*,#253,.F.);
#71=ORIENTED_EDGE('',*,*,#248,.T.);
#72=ORIENTED_EDGE('',*,*,#254,.T.);
#73=ORIENTED_EDGE('',*,*,#255,.F.);
#74=ORIENTED_EDGE('',*,*,#246,.F.);
#75=ORIENTED_EDGE('',*,*,#252,.T.);
#76=ORIENTED_EDGE('',*,*,#256,.F.);
#77=ORIENTED_EDGE('',*,*,#257,.F.);
#78=ORIENTED_EDGE('',*,*,#258,.F.);
#79=ORIENTED_EDGE('',*,*,#259,.F.);
#80=ORIENTED_EDGE('',*,*,#260,.F.);
#81=ORIENTED_EDGE('',*,*,#261,.F.);
#82=ORIENTED_EDGE('',*,*,#262,.T.);
#83=ORIENTED_EDGE('',*,*,#263,.T.);
#84=ORIENTED_EDGE('',*,*,#264,.T.);
#85=ORIENTED_EDGE('',*,*,#265,.T.);
#86=ORIENTED_EDGE('',*,*,#266,.T.);
#87=ORIENTED_EDGE('',*,*,#267,.T.);
#88=ORIENTED_EDGE('',*,*,#268,.T.);
#89=ORIENTED_EDGE('',*,*,#269,.T.);
#90=ORIENTED_EDGE('',*,*,#270,.T.);
#91=ORIENTED_EDGE('',*,*,#271,.F.);
#92=ORIENTED_EDGE('',*,*,#272,.T.);
#93=ORIENTED_EDGE('',*,*,#273,.F.);
#94=ORIENTED_EDGE('',*,*,#274,.T.);
#95=ORIENTED_EDGE('',*,*,#275,.F.);
#96=ORIENTED_EDGE('',*,*,#276,.F.);
#97=ORIENTED_EDGE('',*,*,#277,.F.);
#98=ORIENTED_EDGE('',*,*,#278,.F.);
#99=ORIENTED_EDGE('',*,*,#279,.F.);
#100=ORIENTED_EDGE('',*,*,#247,.F.);
#101=ORIENTED_EDGE('',*,*,#261,.T.);
#102=ORIENTED_EDGE('',*,*,#280,.T.);
#103=ORIENTED_EDGE('',*,*,#281,.F.);
#104=ORIENTED_EDGE('',*,*,#282,.F.);
#105=ORIENTED_EDGE('',*,*,#250,.T.);
#106=ORIENTED_EDGE('',*,*,#253,.T.);
#107=ORIENTED_EDGE('',*,*,#283,.F.);
#108=ORIENTED_EDGE('',*,*,#256,.T.);
#109=ORIENTED_EDGE('',*,*,#251,.T.);
#110=ORIENTED_EDGE('',*,*,#284,.F.);
#111=ORIENTED_EDGE('',*,*,#285,.F.);
#112=ORIENTED_EDGE('',*,*,#286,.T.);
#113=ORIENTED_EDGE('',*,*,#287,.T.);
#114=ORIENTED_EDGE('',*,*,#288,.T.);
#115=ORIENTED_EDGE('',*,*,#283,.T.);
#116=ORIENTED_EDGE('',*,*,#255,.T.);
#117=ORIENTED_EDGE('',*,*,#289,.T.);
#118=ORIENTED_EDGE('',*,*,#290,.T.);
#119=ORIENTED_EDGE('',*,*,#291,.T.);
#120=ORIENTED_EDGE('',*,*,#254,.F.);
#121=ORIENTED_EDGE('',*,*,#281,.T.);
#122=ORIENTED_EDGE('',*,*,#292,.T.);
#123=ORIENTED_EDGE('',*,*,#289,.F.);
#124=ORIENTED_EDGE('',*,*,#260,.T.);
#125=ORIENTED_EDGE('',*,*,#293,.T.);
#126=ORIENTED_EDGE('',*,*,#294,.F.);
#127=ORIENTED_EDGE('',*,*,#280,.F.);
#128=ORIENTED_EDGE('',*,*,#295,.F.);
#129=ORIENTED_EDGE('',*,*,#257,.T.);
#130=ORIENTED_EDGE('',*,*,#285,.T.);
#131=ORIENTED_EDGE('',*,*,#296,.F.);
#132=ORIENTED_EDGE('',*,*,#293,.F.);
#133=ORIENTED_EDGE('',*,*,#259,.T.);
#134=ORIENTED_EDGE('',*,*,#297,.T.);
#135=ORIENTED_EDGE('',*,*,#298,.F.);
#136=ORIENTED_EDGE('',*,*,#258,.T.);
#137=ORIENTED_EDGE('',*,*,#295,.T.);
#138=ORIENTED_EDGE('',*,*,#299,.F.);
#139=ORIENTED_EDGE('',*,*,#297,.F.);
#140=ORIENTED_EDGE('',*,*,#262,.F.);
#141=ORIENTED_EDGE('',*,*,#300,.T.);
#142=ORIENTED_EDGE('',*,*,#301,.T.);
#143=ORIENTED_EDGE('',*,*,#302,.F.);
#144=ORIENTED_EDGE('',*,*,#277,.T.);
#145=ORIENTED_EDGE('',*,*,#303,.T.);
#146=ORIENTED_EDGE('',*,*,#304,.F.);
#147=ORIENTED_EDGE('',*,*,#300,.F.);
#148=ORIENTED_EDGE('',*,*,#302,.T.);
#149=ORIENTED_EDGE('',*,*,#305,.T.);
#150=ORIENTED_EDGE('',*,*,#306,.F.);
#151=ORIENTED_EDGE('',*,*,#263,.F.);
#152=ORIENTED_EDGE('',*,*,#307,.T.);
#153=ORIENTED_EDGE('',*,*,#308,.F.);
#154=ORIENTED_EDGE('',*,*,#303,.F.);
#155=ORIENTED_EDGE('',*,*,#276,.T.);
#156=ORIENTED_EDGE('',*,*,#264,.F.);
#157=ORIENTED_EDGE('',*,*,#306,.T.);
#158=ORIENTED_EDGE('',*,*,#309,.T.);
#159=ORIENTED_EDGE('',*,*,#310,.F.);
#160=ORIENTED_EDGE('',*,*,#275,.T.);
#161=ORIENTED_EDGE('',*,*,#311,.T.);
#162=ORIENTED_EDGE('',*,*,#312,.F.);
#163=ORIENTED_EDGE('',*,*,#307,.F.);
#164=ORIENTED_EDGE('',*,*,#310,.T.);
#165=ORIENTED_EDGE('',*,*,#313,.T.);
#166=ORIENTED_EDGE('',*,*,#314,.F.);
#167=ORIENTED_EDGE('',*,*,#265,.F.);
#168=ORIENTED_EDGE('',*,*,#274,.F.);
#169=ORIENTED_EDGE('',*,*,#315,.T.);
#170=ORIENTED_EDGE('',*,*,#316,.T.);
#171=ORIENTED_EDGE('',*,*,#311,.F.);
#172=ORIENTED_EDGE('',*,*,#266,.F.);
#173=ORIENTED_EDGE('',*,*,#314,.T.);
#174=ORIENTED_EDGE('',*,*,#317,.T.);
#175=ORIENTED_EDGE('',*,*,#318,.F.);
#176=ORIENTED_EDGE('',*,*,#273,.T.);
#177=ORIENTED_EDGE('',*,*,#319,.T.);
#178=ORIENTED_EDGE('',*,*,#320,.F.);
#179=ORIENTED_EDGE('',*,*,#315,.F.);
#180=ORIENTED_EDGE('',*,*,#318,.T.);
#181=ORIENTED_EDGE('',*,*,#321,.T.);
#182=ORIENTED_EDGE('',*,*,#322,.F.);
#183=ORIENTED_EDGE('',*,*,#267,.F.);
#184=ORIENTED_EDGE('',*,*,#272,.F.);
#185=ORIENTED_EDGE('',*,*,#323,.T.);
#186=ORIENTED_EDGE('',*,*,#324,.T.);
#187=ORIENTED_EDGE('',*,*,#319,.F.);
#188=ORIENTED_EDGE('',*,*,#268,.F.);
#189=ORIENTED_EDGE('',*,*,#322,.T.);
#190=ORIENTED_EDGE('',*,*,#325,.T.);
#191=ORIENTED_EDGE('',*,*,#326,.F.);
#192=ORIENTED_EDGE('',*,*,#271,.T.);
#193=ORIENTED_EDGE('',*,*,#327,.T.);
#194=ORIENTED_EDGE('',*,*,#328,.F.);
#195=ORIENTED_EDGE('',*,*,#323,.F.);
#196=ORIENTED_EDGE('',*,*,#326,.T.);
#197=ORIENTED_EDGE('',*,*,#329,.T.);
#198=ORIENTED_EDGE('',*,*,#330,.F.);
#199=ORIENTED_EDGE('',*,*,#269,.F.);
#200=ORIENTED_EDGE('',*,*,#270,.F.);
#201=ORIENTED_EDGE('',*,*,#330,.T.);
#202=ORIENTED_EDGE('',*,*,#331,.T.);
#203=ORIENTED_EDGE('',*,*,#327,.F.);
#204=ORIENTED_EDGE('',*,*,#278,.T.);
#205=ORIENTED_EDGE('',*,*,#332,.F.);
#206=ORIENTED_EDGE('',*,*,#279,.T.);
#207=ORIENTED_EDGE('',*,*,#333,.F.);
#208=ORIENTED_EDGE('',*,*,#334,.F.);
#209=ORIENTED_EDGE('',*,*,#284,.T.);
#210=ORIENTED_EDGE('',*,*,#282,.T.);
#211=ORIENTED_EDGE('',*,*,#288,.F.);
#212=ORIENTED_EDGE('',*,*,#335,.F.);
#213=ORIENTED_EDGE('',*,*,#299,.T.);
#214=ORIENTED_EDGE('',*,*,#336,.T.);
#215=ORIENTED_EDGE('',*,*,#286,.F.);
#216=ORIENTED_EDGE('',*,*,#337,.F.);
#217=ORIENTED_EDGE('',*,*,#298,.T.);
#218=ORIENTED_EDGE('',*,*,#335,.T.);
#219=ORIENTED_EDGE('',*,*,#291,.F.);
#220=ORIENTED_EDGE('',*,*,#336,.F.);
#221=ORIENTED_EDGE('',*,*,#296,.T.);
#222=ORIENTED_EDGE('',*,*,#334,.T.);
#223=ORIENTED_EDGE('',*,*,#287,.F.);
#224=ORIENTED_EDGE('',*,*,#292,.F.);
#225=ORIENTED_EDGE('',*,*,#294,.T.);
#226=ORIENTED_EDGE('',*,*,#337,.T.);
#227=ORIENTED_EDGE('',*,*,#290,.F.);
#228=ORIENTED_EDGE('',*,*,#304,.T.);
#229=ORIENTED_EDGE('',*,*,#308,.T.);
#230=ORIENTED_EDGE('',*,*,#312,.T.);
#231=ORIENTED_EDGE('',*,*,#316,.F.);
#232=ORIENTED_EDGE('',*,*,#320,.T.);
#233=ORIENTED_EDGE('',*,*,#324,.F.);
#234=ORIENTED_EDGE('',*,*,#328,.T.);
#235=ORIENTED_EDGE('',*,*,#331,.F.);
#236=ORIENTED_EDGE('',*,*,#329,.F.);
#237=ORIENTED_EDGE('',*,*,#325,.F.);
#238=ORIENTED_EDGE('',*,*,#321,.F.);
#239=ORIENTED_EDGE('',*,*,#317,.F.);
#240=ORIENTED_EDGE('',*,*,#313,.F.);
#241=ORIENTED_EDGE('',*,*,#309,.F.);
#242=ORIENTED_EDGE('',*,*,#305,.F.);
#243=ORIENTED_EDGE('',*,*,#301,.F.);
#244=ORIENTED_EDGE('',*,*,#333,.T.);
#245=ORIENTED_EDGE('',*,*,#332,.T.);
#246=EDGE_CURVE('',#338,#339,#398,.T.);
#247=EDGE_CURVE('',#339,#340,#399,.T.);
#248=EDGE_CURVE('',#341,#340,#400,.T.);
#249=EDGE_CURVE('',#338,#341,#401,.T.);
#250=EDGE_CURVE('',#342,#341,#16,.T.);
#251=EDGE_CURVE('',#343,#342,#402,.T.);
#252=EDGE_CURVE('',#338,#343,#17,.T.);
#253=EDGE_CURVE('',#341,#344,#403,.T.);
#254=EDGE_CURVE('',#340,#345,#404,.T.);
#255=EDGE_CURVE('',#344,#345,#405,.T.);
#256=EDGE_CURVE('',#346,#343,#406,.T.);
#257=EDGE_CURVE('',#347,#346,#18,.T.);
#258=EDGE_CURVE('',#348,#347,#407,.T.);
#259=EDGE_CURVE('',#349,#348,#19,.T.);
#260=EDGE_CURVE('',#350,#349,#408,.T.);
#261=EDGE_CURVE('',#339,#350,#20,.T.);
#262=EDGE_CURVE('',#351,#352,#409,.T.);
#263=EDGE_CURVE('',#352,#353,#21,.T.);
#264=EDGE_CURVE('',#353,#354,#410,.T.);
#265=EDGE_CURVE('',#354,#355,#22,.T.);
#266=EDGE_CURVE('',#355,#356,#411,.T.);
#267=EDGE_CURVE('',#356,#357,#23,.T.);
#268=EDGE_CURVE('',#357,#358,#412,.T.);
#269=EDGE_CURVE('',#358,#359,#24,.T.);
#270=EDGE_CURVE('',#359,#360,#413,.T.);
#271=EDGE_CURVE('',#361,#360,#25,.T.);
#272=EDGE_CURVE('',#361,#362,#414,.T.);
#273=EDGE_CURVE('',#363,#362,#26,.T.);
#274=EDGE_CURVE('',#363,#364,#415,.T.);
#275=EDGE_CURVE('',#365,#364,#27,.T.);
#276=EDGE_CURVE('',#366,#365,#416,.T.);
#277=EDGE_CURVE('',#351,#366,#28,.T.);
#278=EDGE_CURVE('',#367,#367,#29,.T.);
#279=EDGE_CURVE('',#368,#368,#30,.T.);
#280=EDGE_CURVE('',#350,#369,#417,.T.);
#281=EDGE_CURVE('',#340,#369,#31,.T.);
#282=EDGE_CURVE('',#342,#370,#418,.T.);
#283=EDGE_CURVE('',#370,#344,#32,.T.);
#284=EDGE_CURVE('',#371,#342,#419,.T.);
#285=EDGE_CURVE('',#346,#371,#420,.T.);
#286=EDGE_CURVE('',#372,#373,#421,.T.);
#287=EDGE_CURVE('',#373,#374,#33,.T.);
#288=EDGE_CURVE('',#374,#370,#422,.T.);
#289=EDGE_CURVE('',#345,#375,#34,.T.);
#290=EDGE_CURVE('',#375,#376,#423,.T.);
#291=EDGE_CURVE('',#376,#372,#35,.T.);
#292=EDGE_CURVE('',#369,#375,#424,.T.);
#293=EDGE_CURVE('',#349,#377,#425,.T.);
#294=EDGE_CURVE('',#369,#377,#426,.T.);
#295=EDGE_CURVE('',#347,#378,#427,.T.);
#296=EDGE_CURVE('',#378,#371,#36,.T.);
#297=EDGE_CURVE('',#348,#379,#428,.T.);
#298=EDGE_CURVE('',#377,#379,#37,.T.);
#299=EDGE_CURVE('',#379,#378,#429,.T.);
#300=EDGE_CURVE('',#351,#380,#430,.T.);
#301=EDGE_CURVE('',#380,#381,#431,.T.);
#302=EDGE_CURVE('',#352,#381,#432,.T.);
#303=EDGE_CURVE('',#366,#382,#433,.T.);
#304=EDGE_CURVE('',#380,#382,#38,.T.);
#305=EDGE_CURVE('',#381,#383,#39,.T.);
#306=EDGE_CURVE('',#353,#383,#434,.T.);
#307=EDGE_CURVE('',#365,#384,#435,.T.);
#308=EDGE_CURVE('',#382,#384,#436,.T.);
#309=EDGE_CURVE('',#383,#385,#437,.T.);
#310=EDGE_CURVE('',#354,#385,#438,.T.);
#311=EDGE_CURVE('',#364,#386,#439,.T.);
#312=EDGE_CURVE('',#384,#386,#40,.T.);
#313=EDGE_CURVE('',#385,#387,#41,.T.);
#314=EDGE_CURVE('',#355,#387,#440,.T.);
#315=EDGE_CURVE('',#363,#388,#441,.T.);
#316=EDGE_CURVE('',#388,#386,#442,.T.);
#317=EDGE_CURVE('',#387,#389,#443,.T.);
#318=EDGE_CURVE('',#356,#389,#444,.T.);
#319=EDGE_CURVE('',#362,#390,#445,.T.);
#320=EDGE_CURVE('',#388,#390,#42,.T.);
#321=EDGE_CURVE('',#389,#391,#43,.T.);
#322=EDGE_CURVE('',#357,#391,#446,.T.);
#323=EDGE_CURVE('',#361,#392,#447,.T.);
#324=EDGE_CURVE('',#392,#390,#448,.T.);
#325=EDGE_CURVE('',#391,#393,#449,.T.);
#326=EDGE_CURVE('',#358,#393,#450,.T.);
#327=EDGE_CURVE('',#360,#394,#451,.T.);
#328=EDGE_CURVE('',#392,#394,#44,.T.);
#329=EDGE_CURVE('',#393,#395,#45,.T.);
#330=EDGE_CURVE('',#359,#395,#452,.T.);
#331=EDGE_CURVE('',#395,#394,#453,.T.);
#332=EDGE_CURVE('',#396,#396,#46,.T.);
#333=EDGE_CURVE('',#397,#397,#47,.T.);
#334=EDGE_CURVE('',#371,#374,#454,.T.);
#335=EDGE_CURVE('',#379,#372,#455,.T.);
#336=EDGE_CURVE('',#378,#373,#456,.T.);
#337=EDGE_CURVE('',#377,#376,#457,.T.);
#338=VERTEX_POINT('',#947);
#339=VERTEX_POINT('',#948);
#340=VERTEX_POINT('',#950);
#341=VERTEX_POINT('',#952);
#342=VERTEX_POINT('',#956);
#343=VERTEX_POINT('',#958);
#344=VERTEX_POINT('',#962);
#345=VERTEX_POINT('',#964);
#346=VERTEX_POINT('',#968);
#347=VERTEX_POINT('',#970);
#348=VERTEX_POINT('',#972);
#349=VERTEX_POINT('',#974);
#350=VERTEX_POINT('',#976);
#351=VERTEX_POINT('',#979);
#352=VERTEX_POINT('',#980);
#353=VERTEX_POINT('',#982);
#354=VERTEX_POINT('',#984);
#355=VERTEX_POINT('',#986);
#356=VERTEX_POINT('',#988);
#357=VERTEX_POINT('',#990);
#358=VERTEX_POINT('',#992);
#359=VERTEX_POINT('',#994);
#360=VERTEX_POINT('',#996);
#361=VERTEX_POINT('',#998);
#362=VERTEX_POINT('',#1000);
#363=VERTEX_POINT('',#1002);
#364=VERTEX_POINT('',#1004);
#365=VERTEX_POINT('',#1006);
#366=VERTEX_POINT('',#1008);
#367=VERTEX_POINT('',#1011);
#368=VERTEX_POINT('',#1013);
#369=VERTEX_POINT('',#1016);
#370=VERTEX_POINT('',#1020);
#371=VERTEX_POINT('',#1024);
#372=VERTEX_POINT('',#1028);
#373=VERTEX_POINT('',#1029);
#374=VERTEX_POINT('',#1031);
#375=VERTEX_POINT('',#1034);
#376=VERTEX_POINT('',#1036);
#377=VERTEX_POINT('',#1042);
#378=VERTEX_POINT('',#1046);
#379=VERTEX_POINT('',#1050);
#380=VERTEX_POINT('',#1056);
#381=VERTEX_POINT('',#1058);
#382=VERTEX_POINT('',#1062);
#383=VERTEX_POINT('',#1066);
#384=VERTEX_POINT('',#1070);
#385=VERTEX_POINT('',#1074);
#386=VERTEX_POINT('',#1078);
#387=VERTEX_POINT('',#1082);
#388=VERTEX_POINT('',#1086);
#389=VERTEX_POINT('',#1090);
#390=VERTEX_POINT('',#1094);
#391=VERTEX_POINT('',#1098);
#392=VERTEX_POINT('',#1102);
#393=VERTEX_POINT('',#1106);
#394=VERTEX_POINT('',#1110);
#395=VERTEX_POINT('',#1114);
#396=VERTEX_POINT('',#1120);
#397=VERTEX_POINT('',#1123);
#398=LINE('',#946,#458);
#399=LINE('',#949,#459);
#400=LINE('',#951,#460);
#401=LINE('',#953,#461);
#402=LINE('',#957,#462);
#403=LINE('',#961,#463);
#404=LINE('',#963,#464);
#405=LINE('',#965,#465);
#406=LINE('',#967,#466);
#407=LINE('',#971,#467);
#408=LINE('',#975,#468);
#409=LINE('',#978,#469);
#410=LINE('',#983,#470);
#411=LINE('',#987,#471);
#412=LINE('',#991,#472);
#413=LINE('',#995,#473);
#414=LINE('',#999,#474);
#415=LINE('',#1003,#475);
#416=LINE('',#1007,#476);
#417=LINE('',#1015,#477);
#418=LINE('',#1019,#478);
#419=LINE('',#1023,#479);
#420=LINE('',#1025,#480);
#421=LINE('',#1027,#481);
#422=LINE('',#1032,#482);
#423=LINE('',#1035,#483);
#424=LINE('',#1039,#484);
#425=LINE('',#1041,#485);
#426=LINE('',#1043,#486);
#427=LINE('',#1045,#487);
#428=LINE('',#1049,#488);
#429=LINE('',#1053,#489);
#430=LINE('',#1055,#490);
#431=LINE('',#1057,#491);
#432=LINE('',#1059,#492);
#433=LINE('',#1061,#493);
#434=LINE('',#1067,#494);
#435=LINE('',#1069,#495);
#436=LINE('',#1071,#496);
#437=LINE('',#1073,#497);
#438=LINE('',#1075,#498);
#439=LINE('',#1077,#499);
#440=LINE('',#1083,#500);
#441=LINE('',#1085,#501);
#442=LINE('',#1087,#502);
#443=LINE('',#1089,#503);
#444=LINE('',#1091,#504);
#445=LINE('',#1093,#505);
#446=LINE('',#1099,#506);
#447=LINE('',#1101,#507);
#448=LINE('',#1103,#508);
#449=LINE('',#1105,#509);
#450=LINE('',#1107,#510);
#451=LINE('',#1109,#511);
#452=LINE('',#1115,#512);
#453=LINE('',#1117,#513);
#454=LINE('',#1125,#514);
#455=LINE('',#1127,#515);
#456=LINE('',#1128,#516);
#457=LINE('',#1130,#517);
#458=VECTOR('',#748,1.);
#459=VECTOR('',#749,1.);
#460=VECTOR('',#750,1.);
#461=VECTOR('',#751,1.);
#462=VECTOR('',#756,1.);
#463=VECTOR('',#761,1.);
#464=VECTOR('',#762,1.);
#465=VECTOR('',#763,1.);
#466=VECTOR('',#766,1.);
#467=VECTOR('',#769,1.);
#468=VECTOR('',#772,1.);
#469=VECTOR('',#775,1.);
#470=VECTOR('',#778,1.);
#471=VECTOR('',#781,1.);
#472=VECTOR('',#784,1.);
#473=VECTOR('',#787,1.);
#474=VECTOR('',#790,1.);
#475=VECTOR('',#793,1.);
#476=VECTOR('',#796,1.);
#477=VECTOR('',#805,1.);
#478=VECTOR('',#810,1.);
#479=VECTOR('',#815,1.);
#480=VECTOR('',#816,1.);
#481=VECTOR('',#819,1.);
#482=VECTOR('',#822,1.);
#483=VECTOR('',#825,1.);
#484=VECTOR('',#830,1.);
#485=VECTOR('',#833,1.);
#486=VECTOR('',#834,1.);
#487=VECTOR('',#837,1.);
#488=VECTOR('',#842,1.);
#489=VECTOR('',#847,1.);
#490=VECTOR('',#850,1.);
#491=VECTOR('',#851,1.);
#492=VECTOR('',#852,1.);
#493=VECTOR('',#855,1.);
#494=VECTOR('',#862,1.);
#495=VECTOR('',#865,1.);
#496=VECTOR('',#866,1.);
#497=VECTOR('',#869,1.);
#498=VECTOR('',#870,1.);
#499=VECTOR('',#873,1.);
#500=VECTOR('',#880,1.);
#501=VECTOR('',#883,1.);
#502=VECTOR('',#884,1.);
#503=VECTOR('',#887,1.);
#504=VECTOR('',#888,1.);
#505=VECTOR('',#891,1.);
#506=VECTOR('',#898,1.);
#507=VECTOR('',#901,1.);
#508=VECTOR('',#902,1.);
#509=VECTOR('',#905,1.);
#510=VECTOR('',#906,1.);
#511=VECTOR('',#909,1.);
#512=VECTOR('',#916,1.);
#513=VECTOR('',#919,1.);
#514=VECTOR('',#930,1.);
#515=VECTOR('',#933,1.);
#516=VECTOR('',#934,1.);
#517=VECTOR('',#937,1.);
#518=EDGE_LOOP('',(#62,#63,#64,#65));
#519=EDGE_LOOP('',(#66,#67,#68,#69));
#520=EDGE_LOOP('',(#70,#71,#72,#73));
#521=EDGE_LOOP('',(#74,#75,#76,#77,#78,#79,#80,#81));
#522=EDGE_LOOP('',(#82,#83,#84,#85,#86,#87,#88,#89,#90,#91,#92,#93,#94,
#95,#96,#97));
#523=EDGE_LOOP('',(#98));
#524=EDGE_LOOP('',(#99));
#525=EDGE_LOOP('',(#100,#101,#102,#103));
#526=EDGE_LOOP('',(#104,#105,#106,#107));
#527=EDGE_LOOP('',(#108,#109,#110,#111));
#528=EDGE_LOOP('',(#112,#113,#114,#115,#116,#117,#118,#119));
#529=EDGE_LOOP('',(#120,#121,#122,#123));
#530=EDGE_LOOP('',(#124,#125,#126,#127));
#531=EDGE_LOOP('',(#128,#129,#130,#131));
#532=EDGE_LOOP('',(#132,#133,#134,#135));
#533=EDGE_LOOP('',(#136,#137,#138,#139));
#534=EDGE_LOOP('',(#140,#141,#142,#143));
#535=EDGE_LOOP('',(#144,#145,#146,#147));
#536=EDGE_LOOP('',(#148,#149,#150,#151));
#537=EDGE_LOOP('',(#152,#153,#154,#155));
#538=EDGE_LOOP('',(#156,#157,#158,#159));
#539=EDGE_LOOP('',(#160,#161,#162,#163));
#540=EDGE_LOOP('',(#164,#165,#166,#167));
#541=EDGE_LOOP('',(#168,#169,#170,#171));
#542=EDGE_LOOP('',(#172,#173,#174,#175));
#543=EDGE_LOOP('',(#176,#177,#178,#179));
#544=EDGE_LOOP('',(#180,#181,#182,#183));
#545=EDGE_LOOP('',(#184,#185,#186,#187));
#546=EDGE_LOOP('',(#188,#189,#190,#191));
#547=EDGE_LOOP('',(#192,#193,#194,#195));
#548=EDGE_LOOP('',(#196,#197,#198,#199));
#549=EDGE_LOOP('',(#200,#201,#202,#203));
#550=EDGE_LOOP('',(#204));
#551=EDGE_LOOP('',(#205));
#552=EDGE_LOOP('',(#206));
#553=EDGE_LOOP('',(#207));
#554=EDGE_LOOP('',(#208,#209,#210,#211));
#555=EDGE_LOOP('',(#212,#213,#214,#215));
#556=EDGE_LOOP('',(#216,#217,#218,#219));
#557=EDGE_LOOP('',(#220,#221,#222,#223));
#558=EDGE_LOOP('',(#224,#225,#226,#227));
#559=EDGE_LOOP('',(#228,#229,#230,#231,#232,#233,#234,#235,#236,#237,#238,
#239,#240,#241,#242,#243));
#560=EDGE_LOOP('',(#244));
#561=EDGE_LOOP('',(#245));
#562=FACE_BOUND('',#518,.T.);
#563=FACE_BOUND('',#519,.T.);
#564=FACE_BOUND('',#520,.T.);
#565=FACE_BOUND('',#521,.T.);
#566=FACE_BOUND('',#522,.T.);
#567=FACE_BOUND('',#523,.T.);
#568=FACE_BOUND('',#524,.T.);
#569=FACE_BOUND('',#525,.T.);
#570=FACE_BOUND('',#526,.T.);
#571=FACE_BOUND('',#527,.T.);
#572=FACE_BOUND('',#528,.T.);
#573=FACE_BOUND('',#529,.T.);
#574=FACE_BOUND('',#530,.T.);
#575=FACE_BOUND('',#531,.T.);
#576=FACE_BOUND('',#532,.T.);
#577=FACE_BOUND('',#533,.T.);
#578=FACE_BOUND('',#534,.T.);
#579=FACE_BOUND('',#535,.T.);
#580=FACE_BOUND('',#536,.T.);
#581=FACE_BOUND('',#537,.T.);
#582=FACE_BOUND('',#538,.T.);
#583=FACE_BOUND('',#539,.T.);
#584=FACE_BOUND('',#540,.T.);
#585=FACE_BOUND('',#541,.T.);
#586=FACE_BOUND('',#542,.T.);
#587=FACE_BOUND('',#543,.T.);
#588=FACE_BOUND('',#544,.T.);
#589=FACE_BOUND('',#545,.T.);
#590=FACE_BOUND('',#546,.T.);
#591=FACE_BOUND('',#547,.T.);
#592=FACE_BOUND('',#548,.T.);
#593=FACE_BOUND('',#549,.T.);
#594=FACE_BOUND('',#550,.T.);
#595=FACE_BOUND('',#551,.T.);
#596=FACE_BOUND('',#552,.T.);
#597=FACE_BOUND('',#553,.T.);
#598=FACE_BOUND('',#554,.T.);
#599=FACE_BOUND('',#555,.T.);
#600=FACE_BOUND('',#556,.T.);
#601=FACE_BOUND('',#557,.T.);
#602=FACE_BOUND('',#558,.T.);
#603=FACE_BOUND('',#559,.T.);
#604=FACE_BOUND('',#560,.T.);
#605=FACE_BOUND('',#561,.T.);
#606=PLANE('',#675);
#607=PLANE('',#679);
#608=PLANE('',#680);
#609=PLANE('',#698);
#610=PLANE('',#699);
#611=PLANE('',#704);
#612=PLANE('',#709);
#613=PLANE('',#710);
#614=PLANE('',#715);
#615=PLANE('',#716);
#616=PLANE('',#721);
#617=PLANE('',#722);
#618=PLANE('',#727);
#619=PLANE('',#728);
#620=PLANE('',#733);
#621=PLANE('',#738);
#622=PLANE('',#739);
#623=PLANE('',#742);
#624=PLANE('',#743);
#625=ADVANCED_FACE('',(#562),#606,.F.);
#626=ADVANCED_FACE('',(#563),#48,.T.);
#627=ADVANCED_FACE('',(#564),#607,.F.);
#628=ADVANCED_FACE('',(#565,#566,#567,#568),#608,.T.);
#629=ADVANCED_FACE('',(#569),#49,.T.);
#630=ADVANCED_FACE('',(#570),#12,.T.);
#631=ADVANCED_FACE('',(#571),#609,.F.);
#632=ADVANCED_FACE('',(#572),#610,.T.);
#633=ADVANCED_FACE('',(#573),#13,.T.);
#634=ADVANCED_FACE('',(#574),#611,.F.);
#635=ADVANCED_FACE('',(#575),#50,.T.);
#636=ADVANCED_FACE('',(#576),#51,.T.);
#637=ADVANCED_FACE('',(#577),#612,.F.);
#638=ADVANCED_FACE('',(#578),#613,.T.);
#639=ADVANCED_FACE('',(#579),#52,.T.);
#640=ADVANCED_FACE('',(#580),#53,.T.);
#641=ADVANCED_FACE('',(#581),#614,.T.);
#642=ADVANCED_FACE('',(#582),#615,.T.);
#643=ADVANCED_FACE('',(#583),#54,.T.);
#644=ADVANCED_FACE('',(#584),#55,.T.);
#645=ADVANCED_FACE('',(#585),#616,.T.);
#646=ADVANCED_FACE('',(#586),#617,.T.);
#647=ADVANCED_FACE('',(#587),#56,.T.);
#648=ADVANCED_FACE('',(#588),#57,.T.);
#649=ADVANCED_FACE('',(#589),#618,.T.);
#650=ADVANCED_FACE('',(#590),#619,.T.);
#651=ADVANCED_FACE('',(#591),#58,.T.);
#652=ADVANCED_FACE('',(#592),#59,.T.);
#653=ADVANCED_FACE('',(#593),#620,.T.);
#654=ADVANCED_FACE('',(#594,#595),#60,.F.);
#655=ADVANCED_FACE('',(#596,#597),#61,.F.);
#656=ADVANCED_FACE('',(#598),#621,.F.);
#657=ADVANCED_FACE('',(#599),#622,.F.);
#658=ADVANCED_FACE('',(#600),#14,.T.);
#659=ADVANCED_FACE('',(#601),#15,.T.);
#660=ADVANCED_FACE('',(#602),#623,.F.);
#661=ADVANCED_FACE('',(#603,#604,#605),#624,.F.);
#662=CLOSED_SHELL('',(#625,#626,#627,#628,#629,#630,#631,#632,#633,#634,
#635,#636,#637,#638,#639,#640,#641,#642,#643,#644,#645,#646,#647,#648,#649,
#650,#651,#652,#653,#654,#655,#656,#657,#658,#659,#660,#661));
#663=STYLED_ITEM('',(#664),#671);
#664=PRESENTATION_STYLE_ASSIGNMENT((#665));
#665=SURFACE_STYLE_USAGE(.BOTH.,#666);
#666=SURFACE_SIDE_STYLE('',(#667));
#667=SURFACE_STYLE_FILL_AREA(#668);
#668=FILL_AREA_STYLE('',(#669));
#669=FILL_AREA_STYLE_COLOUR('',#670);
#670=COLOUR_RGB('',0.372549019607843,0.654901960784314,0.23921568627451);
#671=MANIFOLD_SOLID_BREP('MT6835',#662);
#672=SHAPE_DEFINITION_REPRESENTATION(#1140,#673);
#673=SHAPE_REPRESENTATION('MT6835',(#674),#1135);
#674=AXIS2_PLACEMENT_3D('',#944,#744,#745);
#675=AXIS2_PLACEMENT_3D('',#945,#746,#747);
#676=AXIS2_PLACEMENT_3D('',#954,#752,#753);
#677=AXIS2_PLACEMENT_3D('',#955,#754,#755);
#678=AXIS2_PLACEMENT_3D('',#959,#757,#758);
#679=AXIS2_PLACEMENT_3D('',#960,#759,#760);
#680=AXIS2_PLACEMENT_3D('',#966,#764,#765);
#681=AXIS2_PLACEMENT_3D('',#969,#767,#768);
#682=AXIS2_PLACEMENT_3D('',#973,#770,#771);
#683=AXIS2_PLACEMENT_3D('',#977,#773,#774);
#684=AXIS2_PLACEMENT_3D('',#981,#776,#777);
#685=AXIS2_PLACEMENT_3D('',#985,#779,#780);
#686=AXIS2_PLACEMENT_3D('',#989,#782,#783);
#687=AXIS2_PLACEMENT_3D('',#993,#785,#786);
#688=AXIS2_PLACEMENT_3D('',#997,#788,#789);
#689=AXIS2_PLACEMENT_3D('',#1001,#791,#792);
#690=AXIS2_PLACEMENT_3D('',#1005,#794,#795);
#691=AXIS2_PLACEMENT_3D('',#1009,#797,#798);
#692=AXIS2_PLACEMENT_3D('',#1010,#799,#800);
#693=AXIS2_PLACEMENT_3D('',#1012,#801,#802);
#694=AXIS2_PLACEMENT_3D('',#1014,#803,#804);
#695=AXIS2_PLACEMENT_3D('',#1017,#806,#807);
#696=AXIS2_PLACEMENT_3D('',#1018,#808,#809);
#697=AXIS2_PLACEMENT_3D('',#1021,#811,#812);
#698=AXIS2_PLACEMENT_3D('',#1022,#813,#814);
#699=AXIS2_PLACEMENT_3D('',#1026,#817,#818);
#700=AXIS2_PLACEMENT_3D('',#1030,#820,#821);
#701=AXIS2_PLACEMENT_3D('',#1033,#823,#824);
#702=AXIS2_PLACEMENT_3D('',#1037,#826,#827);
#703=AXIS2_PLACEMENT_3D('',#1038,#828,#829);
#704=AXIS2_PLACEMENT_3D('',#1040,#831,#832);
#705=AXIS2_PLACEMENT_3D('',#1044,#835,#836);
#706=AXIS2_PLACEMENT_3D('',#1047,#838,#839);
#707=AXIS2_PLACEMENT_3D('',#1048,#840,#841);
#708=AXIS2_PLACEMENT_3D('',#1051,#843,#844);
#709=AXIS2_PLACEMENT_3D('',#1052,#845,#846);
#710=AXIS2_PLACEMENT_3D('',#1054,#848,#849);
#711=AXIS2_PLACEMENT_3D('',#1060,#853,#854);
#712=AXIS2_PLACEMENT_3D('',#1063,#856,#857);
#713=AXIS2_PLACEMENT_3D('',#1064,#858,#859);
#714=AXIS2_PLACEMENT_3D('',#1065,#860,#861);
#715=AXIS2_PLACEMENT_3D('',#1068,#863,#864);
#716=AXIS2_PLACEMENT_3D('',#1072,#867,#868);
#717=AXIS2_PLACEMENT_3D('',#1076,#871,#872);
#718=AXIS2_PLACEMENT_3D('',#1079,#874,#875);
#719=AXIS2_PLACEMENT_3D('',#1080,#876,#877);
#720=AXIS2_PLACEMENT_3D('',#1081,#878,#879);
#721=AXIS2_PLACEMENT_3D('',#1084,#881,#882);
#722=AXIS2_PLACEMENT_3D('',#1088,#885,#886);
#723=AXIS2_PLACEMENT_3D('',#1092,#889,#890);
#724=AXIS2_PLACEMENT_3D('',#1095,#892,#893);
#725=AXIS2_PLACEMENT_3D('',#1096,#894,#895);
#726=AXIS2_PLACEMENT_3D('',#1097,#896,#897);
#727=AXIS2_PLACEMENT_3D('',#1100,#899,#900);
#728=AXIS2_PLACEMENT_3D('',#1104,#903,#904);
#729=AXIS2_PLACEMENT_3D('',#1108,#907,#908);
#730=AXIS2_PLACEMENT_3D('',#1111,#910,#911);
#731=AXIS2_PLACEMENT_3D('',#1112,#912,#913);
#732=AXIS2_PLACEMENT_3D('',#1113,#914,#915);
#733=AXIS2_PLACEMENT_3D('',#1116,#917,#918);
#734=AXIS2_PLACEMENT_3D('',#1118,#920,#921);
#735=AXIS2_PLACEMENT_3D('',#1119,#922,#923);
#736=AXIS2_PLACEMENT_3D('',#1121,#924,#925);
#737=AXIS2_PLACEMENT_3D('',#1122,#926,#927);
#738=AXIS2_PLACEMENT_3D('',#1124,#928,#929);
#739=AXIS2_PLACEMENT_3D('',#1126,#931,#932);
#740=AXIS2_PLACEMENT_3D('',#1129,#935,#936);
#741=AXIS2_PLACEMENT_3D('',#1131,#938,#939);
#742=AXIS2_PLACEMENT_3D('',#1132,#940,#941);
#743=AXIS2_PLACEMENT_3D('',#1133,#942,#943);
#744=DIRECTION('',(0.,0.,1.));
#745=DIRECTION('',(1.,0.,0.));
#746=DIRECTION('',(0.,0.,1.));
#747=DIRECTION('',(1.,0.,0.));
#748=DIRECTION('',(1.,0.,0.));
#749=DIRECTION('',(0.,-1.,0.));
#750=DIRECTION('',(1.,0.,0.));
#751=DIRECTION('',(0.,-1.,0.));
#752=DIRECTION('',(0.,-1.,0.));
#753=DIRECTION('',(0.,0.,-1.));
#754=DIRECTION('',(0.,-1.,0.));
#755=DIRECTION('',(-1.,0.,0.));
#756=DIRECTION('',(0.,-1.,0.));
#757=DIRECTION('',(0.,1.,0.));
#758=DIRECTION('',(0.,0.,-1.));
#759=DIRECTION('',(0.,0.707106781186548,0.707106781186548));
#760=DIRECTION('',(-1.,0.,0.));
#761=DIRECTION('',(3.99999999999744E-17,-0.707106781186548,0.707106781186548));
#762=DIRECTION('',(0.,-0.707106781186548,0.707106781186548));
#763=DIRECTION('',(1.,0.,0.));
#764=DIRECTION('',(0.,-1.,0.));
#765=DIRECTION('',(1.,0.,0.));
#766=DIRECTION('',(0.,0.,-1.));
#767=DIRECTION('',(0.,-1.,0.));
#768=DIRECTION('',(0.,0.,-1.));
#769=DIRECTION('',(-1.,0.,0.));
#770=DIRECTION('',(0.,-1.,0.));
#771=DIRECTION('',(0.,0.,-1.));
#772=DIRECTION('',(0.,0.,1.));
#773=DIRECTION('',(0.,-1.,0.));
#774=DIRECTION('',(0.,0.,-1.));
#775=DIRECTION('',(1.,0.,0.));
#776=DIRECTION('',(0.,-1.,0.));
#777=DIRECTION('',(0.,0.,1.));
#778=DIRECTION('',(0.707106781186548,0.,0.707106781186548));
#779=DIRECTION('',(0.,-1.,0.));
#780=DIRECTION('',(0.,0.,1.));
#781=DIRECTION('',(0.,0.,1.));
#782=DIRECTION('',(0.,-1.,0.));
#783=DIRECTION('',(0.,0.,1.));
#784=DIRECTION('',(-0.707106781186548,0.,0.707106781186548));
#785=DIRECTION('',(0.,-1.,0.));
#786=DIRECTION('',(0.,0.,1.));
#787=DIRECTION('',(-1.,0.,0.));
#788=DIRECTION('',(0.,1.,0.));
#789=DIRECTION('',(0.,0.,1.));
#790=DIRECTION('',(-0.707106781186548,0.,-0.707106781186548));
#791=DIRECTION('',(0.,1.,0.));
#792=DIRECTION('',(0.,0.,1.));
#793=DIRECTION('',(0.,0.,-1.));
#794=DIRECTION('',(0.,1.,0.));
#795=DIRECTION('',(0.,0.,1.));
#796=DIRECTION('',(-0.707106781186548,0.,0.707106781186548));
#797=DIRECTION('',(0.,1.,0.));
#798=DIRECTION('',(0.,0.,1.));
#799=DIRECTION('',(0.,-1.,0.));
#800=DIRECTION('',(1.,0.,0.));
#801=DIRECTION('',(0.,-1.,0.));
#802=DIRECTION('',(1.,0.,0.));
#803=DIRECTION('',(0.,-1.,0.));
#804=DIRECTION('',(0.,0.,-1.));
#805=DIRECTION('',(0.,-1.,0.));
#806=DIRECTION('',(0.,-1.,0.));
#807=DIRECTION('',(-1.11E-15,0.,-1.));
#808=DIRECTION('',(0.,1.,0.));
#809=DIRECTION('',(-1.,0.,0.));
#810=DIRECTION('',(0.707106781186548,-0.707106781186548,0.));
#811=DIRECTION('',(0.,-1.,0.));
#812=DIRECTION('',(-1.,0.,0.));
#813=DIRECTION('',(1.,0.,0.));
#814=DIRECTION('',(0.,0.,-1.));
#815=DIRECTION('',(0.,0.,-1.));
#816=DIRECTION('',(0.,-1.,0.));
#817=DIRECTION('',(0.,-1.,0.));
#818=DIRECTION('',(1.,0.,0.));
#819=DIRECTION('',(-1.,0.,0.));
#820=DIRECTION('',(0.,-1.,0.));
#821=DIRECTION('',(1.11E-15,0.,1.));
#822=DIRECTION('',(0.,0.,-1.));
#823=DIRECTION('',(0.,-1.,0.));
#824=DIRECTION('',(-1.11E-15,0.,-1.));
#825=DIRECTION('',(0.,0.,1.));
#826=DIRECTION('',(0.,-1.,0.));
#827=DIRECTION('',(1.,0.,0.));
#828=DIRECTION('',(0.,1.,0.));
#829=DIRECTION('',(-1.11E-15,0.,-1.));
#830=DIRECTION('',(-0.707106781186548,-0.707106781186548,8.29999999999468E-16));
#831=DIRECTION('',(-1.,0.,0.));
#832=DIRECTION('',(0.,0.,1.));
#833=DIRECTION('',(0.,-1.,0.));
#834=DIRECTION('',(0.,0.,1.));
#835=DIRECTION('',(0.,-1.,0.));
#836=DIRECTION('',(0.,0.,1.));
#837=DIRECTION('',(0.,-1.,0.));
#838=DIRECTION('',(0.,-1.,0.));
#839=DIRECTION('',(1.11E-15,0.,1.));
#840=DIRECTION('',(0.,-1.,0.));
#841=DIRECTION('',(1.,0.,0.));
#842=DIRECTION('',(0.,-1.,0.));
#843=DIRECTION('',(0.,-1.,0.));
#844=DIRECTION('',(1.,0.,0.));
#845=DIRECTION('',(0.,0.,-1.));
#846=DIRECTION('',(-1.,0.,0.));
#847=DIRECTION('',(-1.,0.,0.));
#848=DIRECTION('',(0.,0.,-1.));
#849=DIRECTION('',(1.,0.,0.));
#850=DIRECTION('',(0.,1.,0.));
#851=DIRECTION('',(1.,0.,0.));
#852=DIRECTION('',(0.,1.,0.));
#853=DIRECTION('',(0.,1.,0.));
#854=DIRECTION('',(0.,0.,-1.));
#855=DIRECTION('',(0.,1.,0.));
#856=DIRECTION('',(0.,1.,0.));
#857=DIRECTION('',(0.,0.,1.));
#858=DIRECTION('',(0.,1.,0.));
#859=DIRECTION('',(0.,0.,-1.));
#860=DIRECTION('',(0.,-1.,0.));
#861=DIRECTION('',(0.,0.,1.));
#862=DIRECTION('',(0.,1.,0.));
#863=DIRECTION('',(-0.707106781186548,0.,-0.707106781186548));
#864=DIRECTION('',(0.,-1.,0.));
#865=DIRECTION('',(0.,1.,0.));
#866=DIRECTION('',(-0.707106781186548,0.,0.707106781186548));
#867=DIRECTION('',(0.707106781186548,0.,-0.707106781186548));
#868=DIRECTION('',(0.,1.,0.));
#869=DIRECTION('',(0.707106781186548,0.,0.707106781186548));
#870=DIRECTION('',(0.,1.,0.));
#871=DIRECTION('',(0.,1.,0.));
#872=DIRECTION('',(-0.707106781186548,0.,-0.707106781186548));
#873=DIRECTION('',(0.,1.,0.));
#874=DIRECTION('',(0.,1.,0.));
#875=DIRECTION('',(0.,0.,1.));
#876=DIRECTION('',(0.,1.,0.));
#877=DIRECTION('',(0.707106781186548,0.,-0.707106781186548));
#878=DIRECTION('',(0.,-1.,0.));
#879=DIRECTION('',(0.,0.,1.));
#880=DIRECTION('',(0.,1.,0.));
#881=DIRECTION('',(-1.,0.,0.));
#882=DIRECTION('',(0.,0.,-1.));
#883=DIRECTION('',(0.,1.,0.));
#884=DIRECTION('',(0.,0.,-1.));
#885=DIRECTION('',(1.,0.,0.));
#886=DIRECTION('',(0.,0.,1.));
#887=DIRECTION('',(0.,0.,1.));
#888=DIRECTION('',(0.,1.,0.));
#889=DIRECTION('',(0.,1.,0.));
#890=DIRECTION('',(-1.,0.,0.));
#891=DIRECTION('',(0.,1.,0.));
#892=DIRECTION('',(0.,1.,0.));
#893=DIRECTION('',(0.,0.,1.));
#894=DIRECTION('',(0.,1.,0.));
#895=DIRECTION('',(1.,0.,0.));
#896=DIRECTION('',(0.,-1.,0.));
#897=DIRECTION('',(0.,0.,1.));
#898=DIRECTION('',(0.,1.,0.));
#899=DIRECTION('',(-0.707106781186548,0.,0.707106781186548));
#900=DIRECTION('',(0.,1.,0.));
#901=DIRECTION('',(0.,1.,0.));
#902=DIRECTION('',(-0.707106781186548,0.,-0.707106781186548));
#903=DIRECTION('',(0.707106781186548,0.,0.707106781186548));
#904=DIRECTION('',(0.,1.,0.));
#905=DIRECTION('',(-0.707106781186548,0.,0.707106781186548));
#906=DIRECTION('',(0.,1.,0.));
#907=DIRECTION('',(0.,1.,0.));
#908=DIRECTION('',(-0.707106781186548,0.,0.707106781186548));
#909=DIRECTION('',(0.,1.,0.));
#910=DIRECTION('',(0.,1.,0.));
#911=DIRECTION('',(0.,0.,1.));
#912=DIRECTION('',(0.,1.,0.));
#913=DIRECTION('',(0.707106781186548,0.,0.707106781186548));
#914=DIRECTION('',(0.,-1.,0.));
#915=DIRECTION('',(0.,0.,1.));
#916=DIRECTION('',(0.,1.,0.));
#917=DIRECTION('',(0.,0.,1.));
#918=DIRECTION('',(-1.,0.,0.));
#919=DIRECTION('',(-1.,0.,0.));
#920=DIRECTION('',(0.,-1.,0.));
#921=DIRECTION('',(1.,0.,0.));
#922=DIRECTION('',(0.,-1.,0.));
#923=DIRECTION('',(1.,0.,0.));
#924=DIRECTION('',(0.,-1.,0.));
#925=DIRECTION('',(1.,0.,0.));
#926=DIRECTION('',(0.,-1.,0.));
#927=DIRECTION('',(1.,0.,0.));
#928=DIRECTION('',(0.707106781186548,0.707106781186548,0.));
#929=DIRECTION('',(0.,0.,1.));
#930=DIRECTION('',(0.707106781186548,-0.707106781186548,-8.29999999999468E-16));
#931=DIRECTION('',(0.,0.707106781186548,-0.707106781186548));
#932=DIRECTION('',(1.,0.,0.));
#933=DIRECTION('',(0.,-0.707106781186548,-0.707106781186548));
#934=DIRECTION('',(0.,-0.707106781186548,-0.707106781186548));
#935=DIRECTION('',(0.,1.,0.));
#936=DIRECTION('',(1.,0.,0.));
#937=DIRECTION('',(-0.707106781186548,-0.707106781186548,0.));
#938=DIRECTION('',(0.,1.,0.));
#939=DIRECTION('',(1.11E-15,0.,1.));
#940=DIRECTION('',(-0.707106781186548,0.707106781186548,0.));
#941=DIRECTION('',(0.,0.,-1.));
#942=DIRECTION('',(0.,-1.,0.));
#943=DIRECTION('',(1.,0.,0.));
#944=CARTESIAN_POINT('',(0.,0.,0.));
#945=CARTESIAN_POINT('',(-0.0021,0.,-0.00255));
#946=CARTESIAN_POINT('',(-0.0021,0.,-0.00255));
#947=CARTESIAN_POINT('',(-0.0019,0.,-0.00255));
#948=CARTESIAN_POINT('',(0.0019,0.,-0.00255));
#949=CARTESIAN_POINT('',(0.0019,0.,-0.00255));
#950=CARTESIAN_POINT('',(0.0019,-0.0009,-0.00255));
#951=CARTESIAN_POINT('',(-0.0019,-0.0009,-0.00255));
#952=CARTESIAN_POINT('',(-0.0019,-0.0009,-0.00255));
#953=CARTESIAN_POINT('',(-0.0019,0.,-0.00255));
#954=CARTESIAN_POINT('',(-0.0019,0.,-0.00235));
#955=CARTESIAN_POINT('',(-0.0019,-0.0009,-0.00235));
#956=CARTESIAN_POINT('',(-0.0021,-0.0009,-0.00235));
#957=CARTESIAN_POINT('',(-0.0021,0.,-0.00235));
#958=CARTESIAN_POINT('',(-0.0021,0.,-0.00235));
#959=CARTESIAN_POINT('',(-0.0019,0.,-0.00235));
#960=CARTESIAN_POINT('',(-0.0019,-0.00095,-0.0025));
#961=CARTESIAN_POINT('',(-0.0019,-0.0009,-0.00255));
#962=CARTESIAN_POINT('',(-0.0019,-0.001,-0.00245));
#963=CARTESIAN_POINT('',(0.0019,-0.00095,-0.0025));
#964=CARTESIAN_POINT('',(0.0019,-0.001,-0.00245));
#965=CARTESIAN_POINT('',(-0.0019,-0.001,-0.00245));
#966=CARTESIAN_POINT('',(5.E-20,0.,1.E-20));
#967=CARTESIAN_POINT('',(-0.0021,0.,0.00255));
#968=CARTESIAN_POINT('',(-0.0021,0.,0.00235));
#969=CARTESIAN_POINT('',(-0.0019,0.,0.00235));
#970=CARTESIAN_POINT('',(-0.0019,0.,0.00255));
#971=CARTESIAN_POINT('',(0.0021,0.,0.00255));
#972=CARTESIAN_POINT('',(0.0019,0.,0.00255));
#973=CARTESIAN_POINT('',(0.0019,0.,0.00235));
#974=CARTESIAN_POINT('',(0.0021,0.,0.00235));
#975=CARTESIAN_POINT('',(0.0021,0.,-0.00255));
#976=CARTESIAN_POINT('',(0.0021,0.,-0.00235));
#977=CARTESIAN_POINT('',(0.0019,0.,-0.00235));
#978=CARTESIAN_POINT('',(-0.0075,0.,-0.0085));
#979=CARTESIAN_POINT('',(-0.004671572875254,0.,-0.0085));
#980=CARTESIAN_POINT('',(0.004671572875254,0.,-0.0085));
#981=CARTESIAN_POINT('',(0.004671572875254,0.,-0.0065));
#982=CARTESIAN_POINT('',(0.006085786437627,0.,-0.007914213562373));
#983=CARTESIAN_POINT('',(0.00675,0.,-0.00725));
#984=CARTESIAN_POINT('',(0.006914213562373,0.,-0.007085786437627));
#985=CARTESIAN_POINT('',(0.0055,0.,-0.005671572875254));
#986=CARTESIAN_POINT('',(0.0075,0.,-0.005671572875254));
#987=CARTESIAN_POINT('',(0.0075,0.,-0.0085));
#988=CARTESIAN_POINT('',(0.0075,0.,0.005671572875254));
#989=CARTESIAN_POINT('',(0.0055,0.,0.005671572875254));
#990=CARTESIAN_POINT('',(0.006914213562373,0.,0.007085786437627));
#991=CARTESIAN_POINT('',(0.00675,0.,0.00725));
#992=CARTESIAN_POINT('',(0.006085786437627,0.,0.007914213562373));
#993=CARTESIAN_POINT('',(0.004671572875254,0.,0.0065));
#994=CARTESIAN_POINT('',(0.004671572875254,0.,0.0085));
#995=CARTESIAN_POINT('',(0.0075,0.,0.0085));
#996=CARTESIAN_POINT('',(-0.004671572875254,0.,0.0085));
#997=CARTESIAN_POINT('',(-0.004671572875254,0.,0.0065));
#998=CARTESIAN_POINT('',(-0.006085786437627,0.,0.007914213562373));
#999=CARTESIAN_POINT('',(-0.00675,0.,0.00725));
#1000=CARTESIAN_POINT('',(-0.006914213562373,0.,0.007085786437627));
#1001=CARTESIAN_POINT('',(-0.0055,0.,0.005671572875254));
#1002=CARTESIAN_POINT('',(-0.0075,0.,0.005671572875254));
#1003=CARTESIAN_POINT('',(-0.0075,0.,0.0085));
#1004=CARTESIAN_POINT('',(-0.0075,0.,-0.005671572875254));
#1005=CARTESIAN_POINT('',(-0.0055,0.,-0.005671572875254));
#1006=CARTESIAN_POINT('',(-0.006914213562373,0.,-0.007085786437627));
#1007=CARTESIAN_POINT('',(-0.00675,0.,-0.00725));
#1008=CARTESIAN_POINT('',(-0.006085786437627,0.,-0.007914213562373));
#1009=CARTESIAN_POINT('',(-0.004671572875254,0.,-0.0065));
#1010=CARTESIAN_POINT('',(-0.006,0.,0.));
#1011=CARTESIAN_POINT('',(-0.005,0.,0.));
#1012=CARTESIAN_POINT('',(0.006,0.,0.));
#1013=CARTESIAN_POINT('',(0.007,0.,0.));
#1014=CARTESIAN_POINT('',(0.0019,0.,-0.00235));
#1015=CARTESIAN_POINT('',(0.0021,0.,-0.00235));
#1016=CARTESIAN_POINT('',(0.0021,-0.0009,-0.00235));
#1017=CARTESIAN_POINT('',(0.0019,-0.0009,-0.00235));
#1018=CARTESIAN_POINT('',(-0.0019,-0.0009,-0.00235));
#1019=CARTESIAN_POINT('',(-0.00205,-0.00095,-0.00235));
#1020=CARTESIAN_POINT('',(-0.002,-0.001,-0.00235));
#1021=CARTESIAN_POINT('',(-0.0019,-0.001,-0.00235));
#1022=CARTESIAN_POINT('',(-0.0021,0.,0.00255));
#1023=CARTESIAN_POINT('',(-0.0021,-0.0009,0.00235));
#1024=CARTESIAN_POINT('',(-0.0021,-0.0009,0.00235));
#1025=CARTESIAN_POINT('',(-0.0021,0.,0.00235));
#1026=CARTESIAN_POINT('',(0.,-0.001,0.));
#1027=CARTESIAN_POINT('',(0.0019,-0.001,0.00245));
#1028=CARTESIAN_POINT('',(0.0019,-0.001,0.00245));
#1029=CARTESIAN_POINT('',(-0.0019,-0.001,0.00245));
#1030=CARTESIAN_POINT('',(-0.0019,-0.001,0.00235));
#1031=CARTESIAN_POINT('',(-0.002,-0.001,0.00235));
#1032=CARTESIAN_POINT('',(-0.002,-0.001,0.00235));
#1033=CARTESIAN_POINT('',(0.0019,-0.001,-0.00235));
#1034=CARTESIAN_POINT('',(0.002,-0.001,-0.00235));
#1035=CARTESIAN_POINT('',(0.002,-0.001,-0.00235));
#1036=CARTESIAN_POINT('',(0.002,-0.001,0.00235));
#1037=CARTESIAN_POINT('',(0.0019,-0.001,0.00235));
#1038=CARTESIAN_POINT('',(0.0019,-0.0009,-0.00235));
#1039=CARTESIAN_POINT('',(0.0021,-0.0009,-0.00235));
#1040=CARTESIAN_POINT('',(0.0021,0.,-0.00255));
#1041=CARTESIAN_POINT('',(0.0021,0.,0.00235));
#1042=CARTESIAN_POINT('',(0.0021,-0.0009,0.00235));
#1043=CARTESIAN_POINT('',(0.0021,-0.0009,-0.00235));
#1044=CARTESIAN_POINT('',(-0.0019,0.,0.00235));
#1045=CARTESIAN_POINT('',(-0.0019,0.,0.00255));
#1046=CARTESIAN_POINT('',(-0.0019,-0.0009,0.00255));
#1047=CARTESIAN_POINT('',(-0.0019,-0.0009,0.00235));
#1048=CARTESIAN_POINT('',(0.0019,0.,0.00235));
#1049=CARTESIAN_POINT('',(0.0019,0.,0.00255));
#1050=CARTESIAN_POINT('',(0.0019,-0.0009,0.00255));
#1051=CARTESIAN_POINT('',(0.0019,-0.0009,0.00235));
#1052=CARTESIAN_POINT('',(0.0021,0.,0.00255));
#1053=CARTESIAN_POINT('',(0.0019,-0.0009,0.00255));
#1054=CARTESIAN_POINT('',(-0.0075,0.,-0.0085));
#1055=CARTESIAN_POINT('',(-0.004671572875254,0.,-0.0085));
#1056=CARTESIAN_POINT('',(-0.004671572875254,0.0016,-0.0085));
#1057=CARTESIAN_POINT('',(-0.0075,0.0016,-0.0085));
#1058=CARTESIAN_POINT('',(0.004671572875254,0.0016,-0.0085));
#1059=CARTESIAN_POINT('',(0.004671572875254,0.,-0.0085));
#1060=CARTESIAN_POINT('',(-0.004671572875254,0.,-0.0065));
#1061=CARTESIAN_POINT('',(-0.006085786437627,0.,-0.007914213562373));
#1062=CARTESIAN_POINT('',(-0.006085786437627,0.0016,-0.007914213562373));
#1063=CARTESIAN_POINT('',(-0.004671572875254,0.0016,-0.0065));
#1064=CARTESIAN_POINT('',(0.004671572875254,0.,-0.0065));
#1065=CARTESIAN_POINT('',(0.004671572875254,0.0016,-0.0065));
#1066=CARTESIAN_POINT('',(0.006085786437627,0.0016,-0.007914213562373));
#1067=CARTESIAN_POINT('',(0.006085786437627,0.,-0.007914213562373));
#1068=CARTESIAN_POINT('',(-0.0065,0.,-0.0075));
#1069=CARTESIAN_POINT('',(-0.006914213562373,0.,-0.007085786437627));
#1070=CARTESIAN_POINT('',(-0.006914213562373,0.0016,-0.007085786437627));
#1071=CARTESIAN_POINT('',(-0.00675,0.0016,-0.00725));
#1072=CARTESIAN_POINT('',(0.0065,0.,-0.0075));
#1073=CARTESIAN_POINT('',(0.00675,0.0016,-0.00725));
#1074=CARTESIAN_POINT('',(0.006914213562373,0.0016,-0.007085786437627));
#1075=CARTESIAN_POINT('',(0.006914213562373,0.,-0.007085786437627));
#1076=CARTESIAN_POINT('',(-0.0055,0.,-0.005671572875254));
#1077=CARTESIAN_POINT('',(-0.0075,0.,-0.005671572875254));
#1078=CARTESIAN_POINT('',(-0.0075,0.0016,-0.005671572875254));
#1079=CARTESIAN_POINT('',(-0.0055,0.0016,-0.005671572875254));
#1080=CARTESIAN_POINT('',(0.0055,0.,-0.005671572875254));
#1081=CARTESIAN_POINT('',(0.0055,0.0016,-0.005671572875254));
#1082=CARTESIAN_POINT('',(0.0075,0.0016,-0.005671572875254));
#1083=CARTESIAN_POINT('',(0.0075,0.,-0.005671572875254));
#1084=CARTESIAN_POINT('',(-0.0075,0.,0.0085));
#1085=CARTESIAN_POINT('',(-0.0075,0.,0.005671572875254));
#1086=CARTESIAN_POINT('',(-0.0075,0.0016,0.005671572875254));
#1087=CARTESIAN_POINT('',(-0.0075,0.0016,0.0085));
#1088=CARTESIAN_POINT('',(0.0075,0.,-0.0085));
#1089=CARTESIAN_POINT('',(0.0075,0.0016,-0.0085));
#1090=CARTESIAN_POINT('',(0.0075,0.0016,0.005671572875254));
#1091=CARTESIAN_POINT('',(0.0075,0.,0.005671572875254));
#1092=CARTESIAN_POINT('',(-0.0055,0.,0.005671572875254));
#1093=CARTESIAN_POINT('',(-0.006914213562373,0.,0.007085786437627));
#1094=CARTESIAN_POINT('',(-0.006914213562373,0.0016,0.007085786437627));
#1095=CARTESIAN_POINT('',(-0.0055,0.0016,0.005671572875254));
#1096=CARTESIAN_POINT('',(0.0055,0.,0.005671572875254));
#1097=CARTESIAN_POINT('',(0.0055,0.0016,0.005671572875254));
#1098=CARTESIAN_POINT('',(0.006914213562373,0.0016,0.007085786437627));
#1099=CARTESIAN_POINT('',(0.006914213562373,0.,0.007085786437627));
#1100=CARTESIAN_POINT('',(-0.0065,0.,0.0075));
#1101=CARTESIAN_POINT('',(-0.006085786437627,0.,0.007914213562373));
#1102=CARTESIAN_POINT('',(-0.006085786437627,0.0016,0.007914213562373));
#1103=CARTESIAN_POINT('',(-0.00675,0.0016,0.00725));
#1104=CARTESIAN_POINT('',(0.0065,0.,0.0075));
#1105=CARTESIAN_POINT('',(0.00675,0.0016,0.00725));
#1106=CARTESIAN_POINT('',(0.006085786437627,0.0016,0.007914213562373));
#1107=CARTESIAN_POINT('',(0.006085786437627,0.,0.007914213562373));
#1108=CARTESIAN_POINT('',(-0.004671572875254,0.,0.0065));
#1109=CARTESIAN_POINT('',(-0.004671572875254,0.,0.0085));
#1110=CARTESIAN_POINT('',(-0.004671572875254,0.0016,0.0085));
#1111=CARTESIAN_POINT('',(-0.004671572875254,0.0016,0.0065));
#1112=CARTESIAN_POINT('',(0.004671572875254,0.,0.0065));
#1113=CARTESIAN_POINT('',(0.004671572875254,0.0016,0.0065));
#1114=CARTESIAN_POINT('',(0.004671572875254,0.0016,0.0085));
#1115=CARTESIAN_POINT('',(0.004671572875254,0.,0.0085));
#1116=CARTESIAN_POINT('',(0.0075,0.,0.0085));
#1117=CARTESIAN_POINT('',(0.0075,0.0016,0.0085));
#1118=CARTESIAN_POINT('',(-0.006,0.,0.));
#1119=CARTESIAN_POINT('',(-0.006,0.0016,0.));
#1120=CARTESIAN_POINT('',(-0.005,0.0016,0.));
#1121=CARTESIAN_POINT('',(0.006,0.,0.));
#1122=CARTESIAN_POINT('',(0.006,0.0016,0.));
#1123=CARTESIAN_POINT('',(0.007,0.0016,0.));
#1124=CARTESIAN_POINT('',(-0.00205,-0.00095,0.00235));
#1125=CARTESIAN_POINT('',(-0.0021,-0.0009,0.00235));
#1126=CARTESIAN_POINT('',(0.0019,-0.00095,0.0025));
#1127=CARTESIAN_POINT('',(0.0019,-0.00095,0.0025));
#1128=CARTESIAN_POINT('',(-0.0019,-0.00095,0.0025));
#1129=CARTESIAN_POINT('',(0.0019,-0.0009,0.00235));
#1130=CARTESIAN_POINT('',(0.00205,-0.00095,0.00235));
#1131=CARTESIAN_POINT('',(-0.0019,-0.0009,0.00235));
#1132=CARTESIAN_POINT('',(0.00205,-0.00095,-0.00235));
#1133=CARTESIAN_POINT('',(5.E-20,0.0016,1.E-20));
#1134=MECHANICAL_DESIGN_GEOMETRIC_PRESENTATION_REPRESENTATION('',(#663),
#1135);
#1135=(
GEOMETRIC_REPRESENTATION_CONTEXT(3)
GLOBAL_UNCERTAINTY_ASSIGNED_CONTEXT((#1136))
GLOBAL_UNIT_ASSIGNED_CONTEXT((#1139,#1138,#1137))
REPRESENTATION_CONTEXT('MT6835','TOP_LEVEL_ASSEMBLY_PART')
);
#1136=UNCERTAINTY_MEASURE_WITH_UNIT(LENGTH_MEASURE(1.E-6),#1139,
'DISTANCE_ACCURACY_VALUE','Maximum Tolerance applied to model');
#1137=(
NAMED_UNIT(*)
SI_UNIT($,.STERADIAN.)
SOLID_ANGLE_UNIT()
);
#1138=(
NAMED_UNIT(*)
PLANE_ANGLE_UNIT()
SI_UNIT($,.RADIAN.)
);
#1139=(
LENGTH_UNIT()
NAMED_UNIT(*)
SI_UNIT($,.METRE.)
);
#1140=PRODUCT_DEFINITION_SHAPE('','',#1141);
#1141=PRODUCT_DEFINITION('','',#1143,#1142);
#1142=PRODUCT_DEFINITION_CONTEXT('',#1149,'design');
#1143=PRODUCT_DEFINITION_FORMATION_WITH_SPECIFIED_SOURCE('','',#1145,
 .NOT_KNOWN.);
#1144=PRODUCT_RELATED_PRODUCT_CATEGORY('','',(#1145));
#1145=PRODUCT('MT6835','MT6835','MT6835',(#1147));
#1146=PRODUCT_CATEGORY('','');
#1147=PRODUCT_CONTEXT('',#1149,'mechanical');
#1148=APPLICATION_PROTOCOL_DEFINITION('international standard',
'ap242_managed_model_based_3d_engineering',2020,#1149);
#1149=APPLICATION_CONTEXT('managed model based 3d engineering');
ENDSEC;
END-ISO-10303-21;
