ISO-10303-21;
HEADER;
/* Generated by software containing ST-Developer
 * from STEP Tools, Inc. (www.steptools.com) 
 */
/* OPTION: using custom renumber hook */

FILE_DESCRIPTION(
/* description */ ('STEP AP242 Edition 2',
'CAx-IF Rec.Pracs.---Representation and Presentation of Product Manufa
cturing Information (PMI)---4.0---2014-10-13',
'CAx-IF Rec.Pracs.---3D Tessellated Geometry---0.4---2014-09-14','2;1',
'CAx-IF Rec.Pracs.---User Defined Attributes---1.5---2016-08-15'),
/* implementation_level */ '2;1');

FILE_NAME(
/* name */ 'YagiUda - Part 2',
/* time_stamp */ '2026-08-19T13:03:56Z',
/* author */ (''),
/* organization */ (''),
/* preprocessor_version */ 'ST-DEVELOPER v20',
/* originating_system */ 'ONSHAPE BY PTC INC, 1.219',
/* authorisation */ '  ');

FILE_SCHEMA (('AP242_MANAGED_MODEL_BASED_3D_ENGINEERING_MIM_LF { 1 0 10303 442 3 1 4 }'));
ENDSEC;

DATA;
#10=SHAPE_REPRESENTATION_RELATIONSHIP('','',#157,#11);
#11=ADVANCED_BREP_SHAPE_REPRESENTATION('',(#155),#259);
#12=LINE('',#226,#22);
#13=LINE('',#229,#23);
#14=LINE('',#231,#24);
#15=LINE('',#233,#25);
#16=LINE('',#235,#26);
#17=LINE('',#237,#27);
#18=LINE('',#239,#28);
#19=LINE('',#243,#29);
#20=LINE('',#247,#30);
#21=LINE('',#248,#31);
#22=VECTOR('',#185,1.);
#23=VECTOR('',#186,1.);
#24=VECTOR('',#187,1.);
#25=VECTOR('',#188,1.);
#26=VECTOR('',#191,1.);
#27=VECTOR('',#192,1.);
#28=VECTOR('',#193,1.);
#29=VECTOR('',#198,1.);
#30=VECTOR('',#203,1.);
#31=VECTOR('',#204,1.);
#32=PLANE('',#162);
#33=PLANE('',#163);
#34=PLANE('',#167);
#35=PLANE('',#168);
#36=PLANE('',#169);
#37=PLANE('',#171);
#38=PLANE('',#174);
#39=ORIENTED_EDGE('',*,*,#71,.T.);
#40=ORIENTED_EDGE('',*,*,#72,.F.);
#41=ORIENTED_EDGE('',*,*,#73,.F.);
#42=ORIENTED_EDGE('',*,*,#74,.F.);
#43=ORIENTED_EDGE('',*,*,#75,.T.);
#44=ORIENTED_EDGE('',*,*,#76,.T.);
#45=ORIENTED_EDGE('',*,*,#77,.F.);
#46=ORIENTED_EDGE('',*,*,#78,.F.);
#47=ORIENTED_EDGE('',*,*,#79,.T.);
#48=ORIENTED_EDGE('',*,*,#74,.T.);
#49=ORIENTED_EDGE('',*,*,#80,.T.);
#50=ORIENTED_EDGE('',*,*,#81,.F.);
#51=ORIENTED_EDGE('',*,*,#82,.F.);
#52=ORIENTED_EDGE('',*,*,#78,.T.);
#53=ORIENTED_EDGE('',*,*,#83,.T.);
#54=ORIENTED_EDGE('',*,*,#76,.F.);
#55=ORIENTED_EDGE('',*,*,#84,.F.);
#56=ORIENTED_EDGE('',*,*,#81,.T.);
#57=ORIENTED_EDGE('',*,*,#75,.F.);
#58=ORIENTED_EDGE('',*,*,#79,.F.);
#59=ORIENTED_EDGE('',*,*,#82,.T.);
#60=ORIENTED_EDGE('',*,*,#84,.T.);
#61=ORIENTED_EDGE('',*,*,#71,.F.);
#62=ORIENTED_EDGE('',*,*,#73,.T.);
#63=ORIENTED_EDGE('',*,*,#83,.F.);
#64=ORIENTED_EDGE('',*,*,#80,.F.);
#65=ORIENTED_EDGE('',*,*,#77,.T.);
#66=ORIENTED_EDGE('',*,*,#85,.T.);
#67=ORIENTED_EDGE('',*,*,#86,.F.);
#68=ORIENTED_EDGE('',*,*,#86,.T.);
#69=ORIENTED_EDGE('',*,*,#85,.F.);
#70=ORIENTED_EDGE('',*,*,#72,.T.);
#71=EDGE_CURVE('',#87,#87,#99,.T.);
#72=EDGE_CURVE('',#88,#88,#100,.T.);
#73=EDGE_CURVE('',#89,#90,#12,.T.);
#74=EDGE_CURVE('',#91,#89,#13,.T.);
#75=EDGE_CURVE('',#91,#92,#14,.T.);
#76=EDGE_CURVE('',#92,#90,#15,.T.);
#77=EDGE_CURVE('',#93,#89,#16,.T.);
#78=EDGE_CURVE('',#94,#93,#17,.T.);
#79=EDGE_CURVE('',#94,#91,#18,.T.);
#80=EDGE_CURVE('',#93,#95,#101,.T.);
#81=EDGE_CURVE('',#96,#95,#19,.T.);
#82=EDGE_CURVE('',#94,#96,#102,.T.);
#83=EDGE_CURVE('',#95,#90,#20,.T.);
#84=EDGE_CURVE('',#96,#92,#21,.T.);
#85=EDGE_CURVE('',#97,#97,#103,.T.);
#86=EDGE_CURVE('',#98,#98,#104,.T.);
#87=VERTEX_POINT('',#222);
#88=VERTEX_POINT('',#224);
#89=VERTEX_POINT('',#227);
#90=VERTEX_POINT('',#228);
#91=VERTEX_POINT('',#230);
#92=VERTEX_POINT('',#232);
#93=VERTEX_POINT('',#236);
#94=VERTEX_POINT('',#238);
#95=VERTEX_POINT('',#242);
#96=VERTEX_POINT('',#244);
#97=VERTEX_POINT('',#252);
#98=VERTEX_POINT('',#255);
#99=CIRCLE('',#160,0.005);
#100=CIRCLE('',#161,0.005);
#101=CIRCLE('',#165,0.02);
#102=CIRCLE('',#166,0.02);
#103=CIRCLE('',#170,0.005);
#104=CIRCLE('',#172,0.005);
#105=EDGE_LOOP('',(#39));
#106=EDGE_LOOP('',(#40));
#107=EDGE_LOOP('',(#41,#42,#43,#44));
#108=EDGE_LOOP('',(#45,#46,#47,#48));
#109=EDGE_LOOP('',(#49,#50,#51,#52));
#110=EDGE_LOOP('',(#53,#54,#55,#56));
#111=EDGE_LOOP('',(#57,#58,#59,#60));
#112=EDGE_LOOP('',(#61));
#113=EDGE_LOOP('',(#62,#63,#64,#65));
#114=EDGE_LOOP('',(#66));
#115=EDGE_LOOP('',(#67));
#116=EDGE_LOOP('',(#68));
#117=EDGE_LOOP('',(#69));
#118=EDGE_LOOP('',(#70));
#119=FACE_BOUND('',#105,.T.);
#120=FACE_BOUND('',#106,.T.);
#121=FACE_BOUND('',#107,.T.);
#122=FACE_BOUND('',#108,.T.);
#123=FACE_BOUND('',#109,.T.);
#124=FACE_BOUND('',#110,.T.);
#125=FACE_BOUND('',#111,.T.);
#126=FACE_BOUND('',#112,.T.);
#127=FACE_BOUND('',#113,.T.);
#128=FACE_BOUND('',#114,.T.);
#129=FACE_BOUND('',#115,.T.);
#130=FACE_BOUND('',#116,.T.);
#131=FACE_BOUND('',#117,.T.);
#132=FACE_BOUND('',#118,.T.);
#133=CYLINDRICAL_SURFACE('',#159,0.005);
#134=CYLINDRICAL_SURFACE('',#164,0.02);
#135=CYLINDRICAL_SURFACE('',#173,0.005);
#136=ADVANCED_FACE('',(#119,#120),#133,.F.);
#137=ADVANCED_FACE('',(#121),#32,.T.);
#138=ADVANCED_FACE('',(#122),#33,.T.);
#139=ADVANCED_FACE('',(#123),#134,.T.);
#140=ADVANCED_FACE('',(#124),#34,.F.);
#141=ADVANCED_FACE('',(#125,#126),#35,.T.);
#142=ADVANCED_FACE('',(#127,#128),#36,.F.);
#143=ADVANCED_FACE('',(#129),#37,.T.);
#144=ADVANCED_FACE('',(#130,#131),#135,.T.);
#145=ADVANCED_FACE('',(#132),#38,.F.);
#146=CLOSED_SHELL('',(#136,#137,#138,#139,#140,#141,#142,#143,#144,#145));
#147=STYLED_ITEM('',(#148),#155);
#148=PRESENTATION_STYLE_ASSIGNMENT((#149));
#149=SURFACE_STYLE_USAGE(.BOTH.,#150);
#150=SURFACE_SIDE_STYLE('',(#151));
#151=SURFACE_STYLE_FILL_AREA(#152);
#152=FILL_AREA_STYLE('',(#153));
#153=FILL_AREA_STYLE_COLOUR('',#154);
#154=COLOUR_RGB('',0.647058823529412,0.647058823529412,0.647058823529412);
#155=MANIFOLD_SOLID_BREP('Part 2',#146);
#156=SHAPE_DEFINITION_REPRESENTATION(#264,#157);
#157=SHAPE_REPRESENTATION('Part 2',(#158),#259);
#158=AXIS2_PLACEMENT_3D('',#219,#175,#176);
#159=AXIS2_PLACEMENT_3D('',#220,#177,#178);
#160=AXIS2_PLACEMENT_3D('',#221,#179,#180);
#161=AXIS2_PLACEMENT_3D('',#223,#181,#182);
#162=AXIS2_PLACEMENT_3D('',#225,#183,#184);
#163=AXIS2_PLACEMENT_3D('',#234,#189,#190);
#164=AXIS2_PLACEMENT_3D('',#240,#194,#195);
#165=AXIS2_PLACEMENT_3D('',#241,#196,#197);
#166=AXIS2_PLACEMENT_3D('',#245,#199,#200);
#167=AXIS2_PLACEMENT_3D('',#246,#201,#202);
#168=AXIS2_PLACEMENT_3D('',#249,#205,#206);
#169=AXIS2_PLACEMENT_3D('',#250,#207,#208);
#170=AXIS2_PLACEMENT_3D('',#251,#209,#210);
#171=AXIS2_PLACEMENT_3D('',#253,#211,#212);
#172=AXIS2_PLACEMENT_3D('',#254,#213,#214);
#173=AXIS2_PLACEMENT_3D('',#256,#215,#216);
#174=AXIS2_PLACEMENT_3D('',#257,#217,#218);
#175=DIRECTION('',(0.,0.,1.));
#176=DIRECTION('',(1.,0.,0.));
#177=DIRECTION('',(-1.,0.,0.));
#178=DIRECTION('',(0.,0.,1.));
#179=DIRECTION('',(1.,0.,0.));
#180=DIRECTION('',(0.,0.,-1.));
#181=DIRECTION('',(1.,0.,0.));
#182=DIRECTION('',(0.,0.,-1.));
#183=DIRECTION('',(0.,0.,1.));
#184=DIRECTION('',(1.,0.,0.));
#185=DIRECTION('',(0.,1.,0.));
#186=DIRECTION('',(-1.,0.,0.));
#187=DIRECTION('',(0.,1.,0.));
#188=DIRECTION('',(-1.,0.,0.));
#189=DIRECTION('',(0.,-0.500855883516558,-0.865530694976699));
#190=DIRECTION('',(0.,0.865530694976699,-0.500855883516558));
#191=DIRECTION('',(0.,-0.865530694976699,0.500855883516558));
#192=DIRECTION('',(-1.,0.,0.));
#193=DIRECTION('',(0.,-0.865530694976699,0.500855883516558));
#194=DIRECTION('',(-1.,0.,0.));
#195=DIRECTION('',(0.,0.,1.));
#196=DIRECTION('',(1.,0.,0.));
#197=DIRECTION('',(0.,0.,-1.));
#198=DIRECTION('',(-1.,0.,0.));
#199=DIRECTION('',(1.,0.,0.));
#200=DIRECTION('',(0.,0.,-1.));
#201=DIRECTION('',(0.,-0.500855883516558,0.865530694976699));
#202=DIRECTION('',(0.,-0.865530694976699,-0.500855883516558));
#203=DIRECTION('',(0.,0.865530694976699,0.500855883516558));
#204=DIRECTION('',(0.,0.865530694976699,0.500855883516558));
#205=DIRECTION('',(1.,0.,0.));
#206=DIRECTION('',(0.,1.,0.));
#207=DIRECTION('',(1.,0.,0.));
#208=DIRECTION('',(0.,1.,0.));
#209=DIRECTION('',(1.,0.,0.));
#210=DIRECTION('',(0.,0.,-1.));
#211=DIRECTION('',(-1.,0.,0.));
#212=DIRECTION('',(0.,-1.,0.));
#213=DIRECTION('',(1.,0.,0.));
#214=DIRECTION('',(0.,0.,-1.));
#215=DIRECTION('',(1.,0.,0.));
#216=DIRECTION('',(0.,0.,-1.));
#217=DIRECTION('',(-1.,0.,0.));
#218=DIRECTION('',(0.,-1.,0.));
#219=CARTESIAN_POINT('',(0.,0.,0.));
#220=CARTESIAN_POINT('',(0.0125,-1.7347234759768E-18,-0.0184194663640075));
#221=CARTESIAN_POINT('',(0.0125,-1.7347234759768E-18,-0.0184194663640075));
#222=CARTESIAN_POINT('',(0.0125,-1.7347234759768E-18,-0.0234194663640075));
#223=CARTESIAN_POINT('',(0.,-1.7347234759768E-18,-0.0184194663640075));
#224=CARTESIAN_POINT('',(0.,-1.7347234759768E-18,-0.0234194663640075));
#225=CARTESIAN_POINT('',(0.0125,-2.77555756156289E-17,-0.005));
#226=CARTESIAN_POINT('',(-0.0125,-2.77555756156289E-17,-0.005));
#227=CARTESIAN_POINT('',(-0.0125,-0.0631218701601028,-0.005));
#228=CARTESIAN_POINT('',(-0.0125,0.0631218701601029,-0.005));
#229=CARTESIAN_POINT('',(0.0125,-0.0631218701601028,-0.005));
#230=CARTESIAN_POINT('',(0.0125,-0.0631218701601028,-0.005));
#231=CARTESIAN_POINT('',(0.0125,-2.77555756156289E-17,-0.005));
#232=CARTESIAN_POINT('',(0.0125,0.0631218701601029,-0.005));
#233=CARTESIAN_POINT('',(0.0125,0.0631218701601029,-0.005));
#234=CARTESIAN_POINT('',(0.0125,-0.036569493915217,-0.0203650401317707));
#235=CARTESIAN_POINT('',(-0.0125,-0.036569493915217,-0.0203650401317707));
#236=CARTESIAN_POINT('',(-0.0125,-0.0100171176703312,-0.0357300802635414));
#237=CARTESIAN_POINT('',(0.0125,-0.0100171176703312,-0.0357300802635414));
#238=CARTESIAN_POINT('',(0.0125,-0.0100171176703312,-0.0357300802635414));
#239=CARTESIAN_POINT('',(0.0125,-0.036569493915217,-0.0203650401317707));
#240=CARTESIAN_POINT('',(0.0125,-8.67361737988404E-19,-0.0184194663640075));
#241=CARTESIAN_POINT('',(-0.0125,-8.67361737988404E-19,-0.0184194663640075));
#242=CARTESIAN_POINT('',(-0.0125,0.0100171176703312,-0.0357300802635414));
#243=CARTESIAN_POINT('',(0.0125,0.0100171176703312,-0.0357300802635414));
#244=CARTESIAN_POINT('',(0.0125,0.0100171176703312,-0.0357300802635414));
#245=CARTESIAN_POINT('',(0.0125,-8.67361737988404E-19,-0.0184194663640075));
#246=CARTESIAN_POINT('',(0.0125,0.036569493915217,-0.0203650401317707));
#247=CARTESIAN_POINT('',(-0.0125,0.036569493915217,-0.0203650401317707));
#248=CARTESIAN_POINT('',(0.0125,0.036569493915217,-0.0203650401317707));
#249=CARTESIAN_POINT('',(0.0125,0.,-0.0217097331820037));
#250=CARTESIAN_POINT('',(-0.0125,0.,-0.0217097331820037));
#251=CARTESIAN_POINT('',(-0.0125,-1.7347234759768E-18,-0.0184194663640075));
#252=CARTESIAN_POINT('',(-0.0125,-1.7347234759768E-18,-0.0234194663640075));
#253=CARTESIAN_POINT('',(-0.03,1.38777878078145E-17,-0.0217097331820037));
#254=CARTESIAN_POINT('',(-0.03,-1.7347234759768E-18,-0.0184194663640075));
#255=CARTESIAN_POINT('',(-0.03,-1.7347234759768E-18,-0.0234194663640075));
#256=CARTESIAN_POINT('',(-0.03,-1.7347234759768E-18,-0.0184194663640075));
#257=CARTESIAN_POINT('',(0.,1.38777878078145E-17,-0.0217097331820037));
#258=MECHANICAL_DESIGN_GEOMETRIC_PRESENTATION_REPRESENTATION('',(#147),
#259);
#259=(
GEOMETRIC_REPRESENTATION_CONTEXT(3)
GLOBAL_UNCERTAINTY_ASSIGNED_CONTEXT((#260))
GLOBAL_UNIT_ASSIGNED_CONTEXT((#263,#262,#261))
REPRESENTATION_CONTEXT('Part 2','TOP_LEVEL_ASSEMBLY_PART')
);
#260=UNCERTAINTY_MEASURE_WITH_UNIT(LENGTH_MEASURE(1.E-8),#263,
'DISTANCE_ACCURACY_VALUE','Maximum Tolerance applied to model');
#261=(
NAMED_UNIT(*)
SI_UNIT($,.STERADIAN.)
SOLID_ANGLE_UNIT()
);
#262=(
NAMED_UNIT(*)
PLANE_ANGLE_UNIT()
SI_UNIT($,.RADIAN.)
);
#263=(
LENGTH_UNIT()
NAMED_UNIT(*)
SI_UNIT($,.METRE.)
);
#264=PRODUCT_DEFINITION_SHAPE('','',#265);
#265=PRODUCT_DEFINITION('','',#267,#266);
#266=PRODUCT_DEFINITION_CONTEXT('',#273,'design');
#267=PRODUCT_DEFINITION_FORMATION_WITH_SPECIFIED_SOURCE('','',#269,
 .NOT_KNOWN.);
#268=PRODUCT_RELATED_PRODUCT_CATEGORY('','',(#269));
#269=PRODUCT('Part 2','Part 2','Part 2',(#271));
#270=PRODUCT_CATEGORY('','');
#271=PRODUCT_CONTEXT('',#273,'mechanical');
#272=APPLICATION_PROTOCOL_DEFINITION('international standard',
'ap242_managed_model_based_3d_engineering',2020,#273);
#273=APPLICATION_CONTEXT('managed model based 3d engineering');
ENDSEC;
END-ISO-10303-21;
