ISO-10303-21;
HEADER;
/* Generated by software containing ST-Developer
 * from STEP Tools, Inc. (www.steptools.com) 
 */
/* OPTION: using custom renumber hook */

FILE_DESCRIPTION(
/* description */ ('STEP AP242 Edition 2',
'CAx-IF Rec.Pracs.---Representation and Presentation of Product Manufa
cturing Information (PMI)---4.0---2014-10-13',
'CAx-IF Rec.Pracs.---3D Tessellated Geometry---0.4---2014-09-14','2;1',
'CAx-IF Rec.Pracs.---User Defined Attributes---1.5---2016-08-15'),
/* implementation_level */ '2;1');

FILE_NAME(
/* name */ 'RollArm Copy 1',
/* time_stamp */ '2026-08-19T13:02:33Z',
/* author */ (''),
/* organization */ (''),
/* preprocessor_version */ 'ST-DEVELOPER v20',
/* originating_system */ 'ONSHAPE BY PTC INC, 1.219',
/* authorisation */ '  ');

FILE_SCHEMA (('AP242_MANAGED_MODEL_BASED_3D_ENGINEERING_MIM_LF { 1 0 10303 442 3 1 4 }'));
ENDSEC;

DATA;
#10=SHAPE_REPRESENTATION_RELATIONSHIP('','',#618,#11);
#11=ADVANCED_BREP_SHAPE_REPRESENTATION('',(#616),#1019);
#12=CYLINDRICAL_SURFACE('',#634,0.0175);
#13=CYLINDRICAL_SURFACE('',#642,0.0175);
#14=CYLINDRICAL_SURFACE('',#646,0.0125);
#15=CYLINDRICAL_SURFACE('',#650,0.0175);
#16=CYLINDRICAL_SURFACE('',#657,0.0125);
#17=CYLINDRICAL_SURFACE('',#665,0.00162615420281078);
#18=CYLINDRICAL_SURFACE('',#667,0.00150000000000005);
#19=CYLINDRICAL_SURFACE('',#669,0.00150000000000005);
#20=CYLINDRICAL_SURFACE('',#671,0.0110000000000003);
#21=CYLINDRICAL_SURFACE('',#673,0.00162615420281078);
#22=CYLINDRICAL_SURFACE('',#676,0.014125);
#23=CYLINDRICAL_SURFACE('',#677,0.0125);
#24=CIRCLE('',#626,0.0175);
#25=CIRCLE('',#627,0.0110000000000003);
#26=CIRCLE('',#628,0.00150000000000005);
#27=CIRCLE('',#629,0.00150000000000005);
#28=CIRCLE('',#630,0.00162615420281078);
#29=CIRCLE('',#631,0.00162615420281078);
#30=CIRCLE('',#633,0.0125);
#31=CIRCLE('',#635,0.0175);
#32=CIRCLE('',#636,0.0175);
#33=CIRCLE('',#637,0.0175);
#34=CIRCLE('',#639,0.0125);
#35=CIRCLE('',#643,0.0175);
#36=CIRCLE('',#645,0.0125);
#37=CIRCLE('',#648,0.014125);
#38=CIRCLE('',#649,0.0175);
#39=CIRCLE('',#651,0.0175);
#40=CIRCLE('',#653,0.014125);
#41=CIRCLE('',#654,0.0125);
#42=CIRCLE('',#656,0.0125);
#43=CIRCLE('',#666,0.00162615420281078);
#44=CIRCLE('',#668,0.00150000000000005);
#45=CIRCLE('',#670,0.00150000000000005);
#46=CIRCLE('',#672,0.0110000000000003);
#47=CIRCLE('',#674,0.00162615420281078);
#48=CIRCLE('',#678,0.0125);
#49=ORIENTED_EDGE('',*,*,#199,.F.);
#50=ORIENTED_EDGE('',*,*,#200,.T.);
#51=ORIENTED_EDGE('',*,*,#201,.F.);
#52=ORIENTED_EDGE('',*,*,#202,.F.);
#53=ORIENTED_EDGE('',*,*,#200,.F.);
#54=ORIENTED_EDGE('',*,*,#203,.T.);
#55=ORIENTED_EDGE('',*,*,#204,.T.);
#56=ORIENTED_EDGE('',*,*,#205,.T.);
#57=ORIENTED_EDGE('',*,*,#206,.F.);
#58=ORIENTED_EDGE('',*,*,#207,.T.);
#59=ORIENTED_EDGE('',*,*,#202,.T.);
#60=ORIENTED_EDGE('',*,*,#208,.T.);
#61=ORIENTED_EDGE('',*,*,#209,.F.);
#62=ORIENTED_EDGE('',*,*,#210,.F.);
#63=ORIENTED_EDGE('',*,*,#211,.F.);
#64=ORIENTED_EDGE('',*,*,#212,.T.);
#65=ORIENTED_EDGE('',*,*,#213,.F.);
#66=ORIENTED_EDGE('',*,*,#214,.F.);
#67=ORIENTED_EDGE('',*,*,#215,.T.);
#68=ORIENTED_EDGE('',*,*,#216,.T.);
#69=ORIENTED_EDGE('',*,*,#217,.T.);
#70=ORIENTED_EDGE('',*,*,#204,.F.);
#71=ORIENTED_EDGE('',*,*,#218,.T.);
#72=ORIENTED_EDGE('',*,*,#219,.T.);
#73=ORIENTED_EDGE('',*,*,#206,.T.);
#74=ORIENTED_EDGE('',*,*,#220,.F.);
#75=ORIENTED_EDGE('',*,*,#221,.F.);
#76=ORIENTED_EDGE('',*,*,#222,.F.);
#77=ORIENTED_EDGE('',*,*,#223,.T.);
#78=ORIENTED_EDGE('',*,*,#224,.T.);
#79=ORIENTED_EDGE('',*,*,#225,.F.);
#80=ORIENTED_EDGE('',*,*,#226,.T.);
#81=ORIENTED_EDGE('',*,*,#210,.T.);
#82=ORIENTED_EDGE('',*,*,#227,.T.);
#83=ORIENTED_EDGE('',*,*,#228,.F.);
#84=ORIENTED_EDGE('',*,*,#229,.F.);
#85=ORIENTED_EDGE('',*,*,#230,.T.);
#86=ORIENTED_EDGE('',*,*,#231,.F.);
#87=ORIENTED_EDGE('',*,*,#232,.T.);
#88=ORIENTED_EDGE('',*,*,#233,.T.);
#89=ORIENTED_EDGE('',*,*,#218,.F.);
#90=ORIENTED_EDGE('',*,*,#234,.F.);
#91=ORIENTED_EDGE('',*,*,#235,.F.);
#92=ORIENTED_EDGE('',*,*,#236,.F.);
#93=ORIENTED_EDGE('',*,*,#237,.F.);
#94=ORIENTED_EDGE('',*,*,#238,.F.);
#95=ORIENTED_EDGE('',*,*,#239,.F.);
#96=ORIENTED_EDGE('',*,*,#240,.T.);
#97=ORIENTED_EDGE('',*,*,#205,.F.);
#98=ORIENTED_EDGE('',*,*,#217,.F.);
#99=ORIENTED_EDGE('',*,*,#241,.T.);
#100=ORIENTED_EDGE('',*,*,#220,.T.);
#101=ORIENTED_EDGE('',*,*,#208,.F.);
#102=ORIENTED_EDGE('',*,*,#201,.T.);
#103=ORIENTED_EDGE('',*,*,#242,.T.);
#104=ORIENTED_EDGE('',*,*,#243,.F.);
#105=ORIENTED_EDGE('',*,*,#244,.F.);
#106=ORIENTED_EDGE('',*,*,#245,.F.);
#107=ORIENTED_EDGE('',*,*,#242,.F.);
#108=ORIENTED_EDGE('',*,*,#221,.T.);
#109=ORIENTED_EDGE('',*,*,#241,.F.);
#110=ORIENTED_EDGE('',*,*,#216,.F.);
#111=ORIENTED_EDGE('',*,*,#243,.T.);
#112=ORIENTED_EDGE('',*,*,#222,.T.);
#113=ORIENTED_EDGE('',*,*,#244,.T.);
#114=ORIENTED_EDGE('',*,*,#215,.F.);
#115=ORIENTED_EDGE('',*,*,#246,.T.);
#116=ORIENTED_EDGE('',*,*,#234,.T.);
#117=ORIENTED_EDGE('',*,*,#226,.F.);
#118=ORIENTED_EDGE('',*,*,#247,.F.);
#119=ORIENTED_EDGE('',*,*,#211,.T.);
#120=ORIENTED_EDGE('',*,*,#248,.F.);
#121=ORIENTED_EDGE('',*,*,#248,.T.);
#122=ORIENTED_EDGE('',*,*,#240,.F.);
#123=ORIENTED_EDGE('',*,*,#249,.T.);
#124=ORIENTED_EDGE('',*,*,#212,.F.);
#125=ORIENTED_EDGE('',*,*,#247,.T.);
#126=ORIENTED_EDGE('',*,*,#225,.T.);
#127=ORIENTED_EDGE('',*,*,#250,.F.);
#128=ORIENTED_EDGE('',*,*,#250,.T.);
#129=ORIENTED_EDGE('',*,*,#224,.F.);
#130=ORIENTED_EDGE('',*,*,#251,.F.);
#131=ORIENTED_EDGE('',*,*,#213,.T.);
#132=ORIENTED_EDGE('',*,*,#252,.F.);
#133=ORIENTED_EDGE('',*,*,#223,.F.);
#134=ORIENTED_EDGE('',*,*,#246,.F.);
#135=ORIENTED_EDGE('',*,*,#214,.T.);
#136=ORIENTED_EDGE('',*,*,#251,.T.);
#137=ORIENTED_EDGE('',*,*,#253,.F.);
#138=ORIENTED_EDGE('',*,*,#254,.T.);
#139=ORIENTED_EDGE('',*,*,#253,.T.);
#140=ORIENTED_EDGE('',*,*,#254,.F.);
#141=ORIENTED_EDGE('',*,*,#219,.F.);
#142=ORIENTED_EDGE('',*,*,#233,.F.);
#143=ORIENTED_EDGE('',*,*,#255,.F.);
#144=ORIENTED_EDGE('',*,*,#256,.T.);
#145=ORIENTED_EDGE('',*,*,#227,.F.);
#146=ORIENTED_EDGE('',*,*,#209,.T.);
#147=ORIENTED_EDGE('',*,*,#257,.T.);
#148=ORIENTED_EDGE('',*,*,#258,.T.);
#149=ORIENTED_EDGE('',*,*,#228,.T.);
#150=ORIENTED_EDGE('',*,*,#258,.F.);
#151=ORIENTED_EDGE('',*,*,#259,.F.);
#152=ORIENTED_EDGE('',*,*,#260,.T.);
#153=ORIENTED_EDGE('',*,*,#229,.T.);
#154=ORIENTED_EDGE('',*,*,#260,.F.);
#155=ORIENTED_EDGE('',*,*,#261,.F.);
#156=ORIENTED_EDGE('',*,*,#262,.T.);
#157=ORIENTED_EDGE('',*,*,#230,.F.);
#158=ORIENTED_EDGE('',*,*,#262,.F.);
#159=ORIENTED_EDGE('',*,*,#263,.T.);
#160=ORIENTED_EDGE('',*,*,#264,.T.);
#161=ORIENTED_EDGE('',*,*,#231,.T.);
#162=ORIENTED_EDGE('',*,*,#264,.F.);
#163=ORIENTED_EDGE('',*,*,#265,.F.);
#164=ORIENTED_EDGE('',*,*,#266,.T.);
#165=ORIENTED_EDGE('',*,*,#232,.F.);
#166=ORIENTED_EDGE('',*,*,#266,.F.);
#167=ORIENTED_EDGE('',*,*,#267,.T.);
#168=ORIENTED_EDGE('',*,*,#255,.T.);
#169=ORIENTED_EDGE('',*,*,#268,.F.);
#170=ORIENTED_EDGE('',*,*,#238,.T.);
#171=ORIENTED_EDGE('',*,*,#269,.F.);
#172=ORIENTED_EDGE('',*,*,#237,.T.);
#173=ORIENTED_EDGE('',*,*,#270,.F.);
#174=ORIENTED_EDGE('',*,*,#236,.T.);
#175=ORIENTED_EDGE('',*,*,#271,.F.);
#176=ORIENTED_EDGE('',*,*,#235,.T.);
#177=ORIENTED_EDGE('',*,*,#272,.F.);
#178=ORIENTED_EDGE('',*,*,#239,.T.);
#179=ORIENTED_EDGE('',*,*,#271,.T.);
#180=ORIENTED_EDGE('',*,*,#199,.T.);
#181=ORIENTED_EDGE('',*,*,#207,.F.);
#182=ORIENTED_EDGE('',*,*,#256,.F.);
#183=ORIENTED_EDGE('',*,*,#267,.F.);
#184=ORIENTED_EDGE('',*,*,#265,.T.);
#185=ORIENTED_EDGE('',*,*,#263,.F.);
#186=ORIENTED_EDGE('',*,*,#261,.T.);
#187=ORIENTED_EDGE('',*,*,#259,.T.);
#188=ORIENTED_EDGE('',*,*,#257,.F.);
#189=ORIENTED_EDGE('',*,*,#203,.F.);
#190=ORIENTED_EDGE('',*,*,#270,.T.);
#191=ORIENTED_EDGE('',*,*,#269,.T.);
#192=ORIENTED_EDGE('',*,*,#268,.T.);
#193=ORIENTED_EDGE('',*,*,#272,.T.);
#194=ORIENTED_EDGE('',*,*,#252,.T.);
#195=ORIENTED_EDGE('',*,*,#249,.F.);
#196=ORIENTED_EDGE('',*,*,#273,.T.);
#197=ORIENTED_EDGE('',*,*,#245,.T.);
#198=ORIENTED_EDGE('',*,*,#273,.F.);
#199=EDGE_CURVE('',#274,#275,#329,.T.);
#200=EDGE_CURVE('',#274,#276,#330,.T.);
#201=EDGE_CURVE('',#277,#276,#331,.T.);
#202=EDGE_CURVE('',#275,#277,#332,.T.);
#203=EDGE_CURVE('',#274,#278,#333,.T.);
#204=EDGE_CURVE('',#278,#279,#334,.T.);
#205=EDGE_CURVE('',#279,#276,#335,.T.);
#206=EDGE_CURVE('',#280,#281,#336,.T.);
#207=EDGE_CURVE('',#280,#275,#337,.T.);
#208=EDGE_CURVE('',#277,#281,#338,.T.);
#209=EDGE_CURVE('',#282,#278,#339,.T.);
#210=EDGE_CURVE('',#283,#282,#340,.T.);
#211=EDGE_CURVE('',#284,#283,#341,.T.);
#212=EDGE_CURVE('',#284,#285,#342,.T.);
#213=EDGE_CURVE('',#286,#285,#343,.T.);
#214=EDGE_CURVE('',#287,#286,#344,.T.);
#215=EDGE_CURVE('',#287,#288,#345,.T.);
#216=EDGE_CURVE('',#288,#289,#346,.T.);
#217=EDGE_CURVE('',#289,#279,#347,.T.);
#218=EDGE_CURVE('',#290,#291,#348,.T.);
#219=EDGE_CURVE('',#291,#280,#349,.T.);
#220=EDGE_CURVE('',#292,#281,#350,.T.);
#221=EDGE_CURVE('',#293,#292,#351,.T.);
#222=EDGE_CURVE('',#294,#293,#352,.T.);
#223=EDGE_CURVE('',#294,#295,#353,.T.);
#224=EDGE_CURVE('',#295,#296,#354,.T.);
#225=EDGE_CURVE('',#297,#296,#355,.T.);
#226=EDGE_CURVE('',#297,#290,#356,.T.);
#227=EDGE_CURVE('',#282,#298,#357,.T.);
#228=EDGE_CURVE('',#299,#298,#358,.T.);
#229=EDGE_CURVE('',#300,#299,#359,.T.);
#230=EDGE_CURVE('',#300,#301,#360,.T.);
#231=EDGE_CURVE('',#302,#301,#361,.T.);
#232=EDGE_CURVE('',#302,#303,#362,.T.);
#233=EDGE_CURVE('',#303,#291,#363,.T.);
#234=EDGE_CURVE('',#283,#290,#24,.T.);
#235=EDGE_CURVE('',#304,#304,#25,.F.);
#236=EDGE_CURVE('',#305,#305,#26,.T.);
#237=EDGE_CURVE('',#306,#306,#27,.T.);
#238=EDGE_CURVE('',#307,#307,#28,.T.);
#239=EDGE_CURVE('',#308,#308,#29,.T.);
#240=EDGE_CURVE('',#309,#309,#30,.T.);
#241=EDGE_CURVE('',#289,#292,#364,.T.);
#242=EDGE_CURVE('',#310,#310,#31,.T.);
#243=EDGE_CURVE('',#288,#293,#32,.T.);
#244=EDGE_CURVE('',#293,#288,#33,.T.);
#245=EDGE_CURVE('',#311,#311,#34,.F.);
#246=EDGE_CURVE('',#287,#294,#365,.T.);
#247=EDGE_CURVE('',#284,#297,#35,.T.);
#248=EDGE_CURVE('',#312,#312,#36,.T.);
#249=EDGE_CURVE('',#313,#313,#37,.T.);
#250=EDGE_CURVE('',#285,#296,#38,.T.);
#251=EDGE_CURVE('',#286,#295,#39,.T.);
#252=EDGE_CURVE('',#314,#314,#40,.T.);
#253=EDGE_CURVE('',#315,#315,#41,.T.);
#254=EDGE_CURVE('',#316,#316,#42,.T.);
#255=EDGE_CURVE('',#317,#303,#366,.T.);
#256=EDGE_CURVE('',#317,#280,#367,.T.);
#257=EDGE_CURVE('',#278,#318,#368,.T.);
#258=EDGE_CURVE('',#318,#298,#369,.T.);
#259=EDGE_CURVE('',#319,#318,#370,.T.);
#260=EDGE_CURVE('',#319,#299,#371,.T.);
#261=EDGE_CURVE('',#320,#319,#372,.T.);
#262=EDGE_CURVE('',#320,#300,#373,.T.);
#263=EDGE_CURVE('',#320,#321,#374,.T.);
#264=EDGE_CURVE('',#321,#301,#375,.T.);
#265=EDGE_CURVE('',#322,#321,#376,.T.);
#266=EDGE_CURVE('',#322,#302,#377,.T.);
#267=EDGE_CURVE('',#322,#317,#378,.T.);
#268=EDGE_CURVE('',#323,#323,#43,.T.);
#269=EDGE_CURVE('',#324,#324,#44,.T.);
#270=EDGE_CURVE('',#325,#325,#45,.T.);
#271=EDGE_CURVE('',#326,#326,#46,.F.);
#272=EDGE_CURVE('',#327,#327,#47,.T.);
#273=EDGE_CURVE('',#328,#328,#48,.T.);
#274=VERTEX_POINT('',#855);
#275=VERTEX_POINT('',#856);
#276=VERTEX_POINT('',#858);
#277=VERTEX_POINT('',#860);
#278=VERTEX_POINT('',#864);
#279=VERTEX_POINT('',#866);
#280=VERTEX_POINT('',#870);
#281=VERTEX_POINT('',#871);
#282=VERTEX_POINT('',#876);
#283=VERTEX_POINT('',#878);
#284=VERTEX_POINT('',#880);
#285=VERTEX_POINT('',#882);
#286=VERTEX_POINT('',#884);
#287=VERTEX_POINT('',#886);
#288=VERTEX_POINT('',#888);
#289=VERTEX_POINT('',#890);
#290=VERTEX_POINT('',#894);
#291=VERTEX_POINT('',#895);
#292=VERTEX_POINT('',#898);
#293=VERTEX_POINT('',#900);
#294=VERTEX_POINT('',#902);
#295=VERTEX_POINT('',#904);
#296=VERTEX_POINT('',#906);
#297=VERTEX_POINT('',#908);
#298=VERTEX_POINT('',#912);
#299=VERTEX_POINT('',#914);
#300=VERTEX_POINT('',#916);
#301=VERTEX_POINT('',#918);
#302=VERTEX_POINT('',#920);
#303=VERTEX_POINT('',#922);
#304=VERTEX_POINT('',#926);
#305=VERTEX_POINT('',#928);
#306=VERTEX_POINT('',#930);
#307=VERTEX_POINT('',#932);
#308=VERTEX_POINT('',#934);
#309=VERTEX_POINT('',#937);
#310=VERTEX_POINT('',#941);
#311=VERTEX_POINT('',#946);
#312=VERTEX_POINT('',#954);
#313=VERTEX_POINT('',#958);
#314=VERTEX_POINT('',#964);
#315=VERTEX_POINT('',#966);
#316=VERTEX_POINT('',#969);
#317=VERTEX_POINT('',#973);
#318=VERTEX_POINT('',#977);
#319=VERTEX_POINT('',#981);
#320=VERTEX_POINT('',#985);
#321=VERTEX_POINT('',#989);
#322=VERTEX_POINT('',#993);
#323=VERTEX_POINT('',#999);
#324=VERTEX_POINT('',#1002);
#325=VERTEX_POINT('',#1005);
#326=VERTEX_POINT('',#1008);
#327=VERTEX_POINT('',#1011);
#328=VERTEX_POINT('',#1016);
#329=LINE('',#854,#379);
#330=LINE('',#857,#380);
#331=LINE('',#859,#381);
#332=LINE('',#861,#382);
#333=LINE('',#863,#383);
#334=LINE('',#865,#384);
#335=LINE('',#867,#385);
#336=LINE('',#869,#386);
#337=LINE('',#872,#387);
#338=LINE('',#873,#388);
#339=LINE('',#875,#389);
#340=LINE('',#877,#390);
#341=LINE('',#879,#391);
#342=LINE('',#881,#392);
#343=LINE('',#883,#393);
#344=LINE('',#885,#394);
#345=LINE('',#887,#395);
#346=LINE('',#889,#396);
#347=LINE('',#891,#397);
#348=LINE('',#893,#398);
#349=LINE('',#896,#399);
#350=LINE('',#897,#400);
#351=LINE('',#899,#401);
#352=LINE('',#901,#402);
#353=LINE('',#903,#403);
#354=LINE('',#905,#404);
#355=LINE('',#907,#405);
#356=LINE('',#909,#406);
#357=LINE('',#911,#407);
#358=LINE('',#913,#408);
#359=LINE('',#915,#409);
#360=LINE('',#917,#410);
#361=LINE('',#919,#411);
#362=LINE('',#921,#412);
#363=LINE('',#923,#413);
#364=LINE('',#938,#414);
#365=LINE('',#949,#415);
#366=LINE('',#972,#416);
#367=LINE('',#974,#417);
#368=LINE('',#976,#418);
#369=LINE('',#978,#419);
#370=LINE('',#980,#420);
#371=LINE('',#982,#421);
#372=LINE('',#984,#422);
#373=LINE('',#986,#423);
#374=LINE('',#988,#424);
#375=LINE('',#990,#425);
#376=LINE('',#992,#426);
#377=LINE('',#994,#427);
#378=LINE('',#996,#428);
#379=VECTOR('',#684,1.);
#380=VECTOR('',#685,1.);
#381=VECTOR('',#686,1.);
#382=VECTOR('',#687,1.);
#383=VECTOR('',#690,1.);
#384=VECTOR('',#691,1.);
#385=VECTOR('',#692,1.);
#386=VECTOR('',#695,1.);
#387=VECTOR('',#696,1.);
#388=VECTOR('',#697,1.);
#389=VECTOR('',#700,1.);
#390=VECTOR('',#701,1.);
#391=VECTOR('',#702,1.);
#392=VECTOR('',#703,1.);
#393=VECTOR('',#704,1.);
#394=VECTOR('',#705,1.);
#395=VECTOR('',#706,1.);
#396=VECTOR('',#707,1.);
#397=VECTOR('',#708,1.);
#398=VECTOR('',#711,1.);
#399=VECTOR('',#712,1.);
#400=VECTOR('',#713,1.);
#401=VECTOR('',#714,1.);
#402=VECTOR('',#715,1.);
#403=VECTOR('',#716,1.);
#404=VECTOR('',#717,1.);
#405=VECTOR('',#718,1.);
#406=VECTOR('',#719,1.);
#407=VECTOR('',#722,1.);
#408=VECTOR('',#723,1.);
#409=VECTOR('',#724,1.);
#410=VECTOR('',#725,1.);
#411=VECTOR('',#726,1.);
#412=VECTOR('',#727,1.);
#413=VECTOR('',#728,1.);
#414=VECTOR('',#745,1.);
#415=VECTOR('',#762,1.);
#416=VECTOR('',#797,1.);
#417=VECTOR('',#798,1.);
#418=VECTOR('',#801,1.);
#419=VECTOR('',#802,1.);
#420=VECTOR('',#805,1.);
#421=VECTOR('',#806,1.);
#422=VECTOR('',#809,1.);
#423=VECTOR('',#810,1.);
#424=VECTOR('',#813,1.);
#425=VECTOR('',#814,1.);
#426=VECTOR('',#817,1.);
#427=VECTOR('',#818,1.);
#428=VECTOR('',#821,1.);
#429=EDGE_LOOP('',(#49,#50,#51,#52));
#430=EDGE_LOOP('',(#53,#54,#55,#56));
#431=EDGE_LOOP('',(#57,#58,#59,#60));
#432=EDGE_LOOP('',(#61,#62,#63,#64,#65,#66,#67,#68,#69,#70));
#433=EDGE_LOOP('',(#71,#72,#73,#74,#75,#76,#77,#78,#79,#80));
#434=EDGE_LOOP('',(#81,#82,#83,#84,#85,#86,#87,#88,#89,#90));
#435=EDGE_LOOP('',(#91));
#436=EDGE_LOOP('',(#92));
#437=EDGE_LOOP('',(#93));
#438=EDGE_LOOP('',(#94));
#439=EDGE_LOOP('',(#95));
#440=EDGE_LOOP('',(#96));
#441=EDGE_LOOP('',(#97,#98,#99,#100,#101,#102));
#442=EDGE_LOOP('',(#103));
#443=EDGE_LOOP('',(#104,#105));
#444=EDGE_LOOP('',(#106));
#445=EDGE_LOOP('',(#107));
#446=EDGE_LOOP('',(#108,#109,#110,#111));
#447=EDGE_LOOP('',(#112,#113,#114,#115));
#448=EDGE_LOOP('',(#116,#117,#118,#119));
#449=EDGE_LOOP('',(#120));
#450=EDGE_LOOP('',(#121));
#451=EDGE_LOOP('',(#122));
#452=EDGE_LOOP('',(#123));
#453=EDGE_LOOP('',(#124,#125,#126,#127));
#454=EDGE_LOOP('',(#128,#129,#130,#131));
#455=EDGE_LOOP('',(#132));
#456=EDGE_LOOP('',(#133,#134,#135,#136));
#457=EDGE_LOOP('',(#137));
#458=EDGE_LOOP('',(#138));
#459=EDGE_LOOP('',(#139));
#460=EDGE_LOOP('',(#140));
#461=EDGE_LOOP('',(#141,#142,#143,#144));
#462=EDGE_LOOP('',(#145,#146,#147,#148));
#463=EDGE_LOOP('',(#149,#150,#151,#152));
#464=EDGE_LOOP('',(#153,#154,#155,#156));
#465=EDGE_LOOP('',(#157,#158,#159,#160));
#466=EDGE_LOOP('',(#161,#162,#163,#164));
#467=EDGE_LOOP('',(#165,#166,#167,#168));
#468=EDGE_LOOP('',(#169));
#469=EDGE_LOOP('',(#170));
#470=EDGE_LOOP('',(#171));
#471=EDGE_LOOP('',(#172));
#472=EDGE_LOOP('',(#173));
#473=EDGE_LOOP('',(#174));
#474=EDGE_LOOP('',(#175));
#475=EDGE_LOOP('',(#176));
#476=EDGE_LOOP('',(#177));
#477=EDGE_LOOP('',(#178));
#478=EDGE_LOOP('',(#179));
#479=EDGE_LOOP('',(#180,#181,#182,#183,#184,#185,#186,#187,#188,#189));
#480=EDGE_LOOP('',(#190));
#481=EDGE_LOOP('',(#191));
#482=EDGE_LOOP('',(#192));
#483=EDGE_LOOP('',(#193));
#484=EDGE_LOOP('',(#194));
#485=EDGE_LOOP('',(#195));
#486=EDGE_LOOP('',(#196));
#487=EDGE_LOOP('',(#197));
#488=EDGE_LOOP('',(#198));
#489=FACE_BOUND('',#429,.T.);
#490=FACE_BOUND('',#430,.T.);
#491=FACE_BOUND('',#431,.T.);
#492=FACE_BOUND('',#432,.T.);
#493=FACE_BOUND('',#433,.T.);
#494=FACE_BOUND('',#434,.T.);
#495=FACE_BOUND('',#435,.T.);
#496=FACE_BOUND('',#436,.T.);
#497=FACE_BOUND('',#437,.T.);
#498=FACE_BOUND('',#438,.T.);
#499=FACE_BOUND('',#439,.T.);
#500=FACE_BOUND('',#440,.T.);
#501=FACE_BOUND('',#441,.T.);
#502=FACE_BOUND('',#442,.T.);
#503=FACE_BOUND('',#443,.T.);
#504=FACE_BOUND('',#444,.T.);
#505=FACE_BOUND('',#445,.T.);
#506=FACE_BOUND('',#446,.T.);
#507=FACE_BOUND('',#447,.T.);
#508=FACE_BOUND('',#448,.T.);
#509=FACE_BOUND('',#449,.T.);
#510=FACE_BOUND('',#450,.T.);
#511=FACE_BOUND('',#451,.T.);
#512=FACE_BOUND('',#452,.T.);
#513=FACE_BOUND('',#453,.T.);
#514=FACE_BOUND('',#454,.T.);
#515=FACE_BOUND('',#455,.T.);
#516=FACE_BOUND('',#456,.T.);
#517=FACE_BOUND('',#457,.T.);
#518=FACE_BOUND('',#458,.T.);
#519=FACE_BOUND('',#459,.T.);
#520=FACE_BOUND('',#460,.T.);
#521=FACE_BOUND('',#461,.T.);
#522=FACE_BOUND('',#462,.T.);
#523=FACE_BOUND('',#463,.T.);
#524=FACE_BOUND('',#464,.T.);
#525=FACE_BOUND('',#465,.T.);
#526=FACE_BOUND('',#466,.T.);
#527=FACE_BOUND('',#467,.T.);
#528=FACE_BOUND('',#468,.T.);
#529=FACE_BOUND('',#469,.T.);
#530=FACE_BOUND('',#470,.T.);
#531=FACE_BOUND('',#471,.T.);
#532=FACE_BOUND('',#472,.T.);
#533=FACE_BOUND('',#473,.T.);
#534=FACE_BOUND('',#474,.T.);
#535=FACE_BOUND('',#475,.T.);
#536=FACE_BOUND('',#476,.T.);
#537=FACE_BOUND('',#477,.T.);
#538=FACE_BOUND('',#478,.T.);
#539=FACE_BOUND('',#479,.T.);
#540=FACE_BOUND('',#480,.T.);
#541=FACE_BOUND('',#481,.T.);
#542=FACE_BOUND('',#482,.T.);
#543=FACE_BOUND('',#483,.T.);
#544=FACE_BOUND('',#484,.T.);
#545=FACE_BOUND('',#485,.T.);
#546=FACE_BOUND('',#486,.T.);
#547=FACE_BOUND('',#487,.T.);
#548=FACE_BOUND('',#488,.T.);
#549=PLANE('',#620);
#550=PLANE('',#621);
#551=PLANE('',#622);
#552=PLANE('',#623);
#553=PLANE('',#624);
#554=PLANE('',#625);
#555=PLANE('',#632);
#556=PLANE('',#638);
#557=PLANE('',#640);
#558=PLANE('',#641);
#559=PLANE('',#644);
#560=PLANE('',#647);
#561=PLANE('',#652);
#562=PLANE('',#655);
#563=PLANE('',#658);
#564=PLANE('',#659);
#565=PLANE('',#660);
#566=PLANE('',#661);
#567=PLANE('',#662);
#568=PLANE('',#663);
#569=PLANE('',#664);
#570=PLANE('',#675);
#571=PLANE('',#679);
#572=ADVANCED_FACE('',(#489),#549,.F.);
#573=ADVANCED_FACE('',(#490),#550,.T.);
#574=ADVANCED_FACE('',(#491),#551,.T.);
#575=ADVANCED_FACE('',(#492),#552,.F.);
#576=ADVANCED_FACE('',(#493),#553,.T.);
#577=ADVANCED_FACE('',(#494,#495,#496,#497,#498,#499),#554,.T.);
#578=ADVANCED_FACE('',(#500,#501),#555,.F.);
#579=ADVANCED_FACE('',(#502,#503),#12,.T.);
#580=ADVANCED_FACE('',(#504,#505),#556,.F.);
#581=ADVANCED_FACE('',(#506),#557,.F.);
#582=ADVANCED_FACE('',(#507),#558,.F.);
#583=ADVANCED_FACE('',(#508),#13,.T.);
#584=ADVANCED_FACE('',(#509),#559,.F.);
#585=ADVANCED_FACE('',(#510,#511),#14,.T.);
#586=ADVANCED_FACE('',(#512,#513),#560,.F.);
#587=ADVANCED_FACE('',(#514),#15,.T.);
#588=ADVANCED_FACE('',(#515,#516,#517),#561,.T.);
#589=ADVANCED_FACE('',(#518),#562,.T.);
#590=ADVANCED_FACE('',(#519,#520),#16,.T.);
#591=ADVANCED_FACE('',(#521),#563,.T.);
#592=ADVANCED_FACE('',(#522),#564,.T.);
#593=ADVANCED_FACE('',(#523),#565,.F.);
#594=ADVANCED_FACE('',(#524),#566,.F.);
#595=ADVANCED_FACE('',(#525),#567,.T.);
#596=ADVANCED_FACE('',(#526),#568,.F.);
#597=ADVANCED_FACE('',(#527),#569,.T.);
#598=ADVANCED_FACE('',(#528,#529),#17,.F.);
#599=ADVANCED_FACE('',(#530,#531),#18,.F.);
#600=ADVANCED_FACE('',(#532,#533),#19,.F.);
#601=ADVANCED_FACE('',(#534,#535),#20,.F.);
#602=ADVANCED_FACE('',(#536,#537),#21,.F.);
#603=ADVANCED_FACE('',(#538,#539,#540,#541,#542,#543),#570,.F.);
#604=ADVANCED_FACE('',(#544,#545),#22,.F.);
#605=ADVANCED_FACE('',(#546,#547),#23,.F.);
#606=ADVANCED_FACE('',(#548),#571,.F.);
#607=CLOSED_SHELL('',(#572,#573,#574,#575,#576,#577,#578,#579,#580,#581,
#582,#583,#584,#585,#586,#587,#588,#589,#590,#591,#592,#593,#594,#595,#596,
#597,#598,#599,#600,#601,#602,#603,#604,#605,#606));
#608=STYLED_ITEM('',(#609),#616);
#609=PRESENTATION_STYLE_ASSIGNMENT((#610));
#610=SURFACE_STYLE_USAGE(.BOTH.,#611);
#611=SURFACE_SIDE_STYLE('',(#612));
#612=SURFACE_STYLE_FILL_AREA(#613);
#613=FILL_AREA_STYLE('',(#614));
#614=FILL_AREA_STYLE_COLOUR('',#615);
#615=COLOUR_RGB('',0.615686274509804,0.811764705882353,0.929411764705882);
#616=MANIFOLD_SOLID_BREP('Part 1',#607);
#617=SHAPE_DEFINITION_REPRESENTATION(#1024,#618);
#618=SHAPE_REPRESENTATION('Part 1',(#619),#1019);
#619=AXIS2_PLACEMENT_3D('',#852,#680,#681);
#620=AXIS2_PLACEMENT_3D('',#853,#682,#683);
#621=AXIS2_PLACEMENT_3D('',#862,#688,#689);
#622=AXIS2_PLACEMENT_3D('',#868,#693,#694);
#623=AXIS2_PLACEMENT_3D('',#874,#698,#699);
#624=AXIS2_PLACEMENT_3D('',#892,#709,#710);
#625=AXIS2_PLACEMENT_3D('',#910,#720,#721);
#626=AXIS2_PLACEMENT_3D('',#924,#729,#730);
#627=AXIS2_PLACEMENT_3D('',#925,#731,#732);
#628=AXIS2_PLACEMENT_3D('',#927,#733,#734);
#629=AXIS2_PLACEMENT_3D('',#929,#735,#736);
#630=AXIS2_PLACEMENT_3D('',#931,#737,#738);
#631=AXIS2_PLACEMENT_3D('',#933,#739,#740);
#632=AXIS2_PLACEMENT_3D('',#935,#741,#742);
#633=AXIS2_PLACEMENT_3D('',#936,#743,#744);
#634=AXIS2_PLACEMENT_3D('',#939,#746,#747);
#635=AXIS2_PLACEMENT_3D('',#940,#748,#749);
#636=AXIS2_PLACEMENT_3D('',#942,#750,#751);
#637=AXIS2_PLACEMENT_3D('',#943,#752,#753);
#638=AXIS2_PLACEMENT_3D('',#944,#754,#755);
#639=AXIS2_PLACEMENT_3D('',#945,#756,#757);
#640=AXIS2_PLACEMENT_3D('',#947,#758,#759);
#641=AXIS2_PLACEMENT_3D('',#948,#760,#761);
#642=AXIS2_PLACEMENT_3D('',#950,#763,#764);
#643=AXIS2_PLACEMENT_3D('',#951,#765,#766);
#644=AXIS2_PLACEMENT_3D('',#952,#767,#768);
#645=AXIS2_PLACEMENT_3D('',#953,#769,#770);
#646=AXIS2_PLACEMENT_3D('',#955,#771,#772);
#647=AXIS2_PLACEMENT_3D('',#956,#773,#774);
#648=AXIS2_PLACEMENT_3D('',#957,#775,#776);
#649=AXIS2_PLACEMENT_3D('',#959,#777,#778);
#650=AXIS2_PLACEMENT_3D('',#960,#779,#780);
#651=AXIS2_PLACEMENT_3D('',#961,#781,#782);
#652=AXIS2_PLACEMENT_3D('',#962,#783,#784);
#653=AXIS2_PLACEMENT_3D('',#963,#785,#786);
#654=AXIS2_PLACEMENT_3D('',#965,#787,#788);
#655=AXIS2_PLACEMENT_3D('',#967,#789,#790);
#656=AXIS2_PLACEMENT_3D('',#968,#791,#792);
#657=AXIS2_PLACEMENT_3D('',#970,#793,#794);
#658=AXIS2_PLACEMENT_3D('',#971,#795,#796);
#659=AXIS2_PLACEMENT_3D('',#975,#799,#800);
#660=AXIS2_PLACEMENT_3D('',#979,#803,#804);
#661=AXIS2_PLACEMENT_3D('',#983,#807,#808);
#662=AXIS2_PLACEMENT_3D('',#987,#811,#812);
#663=AXIS2_PLACEMENT_3D('',#991,#815,#816);
#664=AXIS2_PLACEMENT_3D('',#995,#819,#820);
#665=AXIS2_PLACEMENT_3D('',#997,#822,#823);
#666=AXIS2_PLACEMENT_3D('',#998,#824,#825);
#667=AXIS2_PLACEMENT_3D('',#1000,#826,#827);
#668=AXIS2_PLACEMENT_3D('',#1001,#828,#829);
#669=AXIS2_PLACEMENT_3D('',#1003,#830,#831);
#670=AXIS2_PLACEMENT_3D('',#1004,#832,#833);
#671=AXIS2_PLACEMENT_3D('',#1006,#834,#835);
#672=AXIS2_PLACEMENT_3D('',#1007,#836,#837);
#673=AXIS2_PLACEMENT_3D('',#1009,#838,#839);
#674=AXIS2_PLACEMENT_3D('',#1010,#840,#841);
#675=AXIS2_PLACEMENT_3D('',#1012,#842,#843);
#676=AXIS2_PLACEMENT_3D('',#1013,#844,#845);
#677=AXIS2_PLACEMENT_3D('',#1014,#846,#847);
#678=AXIS2_PLACEMENT_3D('',#1015,#848,#849);
#679=AXIS2_PLACEMENT_3D('',#1017,#850,#851);
#680=DIRECTION('',(0.,0.,1.));
#681=DIRECTION('',(1.,0.,0.));
#682=DIRECTION('',(-3.82097023568285E-17,6.46444143707926E-16,-1.));
#683=DIRECTION('',(0.,1.,6.46444143707926E-16));
#684=DIRECTION('',(-1.00000000000001,1.62370117351425E-15,3.820970235683E-17));
#685=DIRECTION('',(-1.62370117351423E-15,1.,6.46444143707926E-16));
#686=DIRECTION('',(1.,0.,-3.82097023568285E-17));
#687=DIRECTION('',(-1.62370117351423E-15,1.,6.46444143707926E-16));
#688=DIRECTION('',(-0.707106781186534,-1.60523514808666E-15,0.707106781186561));
#689=DIRECTION('',(0.707106781186561,0.,0.707106781186534));
#690=DIRECTION('',(0.707106781186557,-6.04429467114714E-16,0.70710678118653));
#691=DIRECTION('',(0.,1.,2.27014531722209E-15));
#692=DIRECTION('',(-0.707106781186561,0.,-0.707106781186534));
#693=DIRECTION('',(0.707106781186534,6.91025072738226E-16,0.707106781186561));
#694=DIRECTION('',(0.707106781186561,0.,-0.707106781186534));
#695=DIRECTION('',(0.,1.,-9.77257029806236E-16));
#696=DIRECTION('',(0.707106781186557,-1.69183075371024E-15,-0.70710678118653));
#697=DIRECTION('',(-0.707106781186561,0.,0.707106781186534));
#698=DIRECTION('',(-1.,0.,0.));
#699=DIRECTION('',(0.,0.,1.));
#700=DIRECTION('',(0.,1.,2.27014531722209E-15));
#701=DIRECTION('',(0.,0.,1.));
#702=DIRECTION('',(0.,1.,0.));
#703=DIRECTION('',(0.,0.,1.));
#704=DIRECTION('',(0.,1.,0.));
#705=DIRECTION('',(0.,0.,1.));
#706=DIRECTION('',(0.,1.,0.));
#707=DIRECTION('',(0.,1.,0.));
#708=DIRECTION('',(0.,0.,1.));
#709=DIRECTION('',(-1.,0.,0.));
#710=DIRECTION('',(0.,0.,1.));
#711=DIRECTION('',(0.,0.,1.));
#712=DIRECTION('',(0.,1.,-9.77257029806236E-16));
#713=DIRECTION('',(0.,0.,1.));
#714=DIRECTION('',(0.,1.,0.));
#715=DIRECTION('',(0.,1.,0.));
#716=DIRECTION('',(0.,0.,1.));
#717=DIRECTION('',(0.,1.,0.));
#718=DIRECTION('',(0.,0.,1.));
#719=DIRECTION('',(0.,1.,0.));
#720=DIRECTION('',(0.,-1.,0.));
#721=DIRECTION('',(1.,0.,0.));
#722=DIRECTION('',(0.707106781186557,-6.04429467114714E-16,0.70710678118653));
#723=DIRECTION('',(3.82097023568302E-17,-7.68908823622673E-16,-0.999999999999974));
#724=DIRECTION('',(0.707106781186556,-1.69183075371024E-15,-0.70710678118653));
#725=DIRECTION('',(-1.00000000000001,1.62370117351425E-15,3.820970235683E-17));
#726=DIRECTION('',(0.707106781186556,-6.04429467114713E-16,0.70710678118653));
#727=DIRECTION('',(3.82097023568302E-17,-7.68908823622673E-16,-0.999999999999974));
#728=DIRECTION('',(0.707106781186557,-1.69183075371024E-15,-0.70710678118653));
#729=DIRECTION('',(0.,-1.,0.));
#730=DIRECTION('',(0.,0.,-1.));
#731=DIRECTION('',(-1.62370117351425E-15,1.00000000000001,7.68908823622666E-16));
#732=DIRECTION('',(1.00000000000001,-1.62370117351425E-15,-3.820970235683E-17));
#733=DIRECTION('',(1.62370117351425E-15,-1.00000000000001,-7.68908823622666E-16));
#734=DIRECTION('',(-1.00000000000001,1.62370117351425E-15,3.820970235683E-17));
#735=DIRECTION('',(1.62370117351425E-15,-1.00000000000001,-7.68908823622666E-16));
#736=DIRECTION('',(-1.00000000000001,1.62370117351425E-15,3.820970235683E-17));
#737=DIRECTION('',(1.62370117351425E-15,-1.00000000000001,-7.68908823622666E-16));
#738=DIRECTION('',(-1.00000000000001,1.62370117351425E-15,3.820970235683E-17));
#739=DIRECTION('',(1.62370117351425E-15,-1.00000000000001,-7.68908823622666E-16));
#740=DIRECTION('',(-1.00000000000001,1.62370117351425E-15,3.820970235683E-17));
#741=DIRECTION('',(0.,-1.,0.));
#742=DIRECTION('',(1.,0.,0.));
#743=DIRECTION('',(0.,-1.,0.));
#744=DIRECTION('',(0.,0.,-1.));
#745=DIRECTION('',(-1.,0.,0.));
#746=DIRECTION('',(0.,0.,1.));
#747=DIRECTION('',(1.,0.,0.));
#748=DIRECTION('',(0.,0.,1.));
#749=DIRECTION('',(1.,0.,0.));
#750=DIRECTION('',(0.,0.,1.));
#751=DIRECTION('',(1.,0.,0.));
#752=DIRECTION('',(0.,0.,1.));
#753=DIRECTION('',(1.,0.,0.));
#754=DIRECTION('',(0.,0.,1.));
#755=DIRECTION('',(1.,0.,0.));
#756=DIRECTION('',(0.,0.,1.));
#757=DIRECTION('',(1.,0.,0.));
#758=DIRECTION('',(0.,0.,1.));
#759=DIRECTION('',(1.,0.,0.));
#760=DIRECTION('',(0.,0.,1.));
#761=DIRECTION('',(1.,0.,0.));
#762=DIRECTION('',(-1.,0.,0.));
#763=DIRECTION('',(0.,1.,0.));
#764=DIRECTION('',(0.,0.,1.));
#765=DIRECTION('',(0.,-1.,0.));
#766=DIRECTION('',(0.,0.,-1.));
#767=DIRECTION('',(0.,-1.,0.));
#768=DIRECTION('',(1.,0.,0.));
#769=DIRECTION('',(0.,-1.,0.));
#770=DIRECTION('',(0.,0.,-1.));
#771=DIRECTION('',(0.,1.,0.));
#772=DIRECTION('',(0.,0.,1.));
#773=DIRECTION('',(0.,-1.,0.));
#774=DIRECTION('',(1.,0.,0.));
#775=DIRECTION('',(0.,-1.,0.));
#776=DIRECTION('',(0.,0.,-1.));
#777=DIRECTION('',(0.,-1.,0.));
#778=DIRECTION('',(0.,0.,-1.));
#779=DIRECTION('',(0.,1.,0.));
#780=DIRECTION('',(0.,0.,1.));
#781=DIRECTION('',(0.,-1.,0.));
#782=DIRECTION('',(0.,0.,-1.));
#783=DIRECTION('',(0.,-1.,0.));
#784=DIRECTION('',(1.,0.,0.));
#785=DIRECTION('',(0.,-1.,0.));
#786=DIRECTION('',(0.,0.,-1.));
#787=DIRECTION('',(0.,-1.,0.));
#788=DIRECTION('',(0.,0.,-1.));
#789=DIRECTION('',(0.,-1.,0.));
#790=DIRECTION('',(1.,0.,0.));
#791=DIRECTION('',(0.,-1.,0.));
#792=DIRECTION('',(0.,0.,-1.));
#793=DIRECTION('',(0.,1.,0.));
#794=DIRECTION('',(0.,0.,1.));
#795=DIRECTION('',(-0.707106781186534,-6.04429467114678E-16,-0.707106781186561));
#796=DIRECTION('',(-0.707106781186561,0.,0.707106781186534));
#797=DIRECTION('',(1.62370117351423E-15,-1.,-7.68908823622656E-16));
#798=DIRECTION('',(0.707106781186557,-1.69183075371024E-15,-0.70710678118653));
#799=DIRECTION('',(0.707106781186534,1.6918307537102E-15,-0.707106781186561));
#800=DIRECTION('',(-0.707106781186561,0.,-0.707106781186534));
#801=DIRECTION('',(0.707106781186557,-6.04429467114714E-16,0.70710678118653));
#802=DIRECTION('',(1.62370117351423E-15,-1.,-7.68908823622656E-16));
#803=DIRECTION('',(-1.,-1.62370117351423E-15,-3.820970235683E-17));
#804=DIRECTION('',(1.62370117351423E-15,-1.,0.));
#805=DIRECTION('',(3.82097023568302E-17,-7.68908823622673E-16,-0.999999999999974));
#806=DIRECTION('',(1.62370117351423E-15,-1.,-7.68908823622656E-16));
#807=DIRECTION('',(-0.707106781186534,-6.04429467114679E-16,-0.707106781186561));
#808=DIRECTION('',(-0.707106781186561,0.,0.707106781186534));
#809=DIRECTION('',(0.707106781186556,-1.69183075371024E-15,-0.70710678118653));
#810=DIRECTION('',(1.62370117351423E-15,-1.,-7.68908823622656E-16));
#811=DIRECTION('',(3.82097023568283E-17,-7.68908823622656E-16,1.));
#812=DIRECTION('',(0.,-1.,-7.68908823622656E-16));
#813=DIRECTION('',(-1.00000000000001,1.62370117351425E-15,3.820970235683E-17));
#814=DIRECTION('',(1.62370117351423E-15,-1.,-7.68908823622656E-16));
#815=DIRECTION('',(0.707106781186534,1.6918307537102E-15,-0.707106781186561));
#816=DIRECTION('',(-0.707106781186561,0.,-0.707106781186534));
#817=DIRECTION('',(0.707106781186556,-6.04429467114713E-16,0.70710678118653));
#818=DIRECTION('',(1.62370117351423E-15,-1.,-7.68908823622656E-16));
#819=DIRECTION('',(-1.,-1.62370117351423E-15,-3.820970235683E-17));
#820=DIRECTION('',(1.62370117351423E-15,-1.,0.));
#821=DIRECTION('',(3.82097023568302E-17,-7.68908823622673E-16,-0.999999999999974));
#822=DIRECTION('',(1.62370117351423E-15,-1.,-7.68908823622656E-16));
#823=DIRECTION('',(1.,1.62370117351423E-15,0.));
#824=DIRECTION('',(1.62370117351425E-15,-1.00000000000001,-7.68908823622666E-16));
#825=DIRECTION('',(-1.00000000000001,1.62370117351425E-15,3.820970235683E-17));
#826=DIRECTION('',(1.62370117351423E-15,-1.,-7.68908823622656E-16));
#827=DIRECTION('',(1.,1.62370117351423E-15,0.));
#828=DIRECTION('',(1.62370117351425E-15,-1.00000000000001,-7.68908823622666E-16));
#829=DIRECTION('',(-1.00000000000001,1.62370117351425E-15,3.820970235683E-17));
#830=DIRECTION('',(1.62370117351423E-15,-1.,-7.68908823622656E-16));
#831=DIRECTION('',(1.,1.62370117351423E-15,0.));
#832=DIRECTION('',(1.62370117351425E-15,-1.00000000000001,-7.68908823622666E-16));
#833=DIRECTION('',(-1.00000000000001,1.62370117351425E-15,3.820970235683E-17));
#834=DIRECTION('',(1.62370117351423E-15,-1.,-7.68908823622656E-16));
#835=DIRECTION('',(1.,1.62370117351423E-15,0.));
#836=DIRECTION('',(-1.62370117351425E-15,1.00000000000001,7.68908823622666E-16));
#837=DIRECTION('',(1.00000000000001,-1.62370117351425E-15,-3.820970235683E-17));
#838=DIRECTION('',(1.62370117351423E-15,-1.,-7.68908823622656E-16));
#839=DIRECTION('',(1.,1.62370117351423E-15,0.));
#840=DIRECTION('',(1.62370117351425E-15,-1.00000000000001,-7.68908823622666E-16));
#841=DIRECTION('',(-1.00000000000001,1.62370117351425E-15,3.820970235683E-17));
#842=DIRECTION('',(1.62370117351423E-15,-1.,-7.68908823622656E-16));
#843=DIRECTION('',(1.,1.62370117351423E-15,1.24847815924155E-30));
#844=DIRECTION('',(0.,-1.,0.));
#845=DIRECTION('',(0.,0.,-1.));
#846=DIRECTION('',(0.,0.,-1.));
#847=DIRECTION('',(-1.,0.,0.));
#848=DIRECTION('',(0.,0.,1.));
#849=DIRECTION('',(1.,0.,0.));
#850=DIRECTION('',(0.,0.,1.));
#851=DIRECTION('',(1.,0.,0.));
#852=CARTESIAN_POINT('',(0.,0.,0.));
#853=CARTESIAN_POINT('',(-2.12868711042081E-17,0.00770000000000184,0.264908542275429));
#854=CARTESIAN_POINT('',(-0.0132922835533731,0.017,0.264908542275429));
#855=CARTESIAN_POINT('',(0.0170000000000007,0.017,0.264908542275429));
#856=CARTESIAN_POINT('',(-0.0170000000000008,0.017,0.264908542275429));
#857=CARTESIAN_POINT('',(0.0170000000000007,0.00770000000000182,0.264908542275429));
#858=CARTESIAN_POINT('',(0.0170000000000007,0.03,0.264908542275429));
#859=CARTESIAN_POINT('',(-6.4343626338963E-18,0.03,0.264908542275429));
#860=CARTESIAN_POINT('',(-0.0170000000000008,0.03,0.264908542275429));
#861=CARTESIAN_POINT('',(-0.0170000000000008,0.00770000000000187,0.264908542275429));
#862=CARTESIAN_POINT('',(0.0190000000000008,0.00770000000000181,0.266908542275429));
#863=CARTESIAN_POINT('',(0.0170000000000007,0.017,0.264908542275429));
#864=CARTESIAN_POINT('',(0.0175,0.017,0.265408542275428));
#865=CARTESIAN_POINT('',(0.0175,-0.015,0.265408542275428));
#866=CARTESIAN_POINT('',(0.0175,0.03,0.265408542275428));
#867=CARTESIAN_POINT('',(0.00189786443114279,0.03,0.249806406706572));
#868=CARTESIAN_POINT('',(-0.0190000000000008,0.00770000000000187,0.266908542275429));
#869=CARTESIAN_POINT('',(-0.0175,-0.015,0.265408542275428));
#870=CARTESIAN_POINT('',(-0.0175,0.017,0.265408542275428));
#871=CARTESIAN_POINT('',(-0.0175,0.03,0.265408542275428));
#872=CARTESIAN_POINT('',(-0.021000000000001,0.017,0.268908542275429));
#873=CARTESIAN_POINT('',(-0.00189786443114285,0.03,0.249806406706572));
#874=CARTESIAN_POINT('',(0.0175,-0.015,0.207954271137715));
#875=CARTESIAN_POINT('',(0.0175,-0.015,0.265408542275428));
#876=CARTESIAN_POINT('',(0.0175,0.015,0.265408542275428));
#877=CARTESIAN_POINT('',(0.0175,0.015,0.250908542275429));
#878=CARTESIAN_POINT('',(0.0175,0.015,0.215908542275429));
#879=CARTESIAN_POINT('',(0.0175,-0.015,0.215908542275429));
#880=CARTESIAN_POINT('',(0.0175,-0.015,0.215908542275429));
#881=CARTESIAN_POINT('',(0.0175,-0.015,0.250908542275429));
#882=CARTESIAN_POINT('',(0.0175,-0.015,0.285908542275429));
#883=CARTESIAN_POINT('',(0.0175,-0.03,0.285908542275429));
#884=CARTESIAN_POINT('',(0.0175,-0.03,0.285908542275429));
#885=CARTESIAN_POINT('',(0.0175,-0.03,0.250908542275429));
#886=CARTESIAN_POINT('',(0.0175,-0.03,0.2));
#887=CARTESIAN_POINT('',(0.0175,-0.015,0.2));
#888=CARTESIAN_POINT('',(0.0175,1.83697019872103E-18,0.2));
#889=CARTESIAN_POINT('',(0.0175,-0.015,0.2));
#890=CARTESIAN_POINT('',(0.0175,0.03,0.2));
#891=CARTESIAN_POINT('',(0.0175,0.03,0.250908542275429));
#892=CARTESIAN_POINT('',(-0.0175,-0.015,0.207954271137715));
#893=CARTESIAN_POINT('',(-0.0175,0.015,0.250908542275429));
#894=CARTESIAN_POINT('',(-0.0175,0.015,0.215908542275429));
#895=CARTESIAN_POINT('',(-0.0175,0.015,0.265408542275428));
#896=CARTESIAN_POINT('',(-0.0175,-0.015,0.265408542275428));
#897=CARTESIAN_POINT('',(-0.0175,0.03,0.250908542275429));
#898=CARTESIAN_POINT('',(-0.0175,0.03,0.2));
#899=CARTESIAN_POINT('',(-0.0175,-0.015,0.2));
#900=CARTESIAN_POINT('',(-0.0175,1.83697019872103E-18,0.2));
#901=CARTESIAN_POINT('',(-0.0175,-0.015,0.2));
#902=CARTESIAN_POINT('',(-0.0175,-0.03,0.2));
#903=CARTESIAN_POINT('',(-0.0175,-0.03,0.250908542275429));
#904=CARTESIAN_POINT('',(-0.0175,-0.03,0.285908542275429));
#905=CARTESIAN_POINT('',(-0.0175,-0.03,0.285908542275429));
#906=CARTESIAN_POINT('',(-0.0175,-0.015,0.285908542275429));
#907=CARTESIAN_POINT('',(-0.0175,-0.015,0.250908542275429));
#908=CARTESIAN_POINT('',(-0.0175,-0.015,0.215908542275429));
#909=CARTESIAN_POINT('',(-0.0175,-0.015,0.215908542275429));
#910=CARTESIAN_POINT('',(-6.93889390390723E-18,0.015,0.251704271137714));
#911=CARTESIAN_POINT('',(0.0170000000000007,0.015,0.264908542275429));
#912=CARTESIAN_POINT('',(0.0210000000000009,0.015,0.268908542275429));
#913=CARTESIAN_POINT('',(0.0210000000000009,0.015,0.272616258722057));
#914=CARTESIAN_POINT('',(0.0210000000000009,0.015,0.302908542275429));
#915=CARTESIAN_POINT('',(0.0190000000000007,0.015,0.304908542275429));
#916=CARTESIAN_POINT('',(0.0170000000000007,0.015,0.306908542275429));
#917=CARTESIAN_POINT('',(-3.47446971698461E-17,0.015,0.306908542275429));
#918=CARTESIAN_POINT('',(-0.0170000000000008,0.015,0.306908542275429));
#919=CARTESIAN_POINT('',(-0.0190000000000008,0.015,0.304908542275429));
#920=CARTESIAN_POINT('',(-0.021000000000001,0.0150000000000002,0.302908542275429));
#921=CARTESIAN_POINT('',(-0.021000000000001,0.015,0.285908542275429));
#922=CARTESIAN_POINT('',(-0.021000000000001,0.015,0.268908542275429));
#923=CARTESIAN_POINT('',(-0.021000000000001,0.015,0.268908542275429));
#924=CARTESIAN_POINT('',(0.,0.015,0.215908542275429));
#925=CARTESIAN_POINT('',(-3.74117403723064E-17,0.015,0.285908542275429));
#926=CARTESIAN_POINT('',(0.0110000000000004,0.015,0.285908542275429));
#927=CARTESIAN_POINT('',(0.0155000000000006,0.015,0.270408542275429));
#928=CARTESIAN_POINT('',(0.0140000000000005,0.015,0.270408542275429));
#929=CARTESIAN_POINT('',(-0.0155000000000007,0.015,0.270408542275429));
#930=CARTESIAN_POINT('',(-0.0170000000000008,0.015,0.270408542275429));
#931=CARTESIAN_POINT('',(-0.0155000000000007,0.015,0.301408542275429));
#932=CARTESIAN_POINT('',(-0.0171261542028115,0.015,0.301408542275429));
#933=CARTESIAN_POINT('',(0.0155000000000006,0.015,0.301408542275429));
#934=CARTESIAN_POINT('',(0.0138738457971898,0.015,0.301408542275429));
#935=CARTESIAN_POINT('',(-6.93889390390723E-18,0.03,0.251704271137714));
#936=CARTESIAN_POINT('',(0.,0.03,0.215908542275429));
#937=CARTESIAN_POINT('',(0.,0.03,0.203408542275429));
#938=CARTESIAN_POINT('',(0.,0.03,0.2));
#939=CARTESIAN_POINT('',(0.,1.83697019872103E-18,0.18));
#940=CARTESIAN_POINT('',(0.,1.83697019872103E-18,0.18));
#941=CARTESIAN_POINT('',(0.0175,1.83697019872103E-18,0.18));
#942=CARTESIAN_POINT('',(0.,1.83697019872103E-18,0.2));
#943=CARTESIAN_POINT('',(0.,1.83697019872103E-18,0.2));
#944=CARTESIAN_POINT('',(0.,0.,0.18));
#945=CARTESIAN_POINT('',(0.,7.65404249467096E-19,0.18));
#946=CARTESIAN_POINT('',(0.0125,7.65404249467096E-19,0.18));
#947=CARTESIAN_POINT('',(0.,-0.015,0.2));
#948=CARTESIAN_POINT('',(0.,-0.015,0.2));
#949=CARTESIAN_POINT('',(0.,-0.03,0.2));
#950=CARTESIAN_POINT('',(0.,-0.015,0.215908542275429));
#951=CARTESIAN_POINT('',(0.,-0.015,0.215908542275429));
#952=CARTESIAN_POINT('',(0.,0.0325,0.215908542275429));
#953=CARTESIAN_POINT('',(0.,0.0325,0.215908542275429));
#954=CARTESIAN_POINT('',(0.,0.0325,0.203408542275429));
#955=CARTESIAN_POINT('',(0.,-0.0325,0.215908542275429));
#956=CARTESIAN_POINT('',(-6.93889390390723E-18,-0.015,0.251704271137714));
#957=CARTESIAN_POINT('',(-6.93889390390723E-18,-0.015,0.285908542275429));
#958=CARTESIAN_POINT('',(-6.93889390390723E-18,-0.015,0.271783542275429));
#959=CARTESIAN_POINT('',(-6.93889390390723E-18,-0.015,0.285908542275429));
#960=CARTESIAN_POINT('',(-6.93889390390723E-18,-0.03,0.285908542275429));
#961=CARTESIAN_POINT('',(-6.93889390390723E-18,-0.03,0.285908542275429));
#962=CARTESIAN_POINT('',(-6.93889390390723E-18,-0.03,0.251704271137714));
#963=CARTESIAN_POINT('',(-6.93889390390723E-18,-0.03,0.285908542275429));
#964=CARTESIAN_POINT('',(-6.93889390390723E-18,-0.03,0.271783542275429));
#965=CARTESIAN_POINT('',(0.,-0.03,0.215908542275429));
#966=CARTESIAN_POINT('',(0.,-0.03,0.203408542275429));
#967=CARTESIAN_POINT('',(0.,-0.0325,0.215908542275429));
#968=CARTESIAN_POINT('',(0.,-0.0325,0.215908542275429));
#969=CARTESIAN_POINT('',(0.,-0.0325,0.203408542275429));
#970=CARTESIAN_POINT('',(0.,-0.0325,0.215908542275429));
#971=CARTESIAN_POINT('',(-0.021000000000001,0.017,0.268908542275429));
#972=CARTESIAN_POINT('',(-0.021000000000001,0.017,0.268908542275429));
#973=CARTESIAN_POINT('',(-0.021000000000001,0.017,0.268908542275429));
#974=CARTESIAN_POINT('',(-0.021000000000001,0.017,0.268908542275429));
#975=CARTESIAN_POINT('',(0.0170000000000007,0.017,0.264908542275429));
#976=CARTESIAN_POINT('',(0.0170000000000007,0.017,0.264908542275429));
#977=CARTESIAN_POINT('',(0.0210000000000009,0.017,0.268908542275429));
#978=CARTESIAN_POINT('',(0.0210000000000009,0.017,0.268908542275429));
#979=CARTESIAN_POINT('',(0.0210000000000009,0.017,0.272616258722057));
#980=CARTESIAN_POINT('',(0.0210000000000009,0.017,0.272616258722057));
#981=CARTESIAN_POINT('',(0.0210000000000009,0.017,0.302908542275429));
#982=CARTESIAN_POINT('',(0.0210000000000009,0.017,0.302908542275429));
#983=CARTESIAN_POINT('',(0.0190000000000007,0.017,0.304908542275429));
#984=CARTESIAN_POINT('',(0.0190000000000007,0.017,0.304908542275429));
#985=CARTESIAN_POINT('',(0.0170000000000007,0.017,0.306908542275429));
#986=CARTESIAN_POINT('',(0.0170000000000007,0.017,0.306908542275429));
#987=CARTESIAN_POINT('',(-3.79920995168745E-17,0.017,0.306908542275429));
#988=CARTESIAN_POINT('',(-3.79920995168745E-17,0.017,0.306908542275429));
#989=CARTESIAN_POINT('',(-0.0170000000000008,0.017,0.306908542275429));
#990=CARTESIAN_POINT('',(-0.0170000000000008,0.017,0.306908542275429));
#991=CARTESIAN_POINT('',(-0.0190000000000008,0.017,0.304908542275429));
#992=CARTESIAN_POINT('',(-0.0190000000000008,0.017,0.304908542275429));
#993=CARTESIAN_POINT('',(-0.021000000000001,0.0170000000000003,0.302908542275429));
#994=CARTESIAN_POINT('',(-0.021000000000001,0.0170000000000003,0.302908542275429));
#995=CARTESIAN_POINT('',(-0.021000000000001,0.017,0.285908542275429));
#996=CARTESIAN_POINT('',(-0.021000000000001,0.017,0.285908542275429));
#997=CARTESIAN_POINT('',(-0.0155000000000007,0.017,0.301408542275429));
#998=CARTESIAN_POINT('',(-0.0155000000000007,0.017,0.301408542275429));
#999=CARTESIAN_POINT('',(-0.0171261542028115,0.017,0.301408542275429));
#1000=CARTESIAN_POINT('',(-0.0155000000000007,0.017,0.270408542275429));
#1001=CARTESIAN_POINT('',(-0.0155000000000007,0.017,0.270408542275429));
#1002=CARTESIAN_POINT('',(-0.0170000000000008,0.017,0.270408542275429));
#1003=CARTESIAN_POINT('',(0.0155000000000006,0.017,0.270408542275429));
#1004=CARTESIAN_POINT('',(0.0155000000000006,0.017,0.270408542275429));
#1005=CARTESIAN_POINT('',(0.0140000000000005,0.017,0.270408542275429));
#1006=CARTESIAN_POINT('',(-4.06591427193348E-17,0.017,0.285908542275429));
#1007=CARTESIAN_POINT('',(-4.06591427193348E-17,0.017,0.285908542275429));
#1008=CARTESIAN_POINT('',(0.0110000000000004,0.017,0.285908542275429));
#1009=CARTESIAN_POINT('',(0.0155000000000006,0.017,0.301408542275429));
#1010=CARTESIAN_POINT('',(0.0155000000000006,0.017,0.301408542275429));
#1011=CARTESIAN_POINT('',(0.0138738457971898,0.017,0.301408542275429));
#1012=CARTESIAN_POINT('',(1.50936207976571E-15,0.017,0.285908542275429));
#1013=CARTESIAN_POINT('',(-6.93889390390723E-18,-0.005,0.285908542275429));
#1014=CARTESIAN_POINT('',(0.,7.65404249467096E-19,0.2));
#1015=CARTESIAN_POINT('',(0.,7.65404249467096E-19,0.2));
#1016=CARTESIAN_POINT('',(0.0125,7.65404249467096E-19,0.2));
#1017=CARTESIAN_POINT('',(0.,0.,0.2));
#1018=MECHANICAL_DESIGN_GEOMETRIC_PRESENTATION_REPRESENTATION('',(#608),
#1019);
#1019=(
GEOMETRIC_REPRESENTATION_CONTEXT(3)
GLOBAL_UNCERTAINTY_ASSIGNED_CONTEXT((#1020))
GLOBAL_UNIT_ASSIGNED_CONTEXT((#1023,#1022,#1021))
REPRESENTATION_CONTEXT('Part 1','TOP_LEVEL_ASSEMBLY_PART')
);
#1020=UNCERTAINTY_MEASURE_WITH_UNIT(LENGTH_MEASURE(1.E-8),#1023,
'DISTANCE_ACCURACY_VALUE','Maximum Tolerance applied to model');
#1021=(
NAMED_UNIT(*)
SI_UNIT($,.STERADIAN.)
SOLID_ANGLE_UNIT()
);
#1022=(
NAMED_UNIT(*)
PLANE_ANGLE_UNIT()
SI_UNIT($,.RADIAN.)
);
#1023=(
LENGTH_UNIT()
NAMED_UNIT(*)
SI_UNIT($,.METRE.)
);
#1024=PRODUCT_DEFINITION_SHAPE('','',#1025);
#1025=PRODUCT_DEFINITION('','',#1027,#1026);
#1026=PRODUCT_DEFINITION_CONTEXT('',#1033,'design');
#1027=PRODUCT_DEFINITION_FORMATION_WITH_SPECIFIED_SOURCE('','',#1029,
 .NOT_KNOWN.);
#1028=PRODUCT_RELATED_PRODUCT_CATEGORY('','',(#1029));
#1029=PRODUCT('Part 1','Part 1','Part 1',(#1031));
#1030=PRODUCT_CATEGORY('','');
#1031=PRODUCT_CONTEXT('',#1033,'mechanical');
#1032=APPLICATION_PROTOCOL_DEFINITION('international standard',
'ap242_managed_model_based_3d_engineering',2020,#1033);
#1033=APPLICATION_CONTEXT('managed model based 3d engineering');
ENDSEC;
END-ISO-10303-21;
